<svg width="218" height="206" viewBox="0 0 218 206" fill="none" xmlns="http://www.w3.org/2000/svg">
<path d="M32.9655 67.333V205.333H1.96549V67.333H32.9655ZM0.298828 17.6663C0.298828 12.7809 2.18424 8.66634 5.96549 5.33301C9.74154 1.99967 14.0749 0.333008 18.9655 0.333008C23.8509 0.333008 28.1322 1.99967 31.7988 5.33301C35.4655 8.66634 37.2988 12.7809 37.2988 17.6663C37.2988 22.557 35.4655 26.6663 31.7988 29.9997C28.1322 33.333 23.8509 34.9997 18.9655 34.9997C14.0749 34.9997 9.74154 33.333 5.96549 29.9997C2.18424 26.6663 0.298828 22.557 0.298828 17.6663Z" fill="#80F2CE"/>
<path d="M172.632 61.9995C185.517 61.9995 196.184 65.8328 204.632 73.4995C213.074 81.1662 217.408 91.1141 217.632 103.333V205.333H186.298V114C185.85 106.223 183.517 100.114 179.298 95.6662C175.074 91.2235 168.741 88.8901 160.298 88.6662C148.074 88.6662 137.965 93.5568 129.965 103.333C121.965 113.114 117.965 125.557 117.965 140.666V205.333H86.9648V67.3328H114.965L116.965 93.9995C121.85 83.9995 129.184 76.1662 138.965 70.4995C148.741 64.8328 159.965 61.9995 172.632 61.9995Z" fill="#80F2CE"/>
</svg>
