<svg width="103" height="103" viewBox="0 0 103 103" fill="none" xmlns="http://www.w3.org/2000/svg">
<rect width="103" height="103" rx="51.5" fill="url(#paint0_linear_94_84)"/>
<path d="M11.2806 65.23C11.6132 66.2861 12.3829 67.0422 13.2839 67.5654C14.1752 68.0828 15.2833 68.4282 16.5096 68.6544C18.9652 69.1073 22.2185 69.1389 25.9927 68.8191C33.566 68.1773 43.5733 66.0897 54.2414 62.729C64.9096 59.3684 74.3065 55.3433 80.8802 51.5285C84.1563 49.6274 86.8041 47.7368 88.5568 45.9582C89.432 45.07 90.1421 44.1519 90.5758 43.217C91.0143 42.2719 91.2116 41.2111 90.879 40.1551C90.5463 39.0991 89.7767 38.3429 88.8756 37.8198C87.9843 37.3023 86.8763 36.957 85.65 36.7308C83.1943 36.2778 79.941 36.2462 76.1668 36.5661C68.5935 37.2078 58.5862 39.2954 47.9181 42.6561C37.2499 46.0167 27.853 50.0418 21.2793 53.8566C18.0032 55.7578 15.3554 57.6483 13.6028 59.4269C12.7275 60.3151 12.0175 61.2332 11.5837 62.1681C11.1452 63.1133 10.9479 64.174 11.2806 65.23Z" stroke="black" stroke-width="3"/>
<path d="M11.2806 65.23C11.6132 66.2861 12.3829 67.0422 13.2839 67.5654C14.1752 68.0828 15.2833 68.4282 16.5096 68.6544C18.9652 69.1073 22.2185 69.1389 25.9927 68.8191C33.566 68.1773 43.5733 66.0897 54.2414 62.729C64.9096 59.3684 74.3065 55.3433 80.8802 51.5285C84.1563 49.6274 86.8041 47.7368 88.5568 45.9582C89.432 45.07 90.1421 44.1519 90.5758 43.217C91.0143 42.2719 91.2116 41.2111 90.879 40.1551C90.5463 39.0991 89.7767 38.3429 88.8756 37.8198C87.9843 37.3023 86.8763 36.957 85.65 36.7308C83.1943 36.2778 79.941 36.2462 76.1668 36.5661C68.5935 37.2078 58.5862 39.2954 47.9181 42.6561C37.2499 46.0167 27.853 50.0418 21.2793 53.8566C18.0032 55.7578 15.3554 57.6483 13.6028 59.4269C12.7275 60.3151 12.0175 61.2332 11.5837 62.1681C11.1452 63.1133 10.9479 64.174 11.2806 65.23Z" stroke="black" stroke-width="3"/>
<path fill-rule="evenodd" clip-rule="evenodd" d="M76.448 43.6607C74.6154 37.937 70.8607 32.7904 65.4135 29.2821C52.9404 21.2487 36.3165 24.8477 28.2831 37.3209C20.2496 49.794 23.8487 66.4179 36.3219 74.4513C48.795 82.4848 65.4189 78.8857 73.4523 66.4126C76.3359 61.9353 77.7208 56.9232 77.7343 51.9656C71.7329 54.8845 64.4338 57.7687 56.475 60.2758C54.3679 60.9396 52.1217 59.7695 51.458 57.6625C50.7942 55.5554 51.9642 53.3092 54.0713 52.6455C62.8091 49.8929 70.5584 46.7157 76.448 43.6607Z" fill="black"/>
<path fill-rule="evenodd" clip-rule="evenodd" d="M76.448 43.6607C74.6154 37.937 70.8607 32.7904 65.4135 29.2821C52.9404 21.2487 36.3165 24.8477 28.2831 37.3209C20.2496 49.794 23.8487 66.4179 36.3219 74.4513C48.795 82.4848 65.4189 78.8857 73.4523 66.4126C76.3359 61.9353 77.7208 56.9232 77.7343 51.9656C71.7329 54.8845 64.4338 57.7687 56.475 60.2758C54.3679 60.9396 52.1217 59.7695 51.458 57.6625C50.7942 55.5554 51.9642 53.3092 54.0713 52.6455C62.8091 49.8929 70.5584 46.7157 76.448 43.6607Z" fill="black"/>
<circle cx="42" cy="61" r="5" fill="black"/>
<circle cx="42" cy="61" r="5" fill="black"/>
<circle cx="43" cy="59" r="5" fill="url(#paint1_linear_94_84)"/>
<defs>
<linearGradient id="paint0_linear_94_84" x1="51.5" y1="0" x2="51.5" y2="103" gradientUnits="userSpaceOnUse">
<stop stop-color="#1FC8E1"/>
<stop offset="1" stop-color="#80F2CE"/>
</linearGradient>
<linearGradient id="paint1_linear_94_84" x1="43" y1="54" x2="43" y2="64" gradientUnits="userSpaceOnUse">
<stop stop-color="#1FC8E1"/>
<stop offset="1" stop-color="#82F0CF"/>
</linearGradient>
</defs>
</svg>
