<svg width="61" height="61" viewBox="0 0 61 61" fill="none" xmlns="http://www.w3.org/2000/svg">
<rect width="61" height="61" rx="16" fill="#3E6DBE"/>
<g filter="url(#filter0_dii_167_64)">
<path d="M36.1644 27.7524L29.8093 34.1073L34.0246 38.3225C34.5338 38.8317 34.74 39.5729 34.566 40.2754C34.392 40.9779 33.8699 41.5386 33.1802 41.7513L16.6799 46.9075C15.9452 47.1331 15.1459 46.9397 14.6045 46.3983C14.0631 45.8569 13.8633 45.0513 14.0953 44.323L19.2517 27.8233C19.4644 27.1337 20.0251 26.6052 20.7277 26.4376C21.4302 26.27 22.1714 26.4698 22.6806 26.979L26.8895 31.1877L33.2447 24.8327C32.323 23.8917 32.3294 22.3836 33.264 21.449L39.4129 15.3003C41.1468 13.5666 43.957 13.5666 45.6972 15.3003C47.4375 17.0341 47.431 19.8442 45.6972 21.5844L39.5483 27.7331C38.6137 28.6676 37.1055 28.6741 36.1644 27.7524V27.7524Z" fill="url(#paint0_linear_167_64)"/>
</g>
<defs>
<filter id="filter0_dii_167_64" x="10" y="10" width="41" height="45" filterUnits="userSpaceOnUse" color-interpolation-filters="sRGB">
<feFlood flood-opacity="0" result="BackgroundImageFix"/>
<feColorMatrix in="SourceAlpha" type="matrix" values="0 0 0 0 0 0 0 0 0 0 0 0 0 0 0 0 0 0 127 0" result="hardAlpha"/>
<feOffset dy="4"/>
<feGaussianBlur stdDeviation="2"/>
<feComposite in2="hardAlpha" operator="out"/>
<feColorMatrix type="matrix" values="0 0 0 0 0 0 0 0 0 0 0 0 0 0 0 0 0 0 0.25 0"/>
<feBlend mode="normal" in2="BackgroundImageFix" result="effect1_dropShadow_167_64"/>
<feBlend mode="normal" in="SourceGraphic" in2="effect1_dropShadow_167_64" result="shape"/>
<feColorMatrix in="SourceAlpha" type="matrix" values="0 0 0 0 0 0 0 0 0 0 0 0 0 0 0 0 0 0 127 0" result="hardAlpha"/>
<feOffset dx="-4" dy="-4"/>
<feGaussianBlur stdDeviation="2"/>
<feComposite in2="hardAlpha" operator="arithmetic" k2="-1" k3="1"/>
<feColorMatrix type="matrix" values="0 0 0 0 0 0 0 0 0 0 0 0 0 0 0 0 0 0 0.25 0"/>
<feBlend mode="normal" in2="shape" result="effect2_innerShadow_167_64"/>
<feColorMatrix in="SourceAlpha" type="matrix" values="0 0 0 0 0 0 0 0 0 0 0 0 0 0 0 0 0 0 127 0" result="hardAlpha"/>
<feOffset dx="4" dy="4"/>
<feGaussianBlur stdDeviation="2"/>
<feComposite in2="hardAlpha" operator="arithmetic" k2="-1" k3="1"/>
<feColorMatrix type="matrix" values="0 0 0 0 1 0 0 0 0 1 0 0 0 0 1 0 0 0 0.4 0"/>
<feBlend mode="normal" in2="effect2_innerShadow_167_64" result="effect3_innerShadow_167_64"/>
</filter>
<linearGradient id="paint0_linear_167_64" x1="55.5" y1="4.5" x2="7.50192" y2="56.0018" gradientUnits="userSpaceOnUse">
<stop stop-color="#B64D3B"/>
<stop offset="1" stop-color="#FDC500"/>
</linearGradient>
</defs>
</svg>
