<svg width="61" height="61" viewBox="0 0 61 61" fill="none" xmlns="http://www.w3.org/2000/svg">
<rect width="61" height="61" rx="16" fill="#CACDE9"/>
<g filter="url(#filter0_dii_205_19)">
<path d="M39.4067 24.252C41.4658 23.7656 43 21.9082 43 19.6875C43 17.0977 40.9117 15 38.3333 15C35.8017 15 33.7425 17.0215 33.6667 19.541L22.945 23.8535C22.0992 23.0156 20.9442 22.5 19.6667 22.5C17.0883 22.5 15 24.5977 15 27.1875C15 29.7773 17.0883 31.875 19.6667 31.875C20.3783 31.875 21.055 31.7168 21.6558 31.4297L30.1492 38.8945C30.0092 39.3398 29.9333 39.8203 29.9333 40.3125C29.9333 42.9023 32.0217 45 34.6 45C37.1783 45 39.2667 42.9023 39.2667 40.3125C39.2667 38.6895 38.45 37.2598 37.2017 36.4219L39.4067 24.252V24.252ZM24.1175 28.6055C24.2458 28.2012 24.3217 27.7734 24.3333 27.334L35.055 23.0273C35.265 23.2324 35.4867 23.4199 35.7317 23.584L33.5267 35.748C33.2058 35.8242 32.8967 35.9297 32.605 36.0703L24.1175 28.6055Z" fill="url(#paint0_linear_205_19)" fill-opacity="0.79" shape-rendering="crispEdges"/>
</g>
<defs>
<filter id="filter0_dii_205_19" x="11" y="11" width="36" height="42" filterUnits="userSpaceOnUse" color-interpolation-filters="sRGB">
<feFlood flood-opacity="0" result="BackgroundImageFix"/>
<feColorMatrix in="SourceAlpha" type="matrix" values="0 0 0 0 0 0 0 0 0 0 0 0 0 0 0 0 0 0 127 0" result="hardAlpha"/>
<feOffset dy="4"/>
<feGaussianBlur stdDeviation="2"/>
<feComposite in2="hardAlpha" operator="out"/>
<feColorMatrix type="matrix" values="0 0 0 0 0 0 0 0 0 0 0 0 0 0 0 0 0 0 0.25 0"/>
<feBlend mode="normal" in2="BackgroundImageFix" result="effect1_dropShadow_205_19"/>
<feBlend mode="normal" in="SourceGraphic" in2="effect1_dropShadow_205_19" result="shape"/>
<feColorMatrix in="SourceAlpha" type="matrix" values="0 0 0 0 0 0 0 0 0 0 0 0 0 0 0 0 0 0 127 0" result="hardAlpha"/>
<feOffset dx="-4" dy="-4"/>
<feGaussianBlur stdDeviation="4"/>
<feComposite in2="hardAlpha" operator="arithmetic" k2="-1" k3="1"/>
<feColorMatrix type="matrix" values="0 0 0 0 0 0 0 0 0 0 0 0 0 0 0 0 0 0 0.25 0"/>
<feBlend mode="normal" in2="shape" result="effect2_innerShadow_205_19"/>
<feColorMatrix in="SourceAlpha" type="matrix" values="0 0 0 0 0 0 0 0 0 0 0 0 0 0 0 0 0 0 127 0" result="hardAlpha"/>
<feOffset dx="4" dy="4"/>
<feGaussianBlur stdDeviation="4"/>
<feComposite in2="hardAlpha" operator="arithmetic" k2="-1" k3="1"/>
<feColorMatrix type="matrix" values="0 0 0 0 1 0 0 0 0 1 0 0 0 0 1 0 0 0 0.4 0"/>
<feBlend mode="normal" in2="effect2_innerShadow_205_19" result="effect3_innerShadow_205_19"/>
</filter>
<linearGradient id="paint0_linear_205_19" x1="29" y1="15" x2="29" y2="45" gradientUnits="userSpaceOnUse">
<stop stop-color="#EB5A8E"/>
<stop offset="1" stop-color="#8F03E8" stop-opacity="0.83"/>
</linearGradient>
</defs>
</svg>
