<svg width="61" height="61" viewBox="0 0 61 61" fill="none" xmlns="http://www.w3.org/2000/svg">
<rect width="61" height="61" rx="16" fill="#4E092A"/>
<g filter="url(#filter0_dii_167_85)">
<path d="M23.6512 36.375C31.1917 36.375 37.3016 31.1422 37.3016 24.6875C37.3016 18.2328 31.1917 13 23.6512 13C16.1106 13 10.0007 18.2328 10.0007 24.6875C10.0007 27.2508 10.9654 29.6215 12.5996 31.5539C12.3699 32.1781 12.0286 32.7293 11.6676 33.1941C11.3526 33.6059 11.0311 33.9246 10.7948 34.1437C10.6767 34.25 10.5782 34.3363 10.5126 34.3895C10.4798 34.416 10.4535 34.4359 10.4404 34.4426L10.4273 34.4559C10.0663 34.7281 9.90884 35.2062 10.0532 35.6379C10.1976 36.0695 10.5979 36.375 11.0508 36.375C12.4814 36.375 13.9252 36.0031 15.1262 35.5449C15.73 35.3125 16.2944 35.0535 16.7866 34.7879C18.8013 35.7973 21.1442 36.375 23.6512 36.375ZM39.4017 24.6875C39.4017 32.1449 32.8981 37.7629 25.1934 38.4336C26.7882 43.3742 32.0777 47 38.3517 47C40.8586 47 43.2015 46.4223 45.2228 45.4129C45.7151 45.6785 46.2729 45.9375 46.8767 46.1699C48.0776 46.6281 49.5214 47 50.9521 47C51.4049 47 51.8118 46.7012 51.9496 46.2629C52.0875 45.8246 51.9365 45.3465 51.569 45.0742L51.5559 45.0609C51.5428 45.0477 51.5165 45.0344 51.4837 45.0078C51.4181 44.9547 51.3196 44.875 51.2015 44.7621C50.9652 44.543 50.6437 44.2242 50.3286 43.8125C49.9677 43.3477 49.6264 42.7898 49.3967 42.1723C51.0309 40.2465 51.9956 37.8758 51.9956 35.3059C51.9956 29.1434 46.4238 24.0898 39.3558 23.6516C39.382 23.9902 39.3952 24.3355 39.3952 24.6809L39.4017 24.6875Z" fill="url(#paint0_linear_167_85)"/>
</g>
<defs>
<filter id="filter0_dii_167_85" x="6" y="9" width="50" height="46" filterUnits="userSpaceOnUse" color-interpolation-filters="sRGB">
<feFlood flood-opacity="0" result="BackgroundImageFix"/>
<feColorMatrix in="SourceAlpha" type="matrix" values="0 0 0 0 0 0 0 0 0 0 0 0 0 0 0 0 0 0 127 0" result="hardAlpha"/>
<feOffset dy="4"/>
<feGaussianBlur stdDeviation="2"/>
<feComposite in2="hardAlpha" operator="out"/>
<feColorMatrix type="matrix" values="0 0 0 0 0 0 0 0 0 0 0 0 0 0 0 0 0 0 0.25 0"/>
<feBlend mode="normal" in2="BackgroundImageFix" result="effect1_dropShadow_167_85"/>
<feBlend mode="normal" in="SourceGraphic" in2="effect1_dropShadow_167_85" result="shape"/>
<feColorMatrix in="SourceAlpha" type="matrix" values="0 0 0 0 0 0 0 0 0 0 0 0 0 0 0 0 0 0 127 0" result="hardAlpha"/>
<feOffset dx="-4" dy="-4"/>
<feGaussianBlur stdDeviation="2"/>
<feComposite in2="hardAlpha" operator="arithmetic" k2="-1" k3="1"/>
<feColorMatrix type="matrix" values="0 0 0 0 0 0 0 0 0 0 0 0 0 0 0 0 0 0 0.25 0"/>
<feBlend mode="normal" in2="shape" result="effect2_innerShadow_167_85"/>
<feColorMatrix in="SourceAlpha" type="matrix" values="0 0 0 0 0 0 0 0 0 0 0 0 0 0 0 0 0 0 127 0" result="hardAlpha"/>
<feOffset dx="4" dy="4"/>
<feGaussianBlur stdDeviation="2"/>
<feComposite in2="hardAlpha" operator="arithmetic" k2="-1" k3="1"/>
<feColorMatrix type="matrix" values="0 0 0 0 1 0 0 0 0 1 0 0 0 0 1 0 0 0 0.4 0"/>
<feBlend mode="normal" in2="effect2_innerShadow_167_85" result="effect3_innerShadow_167_85"/>
</filter>
<linearGradient id="paint0_linear_167_85" x1="16" y1="6.5" x2="50" y2="60" gradientUnits="userSpaceOnUse">
<stop stop-color="#FDC500"/>
<stop offset="1" stop-color="#FDC500"/>
</linearGradient>
</defs>
</svg>
