<svg width="420" height="247" viewBox="0 0 420 247" fill="none" xmlns="http://www.w3.org/2000/svg">
<g filter="url(#filter0_df_229_213)">
<rect x="4" y="30" width="334" height="209" rx="24" fill="url(#paint0_linear_229_213)" fill-opacity="0.75" shape-rendering="crispEdges"/>
<rect x="4.5" y="30.5" width="333" height="208" rx="23.5" stroke="url(#paint1_linear_229_213)" shape-rendering="crispEdges"/>
</g>
<rect x="39" y="130" width="262" height="17" rx="8.5" fill="white" fill-opacity="0.45"/>
<rect x="39.5" y="130.5" width="261" height="16" rx="8" stroke="white" stroke-opacity="0.45"/>
<rect x="38" y="153" width="142" height="17" rx="8.5" fill="white" fill-opacity="0.45"/>
<rect x="38.5" y="153.5" width="141" height="16" rx="8" stroke="white" stroke-opacity="0.45"/>
<rect x="38" y="175" width="193" height="17" rx="8.5" fill="white" fill-opacity="0.45"/>
<rect x="38.5" y="175.5" width="192" height="16" rx="8" stroke="white" stroke-opacity="0.45"/>
<rect x="39" y="198" width="248" height="17" rx="8.5" fill="white" fill-opacity="0.45"/>
<rect x="39.5" y="198.5" width="247" height="16" rx="8" stroke="white" stroke-opacity="0.45"/>
<path d="M109.114 83V65.5455H111.227V81.125H119.341V83H109.114ZM128.205 83.2386C127.08 83.2386 126.077 83.0455 125.196 82.6591C124.321 82.2727 123.625 81.7358 123.108 81.0483C122.597 80.3551 122.318 79.5511 122.273 78.6364H124.42C124.466 79.1989 124.659 79.6847 125 80.0938C125.341 80.4972 125.787 80.8097 126.338 81.0312C126.889 81.2528 127.5 81.3636 128.17 81.3636C128.92 81.3636 129.585 81.233 130.165 80.9716C130.744 80.7102 131.199 80.3466 131.528 79.8807C131.858 79.4148 132.023 78.875 132.023 78.2614C132.023 77.6193 131.864 77.054 131.545 76.5653C131.227 76.071 130.761 75.6847 130.148 75.4062C129.534 75.1278 128.784 74.9886 127.898 74.9886H126.5V73.1136H127.898C128.591 73.1136 129.199 72.9886 129.722 72.7386C130.25 72.4886 130.662 72.1364 130.957 71.6818C131.259 71.2273 131.409 70.6932 131.409 70.0795C131.409 69.4886 131.278 68.9744 131.017 68.5369C130.756 68.0994 130.386 67.7585 129.909 67.5142C129.438 67.2699 128.881 67.1477 128.239 67.1477C127.636 67.1477 127.068 67.2585 126.534 67.4801C126.006 67.696 125.574 68.0114 125.239 68.4261C124.903 68.8352 124.722 69.3295 124.693 69.9091H122.648C122.682 68.9943 122.957 68.1932 123.474 67.5057C123.991 66.8125 124.668 66.2727 125.503 65.8864C126.344 65.5 127.267 65.3068 128.273 65.3068C129.352 65.3068 130.278 65.5256 131.051 65.9631C131.824 66.3949 132.418 66.9659 132.832 67.6761C133.247 68.3864 133.455 69.1534 133.455 69.9773C133.455 70.9602 133.196 71.7983 132.679 72.4915C132.168 73.1847 131.472 73.6648 130.591 73.9318V74.0682C131.693 74.25 132.554 74.7187 133.173 75.4744C133.793 76.2244 134.102 77.1534 134.102 78.2614C134.102 79.2102 133.844 80.0625 133.327 80.8182C132.815 81.5682 132.116 82.1591 131.23 82.5909C130.344 83.0227 129.335 83.2386 128.205 83.2386ZM150.031 83H144.645V65.5455H150.27C151.963 65.5455 153.412 65.8949 154.616 66.5938C155.821 67.2869 156.744 68.2841 157.386 69.5852C158.028 70.8807 158.349 72.4318 158.349 74.2386C158.349 76.0568 158.026 77.6222 157.378 78.9347C156.73 80.2415 155.787 81.2472 154.548 81.9517C153.31 82.6506 151.804 83 150.031 83ZM146.759 81.125H149.895C151.338 81.125 152.534 80.8466 153.483 80.2898C154.432 79.733 155.139 78.9403 155.605 77.9119C156.071 76.8835 156.304 75.6591 156.304 74.2386C156.304 72.8295 156.074 71.6165 155.614 70.5994C155.153 69.5767 154.466 68.7926 153.551 68.2472C152.636 67.696 151.497 67.4205 150.134 67.4205H146.759V81.125ZM164.009 65.5455V83H161.895V65.5455H164.009ZM180.178 71C179.991 70.4261 179.744 69.9119 179.437 69.4574C179.136 68.9972 178.775 68.6051 178.354 68.2812C177.94 67.9574 177.468 67.7102 176.94 67.5398C176.411 67.3693 175.832 67.2841 175.201 67.2841C174.167 67.2841 173.227 67.5511 172.38 68.0852C171.533 68.6193 170.86 69.4062 170.36 70.446C169.86 71.4858 169.61 72.7614 169.61 74.2727C169.61 75.7841 169.863 77.0597 170.369 78.0994C170.874 79.1392 171.559 79.9261 172.423 80.4602C173.286 80.9943 174.258 81.2614 175.337 81.2614C176.337 81.2614 177.218 81.0483 177.979 80.6222C178.746 80.1903 179.343 79.5824 179.769 78.7983C180.201 78.0085 180.417 77.0795 180.417 76.0114L181.065 76.1477H175.815V74.2727H182.462V76.1477C182.462 77.5852 182.156 78.8352 181.542 79.8977C180.934 80.9602 180.093 81.7841 179.019 82.3693C177.951 82.9489 176.724 83.2386 175.337 83.2386C173.792 83.2386 172.434 82.875 171.263 82.1477C170.099 81.4205 169.19 80.3864 168.536 79.0455C167.888 77.7045 167.565 76.1136 167.565 74.2727C167.565 72.892 167.749 71.6506 168.119 70.5483C168.494 69.4403 169.022 68.4972 169.704 67.7188C170.386 66.9403 171.192 66.3438 172.124 65.929C173.056 65.5142 174.082 65.3068 175.201 65.3068C176.121 65.3068 176.979 65.446 177.775 65.7244C178.576 65.9972 179.289 66.3864 179.914 66.892C180.545 67.392 181.07 67.9915 181.491 68.6903C181.911 69.3835 182.201 70.1534 182.36 71H180.178ZM188.196 65.5455V83H186.082V65.5455H188.196ZM191.479 67.4205V65.5455H204.57V67.4205H199.082V83H196.968V67.4205H191.479ZM206.509 83H204.293L210.702 65.5455H212.884L219.293 83H217.077L211.862 68.3068H211.725L206.509 83ZM207.327 76.1818H216.259V78.0568H207.327V76.1818ZM222.012 83V65.5455H224.126V81.125H232.239V83H222.012ZM242.262 83V65.5455H248.16C249.529 65.5455 250.648 65.7926 251.518 66.2869C252.393 66.7756 253.04 67.4375 253.461 68.2727C253.881 69.108 254.092 70.0398 254.092 71.0682C254.092 72.0966 253.881 73.0312 253.461 73.8722C253.046 74.7131 252.404 75.3835 251.535 75.8835C250.665 76.3778 249.552 76.625 248.194 76.625H243.967V74.75H248.126C249.063 74.75 249.816 74.5881 250.384 74.2642C250.952 73.9403 251.364 73.5028 251.62 72.9517C251.881 72.3949 252.012 71.767 252.012 71.0682C252.012 70.3693 251.881 69.7443 251.62 69.1932C251.364 68.642 250.95 68.2102 250.376 67.8977C249.802 67.5795 249.04 67.4205 248.092 67.4205H244.376V83H242.262ZM256.431 83H254.215L260.624 65.5455H262.806L269.215 83H266.999L261.783 68.3068H261.647L256.431 83ZM257.249 76.1818H266.181V78.0568H257.249V76.1818ZM281.479 69.9091C281.377 69.0455 280.962 68.375 280.235 67.8977C279.508 67.4205 278.616 67.1818 277.559 67.1818C276.786 67.1818 276.11 67.3068 275.531 67.5568C274.957 67.8068 274.508 68.1506 274.184 68.5881C273.866 69.0256 273.707 69.5227 273.707 70.0795C273.707 70.5455 273.817 70.946 274.039 71.2812C274.266 71.6108 274.556 71.8864 274.908 72.108C275.261 72.3239 275.63 72.5028 276.016 72.6449C276.403 72.7812 276.758 72.892 277.082 72.9773L278.854 73.4545C279.309 73.5739 279.815 73.7386 280.371 73.9489C280.934 74.1591 281.471 74.446 281.982 74.8097C282.499 75.1676 282.925 75.6278 283.261 76.1903C283.596 76.7528 283.763 77.4432 283.763 78.2614C283.763 79.2045 283.516 80.0568 283.022 80.8182C282.533 81.5795 281.817 82.1847 280.874 82.6335C279.937 83.0824 278.798 83.3068 277.457 83.3068C276.207 83.3068 275.124 83.1051 274.21 82.7017C273.3 82.2983 272.585 81.7358 272.062 81.0142C271.545 80.2926 271.252 79.4545 271.184 78.5H273.366C273.423 79.1591 273.644 79.7045 274.031 80.1364C274.423 80.5625 274.917 80.8807 275.513 81.0909C276.116 81.2955 276.763 81.3977 277.457 81.3977C278.263 81.3977 278.988 81.267 279.63 81.0057C280.272 80.7386 280.781 80.3693 281.156 79.8977C281.531 79.4205 281.718 78.8636 281.718 78.2273C281.718 77.6477 281.556 77.1761 281.232 76.8125C280.908 76.4489 280.482 76.1534 279.954 75.9261C279.425 75.6989 278.854 75.5 278.241 75.3295L276.093 74.7159C274.729 74.3239 273.65 73.7642 272.854 73.0369C272.059 72.3097 271.661 71.358 271.661 70.1818C271.661 69.2045 271.925 68.3523 272.454 67.625C272.988 66.892 273.704 66.3239 274.602 65.9205C275.505 65.5114 276.513 65.3068 277.627 65.3068C278.752 65.3068 279.752 65.5085 280.627 65.9119C281.502 66.3097 282.195 66.8551 282.707 67.5483C283.224 68.2415 283.496 69.0284 283.525 69.9091H281.479ZM296.784 69.9091C296.682 69.0455 296.267 68.375 295.54 67.8977C294.813 67.4205 293.92 67.1818 292.864 67.1818C292.091 67.1818 291.415 67.3068 290.835 67.5568C290.261 67.8068 289.813 68.1506 289.489 68.5881C289.17 69.0256 289.011 69.5227 289.011 70.0795C289.011 70.5455 289.122 70.946 289.344 71.2812C289.571 71.6108 289.861 71.8864 290.213 72.108C290.565 72.3239 290.935 72.5028 291.321 72.6449C291.707 72.7812 292.062 72.892 292.386 72.9773L294.159 73.4545C294.614 73.5739 295.119 73.7386 295.676 73.9489C296.239 74.1591 296.776 74.446 297.287 74.8097C297.804 75.1676 298.23 75.6278 298.565 76.1903C298.901 76.7528 299.068 77.4432 299.068 78.2614C299.068 79.2045 298.821 80.0568 298.327 80.8182C297.838 81.5795 297.122 82.1847 296.179 82.6335C295.241 83.0824 294.102 83.3068 292.761 83.3068C291.511 83.3068 290.429 83.1051 289.514 82.7017C288.605 82.2983 287.889 81.7358 287.366 81.0142C286.849 80.2926 286.557 79.4545 286.489 78.5H288.67C288.727 79.1591 288.949 79.7045 289.335 80.1364C289.727 80.5625 290.222 80.8807 290.818 81.0909C291.42 81.2955 292.068 81.3977 292.761 81.3977C293.568 81.3977 294.293 81.267 294.935 81.0057C295.577 80.7386 296.085 80.3693 296.46 79.8977C296.835 79.4205 297.023 78.8636 297.023 78.2273C297.023 77.6477 296.861 77.1761 296.537 76.8125C296.213 76.4489 295.787 76.1534 295.259 75.9261C294.73 75.6989 294.159 75.5 293.545 75.3295L291.398 74.7159C290.034 74.3239 288.955 73.7642 288.159 73.0369C287.364 72.3097 286.966 71.358 286.966 70.1818C286.966 69.2045 287.23 68.3523 287.759 67.625C288.293 66.892 289.009 66.3239 289.906 65.9205C290.81 65.5114 291.818 65.3068 292.932 65.3068C294.057 65.3068 295.057 65.5085 295.932 65.9119C296.807 66.3097 297.5 66.8551 298.011 67.5483C298.528 68.2415 298.801 69.0284 298.83 69.9091H296.784Z" fill="#333333"/>
<rect x="33" y="54" width="61" height="61" rx="16" fill="#606AC8"/>
<g filter="url(#filter1_d_229_213)">
<path d="M64.9219 75.1205C65.6938 74.6362 66.2083 73.7574 66.2083 72.7679C66.2083 71.2386 64.9964 70 63.5 70C62.0036 70 60.7917 71.2386 60.7917 72.7679C60.7917 73.7643 61.3063 74.6362 62.0781 75.1205L58.1984 83.0504C57.5823 84.3098 55.9844 84.6696 54.9078 83.7908L48.875 78.8571C49.2135 78.3935 49.4167 77.8192 49.4167 77.1964C49.4167 75.6672 48.2047 74.4286 46.7083 74.4286C45.212 74.4286 44 75.6672 44 77.1964C44 78.7257 45.212 79.9643 46.7083 79.9643C46.7219 79.9643 46.7422 79.9643 46.7557 79.9643L49.85 97.3603C50.2224 99.4638 52.0167 101 54.1156 101H72.8844C74.9766 101 76.7708 99.4708 77.15 97.3603L80.2443 79.9643C80.2578 79.9643 80.2781 79.9643 80.2917 79.9643C81.788 79.9643 83 78.7257 83 77.1964C83 75.6672 81.788 74.4286 80.2917 74.4286C78.7953 74.4286 77.5833 75.6672 77.5833 77.1964C77.5833 77.8192 77.7865 78.3935 78.125 78.8571L72.0922 83.7908C71.0156 84.6696 69.4177 84.3098 68.8016 83.0504L64.9219 75.1205Z" fill="url(#paint2_radial_229_213)"/>
</g>
<path d="M108.057 105V96.2727H111.108C111.716 96.2727 112.217 96.3778 112.612 96.5881C113.007 96.7955 113.301 97.0753 113.494 97.4276C113.688 97.777 113.784 98.1648 113.784 98.5909C113.784 98.9659 113.717 99.2756 113.584 99.5199C113.453 99.7642 113.28 99.9574 113.064 100.099C112.851 100.241 112.619 100.347 112.369 100.415V100.5C112.636 100.517 112.905 100.611 113.175 100.781C113.445 100.952 113.67 101.196 113.852 101.514C114.034 101.832 114.125 102.222 114.125 102.682C114.125 103.119 114.026 103.513 113.827 103.862C113.628 104.212 113.314 104.489 112.885 104.693C112.456 104.898 111.898 105 111.21 105H108.057ZM109.114 104.062H111.21C111.901 104.062 112.391 103.929 112.68 103.662C112.973 103.392 113.119 103.065 113.119 102.682C113.119 102.386 113.044 102.114 112.893 101.864C112.743 101.611 112.528 101.409 112.25 101.259C111.972 101.105 111.642 101.028 111.261 101.028H109.114V104.062ZM109.114 100.108H111.074C111.392 100.108 111.679 100.045 111.935 99.9205C112.193 99.7955 112.398 99.6193 112.548 99.392C112.702 99.1648 112.778 98.8977 112.778 98.5909C112.778 98.2074 112.645 97.8821 112.378 97.6151C112.111 97.3452 111.688 97.2102 111.108 97.2102H109.114V100.108ZM115.112 96.2727H116.322L118.742 100.347H118.844L121.265 96.2727H122.475L119.322 101.403V105H118.265V101.403L115.112 96.2727ZM127.217 96.2727H128.478L131.444 103.517H131.547L134.512 96.2727H135.774V105H134.785V98.3693H134.7L131.973 105H131.018L128.291 98.3693H128.206V105H127.217V96.2727ZM137.143 96.2727H138.353L140.773 100.347H140.876L143.296 96.2727H144.506L141.353 101.403V105H140.296V101.403L137.143 96.2727ZM149.248 105V96.2727H152.299C152.907 96.2727 153.409 96.3778 153.804 96.5881C154.199 96.7955 154.493 97.0753 154.686 97.4276C154.879 97.777 154.975 98.1648 154.975 98.5909C154.975 98.9659 154.909 99.2756 154.775 99.5199C154.645 99.7642 154.471 99.9574 154.255 100.099C154.042 100.241 153.811 100.347 153.561 100.415V100.5C153.828 100.517 154.096 100.611 154.366 100.781C154.636 100.952 154.862 101.196 155.044 101.514C155.225 101.832 155.316 102.222 155.316 102.682C155.316 103.119 155.217 103.513 155.018 103.862C154.819 104.212 154.505 104.489 154.076 104.693C153.647 104.898 153.089 105 152.402 105H149.248ZM150.305 104.062H152.402C153.092 104.062 153.582 103.929 153.872 103.662C154.164 103.392 154.311 103.065 154.311 102.682C154.311 102.386 154.235 102.114 154.085 101.864C153.934 101.611 153.72 101.409 153.441 101.259C153.163 101.105 152.833 101.028 152.453 101.028H150.305V104.062ZM150.305 100.108H152.265C152.583 100.108 152.87 100.045 153.126 99.9205C153.385 99.7955 153.589 99.6193 153.74 99.392C153.893 99.1648 153.97 98.8977 153.97 98.5909C153.97 98.2074 153.836 97.8821 153.569 97.6151C153.302 97.3452 152.879 97.2102 152.299 97.2102H150.305V100.108ZM157.053 105V96.2727H160.002C160.684 96.2727 161.243 96.3892 161.681 96.6222C162.118 96.8523 162.442 97.169 162.652 97.5724C162.863 97.9759 162.968 98.4347 162.968 98.9489C162.968 99.4631 162.863 99.919 162.652 100.317C162.442 100.714 162.12 101.027 161.685 101.254C161.25 101.479 160.695 101.591 160.019 101.591H157.632V100.636H159.985C160.451 100.636 160.826 100.568 161.11 100.432C161.397 100.295 161.604 100.102 161.732 99.8523C161.863 99.5994 161.928 99.2983 161.928 98.9489C161.928 98.5994 161.863 98.294 161.732 98.0327C161.601 97.7713 161.392 97.5696 161.105 97.4276C160.819 97.2827 160.439 97.2102 159.968 97.2102H158.11V105H157.053ZM161.161 101.08L163.309 105H162.081L159.968 101.08H161.161ZM165.087 105H163.979L167.183 96.2727H168.274L171.479 105H170.371L167.763 97.6534H167.695L165.087 105ZM165.496 101.591H169.962V102.528H165.496V101.591ZM179.759 96.2727V105H178.736L173.98 98.1477H173.895V105H172.838V96.2727H173.861L178.634 103.142H178.719V96.2727H179.759ZM184.566 105H181.873V96.2727H184.686C185.532 96.2727 186.257 96.4474 186.859 96.7969C187.461 97.1435 187.923 97.642 188.244 98.2926C188.565 98.9403 188.725 99.7159 188.725 100.619C188.725 101.528 188.564 102.311 188.24 102.967C187.916 103.621 187.444 104.124 186.825 104.476C186.206 104.825 185.453 105 184.566 105ZM182.93 104.062H184.498C185.22 104.062 185.818 103.923 186.292 103.645C186.767 103.366 187.12 102.97 187.353 102.456C187.586 101.942 187.703 101.33 187.703 100.619C187.703 99.9148 187.588 99.3082 187.358 98.7997C187.127 98.2884 186.784 97.8963 186.326 97.6236C185.869 97.348 185.299 97.2102 184.618 97.2102H182.93V104.062Z" fill="#333333"/>
<rect x="103.5" y="58.5" width="205" height="29" stroke="#606AC8" stroke-width="3"/>
<g filter="url(#filter2_dii_229_213)">
<path d="M399.679 39.9591L397.625 42.0139L393.515 46.1235L356.237 83.4005C355.037 84.6006 353.545 85.4917 351.909 85.9644L328.596 92.8198C327.069 93.2744 325.414 92.8561 324.287 91.7105C323.159 90.565 322.723 88.9466 323.177 87.401L330.033 64.1074C330.506 62.4708 331.397 60.9797 332.597 59.7796L369.875 22.5026L373.985 18.393L376.04 16.3382L382.204 22.5026L393.497 33.7948L399.661 39.9591H399.679ZM340.453 64.2528L338.762 65.944C338.598 66.1076 338.471 66.3258 338.398 66.5622L333.797 82.2004L349.436 77.5998C349.672 77.5271 349.89 77.3998 350.054 77.2362L351.745 75.5451H343.362C341.762 75.5451 340.453 74.2358 340.453 72.6356V64.2528ZM405.426 3.40948L412.59 10.5739C417.137 15.1199 417.137 22.4844 412.59 27.0304L409.954 29.667L405.844 33.7766L403.789 35.8314L397.625 29.667L386.332 18.3748L380.149 12.2105L382.204 10.1557L386.314 6.04615L388.951 3.40948C393.497 -1.13649 400.861 -1.13649 405.408 3.40948H405.426Z" fill="#606AC8"/>
</g>
<defs>
<filter id="filter0_df_229_213" x="0" y="26" width="342" height="221" filterUnits="userSpaceOnUse" color-interpolation-filters="sRGB">
<feFlood flood-opacity="0" result="BackgroundImageFix"/>
<feColorMatrix in="SourceAlpha" type="matrix" values="0 0 0 0 0 0 0 0 0 0 0 0 0 0 0 0 0 0 127 0" result="hardAlpha"/>
<feOffset dy="4"/>
<feGaussianBlur stdDeviation="2"/>
<feComposite in2="hardAlpha" operator="out"/>
<feColorMatrix type="matrix" values="0 0 0 0 0 0 0 0 0 0 0 0 0 0 0 0 0 0 0.25 0"/>
<feBlend mode="normal" in2="BackgroundImageFix" result="effect1_dropShadow_229_213"/>
<feBlend mode="normal" in="SourceGraphic" in2="effect1_dropShadow_229_213" result="shape"/>
<feGaussianBlur stdDeviation="2" result="effect2_foregroundBlur_229_213"/>
</filter>
<filter id="filter1_d_229_213" x="40" y="70" width="47" height="39" filterUnits="userSpaceOnUse" color-interpolation-filters="sRGB">
<feFlood flood-opacity="0" result="BackgroundImageFix"/>
<feColorMatrix in="SourceAlpha" type="matrix" values="0 0 0 0 0 0 0 0 0 0 0 0 0 0 0 0 0 0 127 0" result="hardAlpha"/>
<feOffset dy="4"/>
<feGaussianBlur stdDeviation="2"/>
<feComposite in2="hardAlpha" operator="out"/>
<feColorMatrix type="matrix" values="0 0 0 0 0 0 0 0 0 0 0 0 0 0 0 0 0 0 0.25 0"/>
<feBlend mode="normal" in2="BackgroundImageFix" result="effect1_dropShadow_229_213"/>
<feBlend mode="normal" in="SourceGraphic" in2="effect1_dropShadow_229_213" result="shape"/>
</filter>
<filter id="filter2_dii_229_213" x="319" y="-4" width="101" height="105" filterUnits="userSpaceOnUse" color-interpolation-filters="sRGB">
<feFlood flood-opacity="0" result="BackgroundImageFix"/>
<feColorMatrix in="SourceAlpha" type="matrix" values="0 0 0 0 0 0 0 0 0 0 0 0 0 0 0 0 0 0 127 0" result="hardAlpha"/>
<feOffset dy="4"/>
<feGaussianBlur stdDeviation="2"/>
<feComposite in2="hardAlpha" operator="out"/>
<feColorMatrix type="matrix" values="0 0 0 0 0 0 0 0 0 0 0 0 0 0 0 0 0 0 0.25 0"/>
<feBlend mode="normal" in2="BackgroundImageFix" result="effect1_dropShadow_229_213"/>
<feBlend mode="normal" in="SourceGraphic" in2="effect1_dropShadow_229_213" result="shape"/>
<feColorMatrix in="SourceAlpha" type="matrix" values="0 0 0 0 0 0 0 0 0 0 0 0 0 0 0 0 0 0 127 0" result="hardAlpha"/>
<feOffset dx="-4" dy="-4"/>
<feGaussianBlur stdDeviation="2"/>
<feComposite in2="hardAlpha" operator="arithmetic" k2="-1" k3="1"/>
<feColorMatrix type="matrix" values="0 0 0 0 0 0 0 0 0 0 0 0 0 0 0 0 0 0 0.25 0"/>
<feBlend mode="normal" in2="shape" result="effect2_innerShadow_229_213"/>
<feColorMatrix in="SourceAlpha" type="matrix" values="0 0 0 0 0 0 0 0 0 0 0 0 0 0 0 0 0 0 127 0" result="hardAlpha"/>
<feOffset dx="4" dy="4"/>
<feGaussianBlur stdDeviation="2"/>
<feComposite in2="hardAlpha" operator="arithmetic" k2="-1" k3="1"/>
<feColorMatrix type="matrix" values="0 0 0 0 1 0 0 0 0 1 0 0 0 0 1 0 0 0 0.4 0"/>
<feBlend mode="normal" in2="effect2_innerShadow_229_213" result="effect3_innerShadow_229_213"/>
</filter>
<linearGradient id="paint0_linear_229_213" x1="24.1166" y1="37.4264" x2="283.807" y2="286.232" gradientUnits="userSpaceOnUse">
<stop stop-color="white"/>
<stop offset="1" stop-color="#7691BE"/>
</linearGradient>
<linearGradient id="paint1_linear_229_213" x1="171" y1="30" x2="171" y2="239" gradientUnits="userSpaceOnUse">
<stop stop-color="#9EA4D7"/>
<stop offset="1" stop-color="white"/>
</linearGradient>
<radialGradient id="paint2_radial_229_213" cx="0" cy="0" r="1" gradientUnits="userSpaceOnUse" gradientTransform="translate(54.5 72) rotate(52.5946) scale(42.8019 53.8475)">
<stop stop-color="#FDC500"/>
<stop offset="1" stop-color="#B64D3B"/>
</radialGradient>
</defs>
</svg>
