<svg width="407" height="236" viewBox="0 0 407 236" fill="none" xmlns="http://www.w3.org/2000/svg">
<g filter="url(#filter0_df_160_15)">
<rect x="4" y="19" width="334" height="209" rx="24" fill="url(#paint0_linear_160_15)" fill-opacity="0.75" shape-rendering="crispEdges"/>
<rect x="4.5" y="19.5" width="333" height="208" rx="23.5" stroke="url(#paint1_linear_160_15)" shape-rendering="crispEdges"/>
</g>
<rect x="39.5" y="119.5" width="261" height="16" rx="8" fill="black" stroke="black"/>
<rect x="38.5" y="142.5" width="141" height="16" rx="8" fill="black" stroke="black"/>
<rect x="38.5" y="164.5" width="192" height="16" rx="8" fill="black" stroke="black"/>
<rect x="39.5" y="187.5" width="247" height="16" rx="8" fill="black" stroke="black"/>
<path d="M109.114 72V54.5455H111.227V70.125H119.341V72H109.114ZM128.205 72.2386C127.08 72.2386 126.077 72.0455 125.196 71.6591C124.321 71.2727 123.625 70.7358 123.108 70.0483C122.597 69.3551 122.318 68.5511 122.273 67.6364H124.42C124.466 68.1989 124.659 68.6847 125 69.0938C125.341 69.4972 125.787 69.8097 126.338 70.0312C126.889 70.2528 127.5 70.3636 128.17 70.3636C128.92 70.3636 129.585 70.233 130.165 69.9716C130.744 69.7102 131.199 69.3466 131.528 68.8807C131.858 68.4148 132.023 67.875 132.023 67.2614C132.023 66.6193 131.864 66.054 131.545 65.5653C131.227 65.071 130.761 64.6847 130.148 64.4062C129.534 64.1278 128.784 63.9886 127.898 63.9886H126.5V62.1136H127.898C128.591 62.1136 129.199 61.9886 129.722 61.7386C130.25 61.4886 130.662 61.1364 130.957 60.6818C131.259 60.2273 131.409 59.6932 131.409 59.0795C131.409 58.4886 131.278 57.9744 131.017 57.5369C130.756 57.0994 130.386 56.7585 129.909 56.5142C129.438 56.2699 128.881 56.1477 128.239 56.1477C127.636 56.1477 127.068 56.2585 126.534 56.4801C126.006 56.696 125.574 57.0114 125.239 57.4261C124.903 57.8352 124.722 58.3295 124.693 58.9091H122.648C122.682 57.9943 122.957 57.1932 123.474 56.5057C123.991 55.8125 124.668 55.2727 125.503 54.8864C126.344 54.5 127.267 54.3068 128.273 54.3068C129.352 54.3068 130.278 54.5256 131.051 54.9631C131.824 55.3949 132.418 55.9659 132.832 56.6761C133.247 57.3864 133.455 58.1534 133.455 58.9773C133.455 59.9602 133.196 60.7983 132.679 61.4915C132.168 62.1847 131.472 62.6648 130.591 62.9318V63.0682C131.693 63.25 132.554 63.7187 133.173 64.4744C133.793 65.2244 134.102 66.1534 134.102 67.2614C134.102 68.2102 133.844 69.0625 133.327 69.8182C132.815 70.5682 132.116 71.1591 131.23 71.5909C130.344 72.0227 129.335 72.2386 128.205 72.2386ZM150.031 72H144.645V54.5455H150.27C151.963 54.5455 153.412 54.8949 154.616 55.5938C155.821 56.2869 156.744 57.2841 157.386 58.5852C158.028 59.8807 158.349 61.4318 158.349 63.2386C158.349 65.0568 158.026 66.6222 157.378 67.9347C156.73 69.2415 155.787 70.2472 154.548 70.9517C153.31 71.6506 151.804 72 150.031 72ZM146.759 70.125H149.895C151.338 70.125 152.534 69.8466 153.483 69.2898C154.432 68.733 155.139 67.9403 155.605 66.9119C156.071 65.8835 156.304 64.6591 156.304 63.2386C156.304 61.8295 156.074 60.6165 155.614 59.5994C155.153 58.5767 154.466 57.7926 153.551 57.2472C152.636 56.696 151.497 56.4205 150.134 56.4205H146.759V70.125ZM164.009 54.5455V72H161.895V54.5455H164.009ZM180.178 60C179.991 59.4261 179.744 58.9119 179.437 58.4574C179.136 57.9972 178.775 57.6051 178.354 57.2812C177.94 56.9574 177.468 56.7102 176.94 56.5398C176.411 56.3693 175.832 56.2841 175.201 56.2841C174.167 56.2841 173.227 56.5511 172.38 57.0852C171.533 57.6193 170.86 58.4062 170.36 59.446C169.86 60.4858 169.61 61.7614 169.61 63.2727C169.61 64.7841 169.863 66.0597 170.369 67.0994C170.874 68.1392 171.559 68.9261 172.423 69.4602C173.286 69.9943 174.258 70.2614 175.337 70.2614C176.337 70.2614 177.218 70.0483 177.979 69.6222C178.746 69.1903 179.343 68.5824 179.769 67.7983C180.201 67.0085 180.417 66.0795 180.417 65.0114L181.065 65.1477H175.815V63.2727H182.462V65.1477C182.462 66.5852 182.156 67.8352 181.542 68.8977C180.934 69.9602 180.093 70.7841 179.019 71.3693C177.951 71.9489 176.724 72.2386 175.337 72.2386C173.792 72.2386 172.434 71.875 171.263 71.1477C170.099 70.4205 169.19 69.3864 168.536 68.0455C167.888 66.7045 167.565 65.1136 167.565 63.2727C167.565 61.892 167.749 60.6506 168.119 59.5483C168.494 58.4403 169.022 57.4972 169.704 56.7188C170.386 55.9403 171.192 55.3438 172.124 54.929C173.056 54.5142 174.082 54.3068 175.201 54.3068C176.121 54.3068 176.979 54.446 177.775 54.7244C178.576 54.9972 179.289 55.3864 179.914 55.892C180.545 56.392 181.07 56.9915 181.491 57.6903C181.911 58.3835 182.201 59.1534 182.36 60H180.178ZM188.196 54.5455V72H186.082V54.5455H188.196ZM191.479 56.4205V54.5455H204.57V56.4205H199.082V72H196.968V56.4205H191.479ZM206.509 72H204.293L210.702 54.5455H212.884L219.293 72H217.077L211.862 57.3068H211.725L206.509 72ZM207.327 65.1818H216.259V67.0568H207.327V65.1818ZM222.012 72V54.5455H224.126V70.125H232.239V72H222.012ZM242.262 72V54.5455H248.16C249.529 54.5455 250.648 54.7926 251.518 55.2869C252.393 55.7756 253.04 56.4375 253.461 57.2727C253.881 58.108 254.092 59.0398 254.092 60.0682C254.092 61.0966 253.881 62.0312 253.461 62.8722C253.046 63.7131 252.404 64.3835 251.535 64.8835C250.665 65.3778 249.552 65.625 248.194 65.625H243.967V63.75H248.126C249.063 63.75 249.816 63.5881 250.384 63.2642C250.952 62.9403 251.364 62.5028 251.62 61.9517C251.881 61.3949 252.012 60.767 252.012 60.0682C252.012 59.3693 251.881 58.7443 251.62 58.1932C251.364 57.642 250.95 57.2102 250.376 56.8977C249.802 56.5795 249.04 56.4205 248.092 56.4205H244.376V72H242.262ZM256.431 72H254.215L260.624 54.5455H262.806L269.215 72H266.999L261.783 57.3068H261.647L256.431 72ZM257.249 65.1818H266.181V67.0568H257.249V65.1818ZM281.479 58.9091C281.377 58.0455 280.962 57.375 280.235 56.8977C279.508 56.4205 278.616 56.1818 277.559 56.1818C276.786 56.1818 276.11 56.3068 275.531 56.5568C274.957 56.8068 274.508 57.1506 274.184 57.5881C273.866 58.0256 273.707 58.5227 273.707 59.0795C273.707 59.5455 273.817 59.946 274.039 60.2812C274.266 60.6108 274.556 60.8864 274.908 61.108C275.261 61.3239 275.63 61.5028 276.016 61.6449C276.403 61.7812 276.758 61.892 277.082 61.9773L278.854 62.4545C279.309 62.5739 279.815 62.7386 280.371 62.9489C280.934 63.1591 281.471 63.446 281.982 63.8097C282.499 64.1676 282.925 64.6278 283.261 65.1903C283.596 65.7528 283.763 66.4432 283.763 67.2614C283.763 68.2045 283.516 69.0568 283.022 69.8182C282.533 70.5795 281.817 71.1847 280.874 71.6335C279.937 72.0824 278.798 72.3068 277.457 72.3068C276.207 72.3068 275.124 72.1051 274.21 71.7017C273.3 71.2983 272.585 70.7358 272.062 70.0142C271.545 69.2926 271.252 68.4545 271.184 67.5H273.366C273.423 68.1591 273.644 68.7045 274.031 69.1364C274.423 69.5625 274.917 69.8807 275.513 70.0909C276.116 70.2955 276.763 70.3977 277.457 70.3977C278.263 70.3977 278.988 70.267 279.63 70.0057C280.272 69.7386 280.781 69.3693 281.156 68.8977C281.531 68.4205 281.718 67.8636 281.718 67.2273C281.718 66.6477 281.556 66.1761 281.232 65.8125C280.908 65.4489 280.482 65.1534 279.954 64.9261C279.425 64.6989 278.854 64.5 278.241 64.3295L276.093 63.7159C274.729 63.3239 273.65 62.7642 272.854 62.0369C272.059 61.3097 271.661 60.358 271.661 59.1818C271.661 58.2045 271.925 57.3523 272.454 56.625C272.988 55.892 273.704 55.3239 274.602 54.9205C275.505 54.5114 276.513 54.3068 277.627 54.3068C278.752 54.3068 279.752 54.5085 280.627 54.9119C281.502 55.3097 282.195 55.8551 282.707 56.5483C283.224 57.2415 283.496 58.0284 283.525 58.9091H281.479ZM296.784 58.9091C296.682 58.0455 296.267 57.375 295.54 56.8977C294.813 56.4205 293.92 56.1818 292.864 56.1818C292.091 56.1818 291.415 56.3068 290.835 56.5568C290.261 56.8068 289.813 57.1506 289.489 57.5881C289.17 58.0256 289.011 58.5227 289.011 59.0795C289.011 59.5455 289.122 59.946 289.344 60.2812C289.571 60.6108 289.861 60.8864 290.213 61.108C290.565 61.3239 290.935 61.5028 291.321 61.6449C291.707 61.7812 292.062 61.892 292.386 61.9773L294.159 62.4545C294.614 62.5739 295.119 62.7386 295.676 62.9489C296.239 63.1591 296.776 63.446 297.287 63.8097C297.804 64.1676 298.23 64.6278 298.565 65.1903C298.901 65.7528 299.068 66.4432 299.068 67.2614C299.068 68.2045 298.821 69.0568 298.327 69.8182C297.838 70.5795 297.122 71.1847 296.179 71.6335C295.241 72.0824 294.102 72.3068 292.761 72.3068C291.511 72.3068 290.429 72.1051 289.514 71.7017C288.605 71.2983 287.889 70.7358 287.366 70.0142C286.849 69.2926 286.557 68.4545 286.489 67.5H288.67C288.727 68.1591 288.949 68.7045 289.335 69.1364C289.727 69.5625 290.222 69.8807 290.818 70.0909C291.42 70.2955 292.068 70.3977 292.761 70.3977C293.568 70.3977 294.293 70.267 294.935 70.0057C295.577 69.7386 296.085 69.3693 296.46 68.8977C296.835 68.4205 297.023 67.8636 297.023 67.2273C297.023 66.6477 296.861 66.1761 296.537 65.8125C296.213 65.4489 295.787 65.1534 295.259 64.9261C294.73 64.6989 294.159 64.5 293.545 64.3295L291.398 63.7159C290.034 63.3239 288.955 62.7642 288.159 62.0369C287.364 61.3097 286.966 60.358 286.966 59.1818C286.966 58.2045 287.23 57.3523 287.759 56.625C288.293 55.892 289.009 55.3239 289.906 54.9205C290.81 54.5114 291.818 54.3068 292.932 54.3068C294.057 54.3068 295.057 54.5085 295.932 54.9119C296.807 55.3097 297.5 55.8551 298.011 56.5483C298.528 57.2415 298.801 58.0284 298.83 58.9091H296.784Z" fill="white"/>
<rect x="33" y="43" width="61" height="61" rx="16" fill="#3E6DBE"/>
<g filter="url(#filter1_d_160_15)">
<path d="M64.9219 64.1205C65.6938 63.6362 66.2083 62.7574 66.2083 61.7679C66.2083 60.2386 64.9964 59 63.5 59C62.0036 59 60.7917 60.2386 60.7917 61.7679C60.7917 62.7643 61.3063 63.6362 62.0781 64.1205L58.1984 72.0504C57.5823 73.3098 55.9844 73.6696 54.9078 72.7908L48.875 67.8571C49.2135 67.3935 49.4167 66.8192 49.4167 66.1964C49.4167 64.6672 48.2047 63.4286 46.7083 63.4286C45.212 63.4286 44 64.6672 44 66.1964C44 67.7257 45.212 68.9643 46.7083 68.9643C46.7219 68.9643 46.7422 68.9643 46.7557 68.9643L49.85 86.3603C50.2224 88.4638 52.0167 90 54.1156 90H72.8844C74.9766 90 76.7708 88.4708 77.15 86.3603L80.2443 68.9643C80.2578 68.9643 80.2781 68.9643 80.2917 68.9643C81.788 68.9643 83 67.7257 83 66.1964C83 64.6672 81.788 63.4286 80.2917 63.4286C78.7953 63.4286 77.5833 64.6672 77.5833 66.1964C77.5833 66.8192 77.7865 67.3935 78.125 67.8571L72.0922 72.7908C71.0156 73.6696 69.4177 73.3098 68.8016 72.0504L64.9219 64.1205Z" fill="url(#paint2_radial_160_15)"/>
</g>
<path d="M108.057 94V85.2727H111.108C111.716 85.2727 112.217 85.3778 112.612 85.5881C113.007 85.7955 113.301 86.0753 113.494 86.4276C113.688 86.777 113.784 87.1648 113.784 87.5909C113.784 87.9659 113.717 88.2756 113.584 88.5199C113.453 88.7642 113.28 88.9574 113.064 89.0994C112.851 89.2415 112.619 89.3466 112.369 89.4148V89.5C112.636 89.517 112.905 89.6108 113.175 89.7812C113.445 89.9517 113.67 90.196 113.852 90.5142C114.034 90.8324 114.125 91.2216 114.125 91.6818C114.125 92.1193 114.026 92.5128 113.827 92.8622C113.628 93.2116 113.314 93.4886 112.885 93.6932C112.456 93.8977 111.898 94 111.21 94H108.057ZM109.114 93.0625H111.21C111.901 93.0625 112.391 92.929 112.68 92.6619C112.973 92.392 113.119 92.0653 113.119 91.6818C113.119 91.3864 113.044 91.1136 112.893 90.8636C112.743 90.6108 112.528 90.4091 112.25 90.2585C111.972 90.1051 111.642 90.0284 111.261 90.0284H109.114V93.0625ZM109.114 89.108H111.074C111.392 89.108 111.679 89.0455 111.935 88.9205C112.193 88.7955 112.398 88.6193 112.548 88.392C112.702 88.1648 112.778 87.8977 112.778 87.5909C112.778 87.2074 112.645 86.8821 112.378 86.6151C112.111 86.3452 111.688 86.2102 111.108 86.2102H109.114V89.108ZM115.112 85.2727H116.322L118.742 89.3466H118.844L121.265 85.2727H122.475L119.322 90.4034V94H118.265V90.4034L115.112 85.2727ZM127.217 85.2727H128.478L131.444 92.517H131.547L134.512 85.2727H135.774V94H134.785V87.3693H134.7L131.973 94H131.018L128.291 87.3693H128.206V94H127.217V85.2727ZM137.143 85.2727H138.353L140.773 89.3466H140.876L143.296 85.2727H144.506L141.353 90.4034V94H140.296V90.4034L137.143 85.2727ZM149.248 94V85.2727H152.299C152.907 85.2727 153.409 85.3778 153.804 85.5881C154.199 85.7955 154.493 86.0753 154.686 86.4276C154.879 86.777 154.975 87.1648 154.975 87.5909C154.975 87.9659 154.909 88.2756 154.775 88.5199C154.645 88.7642 154.471 88.9574 154.255 89.0994C154.042 89.2415 153.811 89.3466 153.561 89.4148V89.5C153.828 89.517 154.096 89.6108 154.366 89.7812C154.636 89.9517 154.862 90.196 155.044 90.5142C155.225 90.8324 155.316 91.2216 155.316 91.6818C155.316 92.1193 155.217 92.5128 155.018 92.8622C154.819 93.2116 154.505 93.4886 154.076 93.6932C153.647 93.8977 153.089 94 152.402 94H149.248ZM150.305 93.0625H152.402C153.092 93.0625 153.582 92.929 153.872 92.6619C154.164 92.392 154.311 92.0653 154.311 91.6818C154.311 91.3864 154.235 91.1136 154.085 90.8636C153.934 90.6108 153.72 90.4091 153.441 90.2585C153.163 90.1051 152.833 90.0284 152.453 90.0284H150.305V93.0625ZM150.305 89.108H152.265C152.583 89.108 152.87 89.0455 153.126 88.9205C153.385 88.7955 153.589 88.6193 153.74 88.392C153.893 88.1648 153.97 87.8977 153.97 87.5909C153.97 87.2074 153.836 86.8821 153.569 86.6151C153.302 86.3452 152.879 86.2102 152.299 86.2102H150.305V89.108ZM157.053 94V85.2727H160.002C160.684 85.2727 161.243 85.3892 161.681 85.6222C162.118 85.8523 162.442 86.169 162.652 86.5724C162.863 86.9759 162.968 87.4347 162.968 87.9489C162.968 88.4631 162.863 88.919 162.652 89.3168C162.442 89.7145 162.12 90.027 161.685 90.2543C161.25 90.4787 160.695 90.5909 160.019 90.5909H157.632V89.6364H159.985C160.451 89.6364 160.826 89.5682 161.11 89.4318C161.397 89.2955 161.604 89.1023 161.732 88.8523C161.863 88.5994 161.928 88.2983 161.928 87.9489C161.928 87.5994 161.863 87.294 161.732 87.0327C161.601 86.7713 161.392 86.5696 161.105 86.4276C160.819 86.2827 160.439 86.2102 159.968 86.2102H158.11V94H157.053ZM161.161 90.0795L163.309 94H162.081L159.968 90.0795H161.161ZM165.087 94H163.979L167.183 85.2727H168.274L171.479 94H170.371L167.763 86.6534H167.695L165.087 94ZM165.496 90.5909H169.962V91.5284H165.496V90.5909ZM179.759 85.2727V94H178.736L173.98 87.1477H173.895V94H172.838V85.2727H173.861L178.634 92.142H178.719V85.2727H179.759ZM184.566 94H181.873V85.2727H184.686C185.532 85.2727 186.257 85.4474 186.859 85.7969C187.461 86.1435 187.923 86.642 188.244 87.2926C188.565 87.9403 188.725 88.7159 188.725 89.6193C188.725 90.5284 188.564 91.3111 188.24 91.9673C187.916 92.6207 187.444 93.1236 186.825 93.4759C186.206 93.8253 185.453 94 184.566 94ZM182.93 93.0625H184.498C185.22 93.0625 185.818 92.9233 186.292 92.6449C186.767 92.3665 187.12 91.9702 187.353 91.456C187.586 90.9418 187.703 90.3295 187.703 89.6193C187.703 88.9148 187.588 88.3082 187.358 87.7997C187.127 87.2884 186.784 86.8963 186.326 86.6236C185.869 86.348 185.299 86.2102 184.618 86.2102H182.93V93.0625Z" fill="white"/>
<rect x="103.5" y="47.5" width="205" height="29" stroke="#42DDFF" stroke-width="3"/>
<g filter="url(#filter2_dii_160_15)">
<path d="M386.679 39.9591L384.625 42.0139L380.515 46.1235L343.237 83.4005C342.037 84.6006 340.545 85.4917 338.909 85.9644L315.596 92.8198C314.069 93.2744 312.414 92.8561 311.287 91.7105C310.159 90.565 309.723 88.9466 310.177 87.401L317.033 64.1074C317.506 62.4708 318.397 60.9797 319.597 59.7796L356.875 22.5026L360.985 18.393L363.04 16.3382L369.204 22.5026L380.497 33.7948L386.661 39.9591H386.679ZM327.453 64.2528L325.762 65.944C325.598 66.1076 325.471 66.3258 325.398 66.5622L320.797 82.2004L336.436 77.5998C336.672 77.5271 336.89 77.3998 337.054 77.2362L338.745 75.5451H330.362C328.762 75.5451 327.453 74.2358 327.453 72.6356V64.2528ZM392.426 3.40948L399.59 10.5739C404.137 15.1199 404.137 22.4844 399.59 27.0304L396.954 29.667L392.844 33.7766L390.789 35.8314L384.625 29.667L373.332 18.3748L367.149 12.2105L369.204 10.1557L373.314 6.04615L375.951 3.40948C380.497 -1.13649 387.861 -1.13649 392.408 3.40948H392.426Z" fill="url(#paint3_linear_160_15)"/>
</g>
<path d="M333.5 110.43C333.5 110.43 334.597 116.875 337.416 119.554C340.551 122.533 348 122.93 348 122.93C348 122.93 340.551 123.327 337.416 126.306C334.597 128.985 333.5 135.43 333.5 135.43C333.5 135.43 332.403 128.985 329.584 126.306C326.449 123.327 319 122.93 319 122.93C319 122.93 326.449 122.533 329.584 119.554C332.403 116.875 333.5 110.43 333.5 110.43Z" fill="url(#paint4_linear_160_15)"/>
<path d="M358.863 84.0137C358.863 84.0137 364.889 87.7018 369.116 87.277C373.817 86.8045 379.567 80.9163 379.567 80.9163C379.567 80.9163 374.461 87.3706 374.592 92.0934C374.71 96.34 379.136 101.846 379.136 101.846C379.136 101.846 373.111 98.1581 368.884 98.5829C364.183 99.0554 358.432 104.944 358.432 104.944C358.432 104.944 363.539 98.4893 363.408 93.7665C363.29 89.5199 358.863 84.0137 358.863 84.0137Z" fill="url(#paint5_linear_160_15)"/>
<path d="M358.642 141.378C358.642 141.378 364.645 145.103 368.874 144.705C373.578 144.261 379.365 138.409 379.365 138.409C379.365 138.409 374.218 144.832 374.32 149.555C374.411 153.802 378.804 159.336 378.804 159.336C378.804 159.336 372.801 155.61 368.571 156.009C363.868 156.452 358.081 162.304 358.081 162.304C358.081 162.304 363.228 155.882 363.126 151.159C363.034 146.911 358.642 141.378 358.642 141.378Z" fill="url(#paint6_linear_160_15)"/>
<defs>
<filter id="filter0_df_160_15" x="0" y="15" width="342" height="221" filterUnits="userSpaceOnUse" color-interpolation-filters="sRGB">
<feFlood flood-opacity="0" result="BackgroundImageFix"/>
<feColorMatrix in="SourceAlpha" type="matrix" values="0 0 0 0 0 0 0 0 0 0 0 0 0 0 0 0 0 0 127 0" result="hardAlpha"/>
<feOffset dy="4"/>
<feGaussianBlur stdDeviation="2"/>
<feComposite in2="hardAlpha" operator="out"/>
<feColorMatrix type="matrix" values="0 0 0 0 0 0 0 0 0 0 0 0 0 0 0 0 0 0 0.25 0"/>
<feBlend mode="normal" in2="BackgroundImageFix" result="effect1_dropShadow_160_15"/>
<feBlend mode="normal" in="SourceGraphic" in2="effect1_dropShadow_160_15" result="shape"/>
<feGaussianBlur stdDeviation="2" result="effect2_foregroundBlur_160_15"/>
</filter>
<filter id="filter1_d_160_15" x="40" y="59" width="47" height="39" filterUnits="userSpaceOnUse" color-interpolation-filters="sRGB">
<feFlood flood-opacity="0" result="BackgroundImageFix"/>
<feColorMatrix in="SourceAlpha" type="matrix" values="0 0 0 0 0 0 0 0 0 0 0 0 0 0 0 0 0 0 127 0" result="hardAlpha"/>
<feOffset dy="4"/>
<feGaussianBlur stdDeviation="2"/>
<feComposite in2="hardAlpha" operator="out"/>
<feColorMatrix type="matrix" values="0 0 0 0 0 0 0 0 0 0 0 0 0 0 0 0 0 0 0.25 0"/>
<feBlend mode="normal" in2="BackgroundImageFix" result="effect1_dropShadow_160_15"/>
<feBlend mode="normal" in="SourceGraphic" in2="effect1_dropShadow_160_15" result="shape"/>
</filter>
<filter id="filter2_dii_160_15" x="306" y="-4" width="101" height="105" filterUnits="userSpaceOnUse" color-interpolation-filters="sRGB">
<feFlood flood-opacity="0" result="BackgroundImageFix"/>
<feColorMatrix in="SourceAlpha" type="matrix" values="0 0 0 0 0 0 0 0 0 0 0 0 0 0 0 0 0 0 127 0" result="hardAlpha"/>
<feOffset dy="4"/>
<feGaussianBlur stdDeviation="2"/>
<feComposite in2="hardAlpha" operator="out"/>
<feColorMatrix type="matrix" values="0 0 0 0 0 0 0 0 0 0 0 0 0 0 0 0 0 0 0.25 0"/>
<feBlend mode="normal" in2="BackgroundImageFix" result="effect1_dropShadow_160_15"/>
<feBlend mode="normal" in="SourceGraphic" in2="effect1_dropShadow_160_15" result="shape"/>
<feColorMatrix in="SourceAlpha" type="matrix" values="0 0 0 0 0 0 0 0 0 0 0 0 0 0 0 0 0 0 127 0" result="hardAlpha"/>
<feOffset dx="-4" dy="-4"/>
<feGaussianBlur stdDeviation="2"/>
<feComposite in2="hardAlpha" operator="arithmetic" k2="-1" k3="1"/>
<feColorMatrix type="matrix" values="0 0 0 0 0 0 0 0 0 0 0 0 0 0 0 0 0 0 0.25 0"/>
<feBlend mode="normal" in2="shape" result="effect2_innerShadow_160_15"/>
<feColorMatrix in="SourceAlpha" type="matrix" values="0 0 0 0 0 0 0 0 0 0 0 0 0 0 0 0 0 0 127 0" result="hardAlpha"/>
<feOffset dx="4" dy="4"/>
<feGaussianBlur stdDeviation="2"/>
<feComposite in2="hardAlpha" operator="arithmetic" k2="-1" k3="1"/>
<feColorMatrix type="matrix" values="0 0 0 0 1 0 0 0 0 1 0 0 0 0 1 0 0 0 0.4 0"/>
<feBlend mode="normal" in2="effect2_innerShadow_160_15" result="effect3_innerShadow_160_15"/>
</filter>
<linearGradient id="paint0_linear_160_15" x1="24.1166" y1="26.4264" x2="283.807" y2="275.232" gradientUnits="userSpaceOnUse">
<stop stop-color="#0D0316"/>
<stop offset="1" stop-color="#010C0F"/>
</linearGradient>
<linearGradient id="paint1_linear_160_15" x1="171" y1="19" x2="171" y2="228" gradientUnits="userSpaceOnUse">
<stop stop-color="#3E6DBE"/>
<stop offset="1" stop-color="white"/>
</linearGradient>
<radialGradient id="paint2_radial_160_15" cx="0" cy="0" r="1" gradientUnits="userSpaceOnUse" gradientTransform="translate(54.5 61) rotate(52.5946) scale(42.8019 53.8475)">
<stop stop-color="#FDC500"/>
<stop offset="1" stop-color="#B64D3B"/>
</radialGradient>
<linearGradient id="paint3_linear_160_15" x1="397" y1="6" x2="315" y2="90" gradientUnits="userSpaceOnUse">
<stop stop-color="#BD6A90"/>
<stop offset="1"/>
</linearGradient>
<linearGradient id="paint4_linear_160_15" x1="333.5" y1="110.43" x2="333.5" y2="135.43" gradientUnits="userSpaceOnUse">
<stop stop-color="#3E6DBE"/>
<stop offset="1" stop-color="white"/>
</linearGradient>
<linearGradient id="paint5_linear_160_15" x1="358.863" y1="84.0137" x2="379.136" y2="101.846" gradientUnits="userSpaceOnUse">
<stop stop-color="#3E6DBE"/>
<stop offset="1" stop-color="white"/>
</linearGradient>
<linearGradient id="paint6_linear_160_15" x1="358.642" y1="141.378" x2="378.804" y2="159.336" gradientUnits="userSpaceOnUse">
<stop stop-color="#3E6DBE"/>
<stop offset="1" stop-color="white"/>
</linearGradient>
</defs>
</svg>
