<svg width="61" height="61" viewBox="0 0 61 61" fill="none" xmlns="http://www.w3.org/2000/svg">
<rect width="61" height="61" rx="16" fill="#4E092A"/>
<g filter="url(#filter0_dii_167_83)">
<path d="M15.875 15.5C15.875 14.1172 14.7857 13 13.4375 13C12.0893 13 11 14.1172 11 15.5V41.75C11 45.2031 13.727 48 17.0938 48H47.5625C48.9107 48 50 46.8828 50 45.5C50 44.1172 48.9107 43 47.5625 43H17.0938C16.4234 43 15.875 42.4375 15.875 41.75V15.5ZM46.8465 22.2656C47.7986 21.2891 47.7986 19.7031 46.8465 18.7266C45.8943 17.75 44.348 17.75 43.3959 18.7266L35.375 26.9609L31.0027 22.4766C30.0506 21.5 28.5043 21.5 27.5521 22.4766L19.0209 31.2266C18.0688 32.2031 18.0688 33.7891 19.0209 34.7656C19.973 35.7422 21.5193 35.7422 22.4715 34.7656L29.2812 27.7891L33.6535 32.2734C34.6057 33.25 36.152 33.25 37.1041 32.2734L46.8541 22.2734L46.8465 22.2656Z" fill="url(#paint0_linear_167_83)"/>
</g>
<defs>
<filter id="filter0_dii_167_83" x="7" y="11" width="47" height="45" filterUnits="userSpaceOnUse" color-interpolation-filters="sRGB">
<feFlood flood-opacity="0" result="BackgroundImageFix"/>
<feColorMatrix in="SourceAlpha" type="matrix" values="0 0 0 0 0 0 0 0 0 0 0 0 0 0 0 0 0 0 127 0" result="hardAlpha"/>
<feOffset dy="4"/>
<feGaussianBlur stdDeviation="2"/>
<feComposite in2="hardAlpha" operator="out"/>
<feColorMatrix type="matrix" values="0 0 0 0 0 0 0 0 0 0 0 0 0 0 0 0 0 0 0.25 0"/>
<feBlend mode="normal" in2="BackgroundImageFix" result="effect1_dropShadow_167_83"/>
<feBlend mode="normal" in="SourceGraphic" in2="effect1_dropShadow_167_83" result="shape"/>
<feColorMatrix in="SourceAlpha" type="matrix" values="0 0 0 0 0 0 0 0 0 0 0 0 0 0 0 0 0 0 127 0" result="hardAlpha"/>
<feOffset dx="-2" dy="-2"/>
<feGaussianBlur stdDeviation="2"/>
<feComposite in2="hardAlpha" operator="arithmetic" k2="-1" k3="1"/>
<feColorMatrix type="matrix" values="0 0 0 0 0 0 0 0 0 0 0 0 0 0 0 0 0 0 0.25 0"/>
<feBlend mode="normal" in2="shape" result="effect2_innerShadow_167_83"/>
<feColorMatrix in="SourceAlpha" type="matrix" values="0 0 0 0 0 0 0 0 0 0 0 0 0 0 0 0 0 0 127 0" result="hardAlpha"/>
<feOffset dx="2" dy="2"/>
<feGaussianBlur stdDeviation="2"/>
<feComposite in2="hardAlpha" operator="arithmetic" k2="-1" k3="1"/>
<feColorMatrix type="matrix" values="0 0 0 0 1 0 0 0 0 1 0 0 0 0 1 0 0 0 0.4 0"/>
<feBlend mode="normal" in2="effect2_innerShadow_167_83" result="effect3_innerShadow_167_83"/>
</filter>
<linearGradient id="paint0_linear_167_83" x1="11" y1="4.5" x2="54.5" y2="59" gradientUnits="userSpaceOnUse">
<stop stop-color="#FDC500"/>
<stop offset="1" stop-color="#B64D3B"/>
</linearGradient>
</defs>
</svg>
