<svg width="569" height="557" viewBox="0 0 569 557" fill="none" xmlns="http://www.w3.org/2000/svg">
<g filter="url(#filter0_df_218_350)">
<rect x="77" y="6" width="334" height="209" rx="24" fill="url(#paint0_linear_218_350)" fill-opacity="0.75" shape-rendering="crispEdges"/>
<rect x="77.5" y="6.5" width="333" height="208" rx="23.5" stroke="url(#paint1_linear_218_350)" shape-rendering="crispEdges"/>
</g>
<rect x="112.5" y="106.5" width="261" height="16" rx="8" fill="white" fill-opacity="0.6" stroke="#4EC8CA"/>
<rect x="111.5" y="129.5" width="141" height="16" rx="8" fill="white" fill-opacity="0.6" stroke="#4EC8CA"/>
<rect x="111.5" y="151.5" width="192" height="16" rx="8" fill="white" fill-opacity="0.6" stroke="#4EC8CA"/>
<rect x="112.5" y="174.5" width="247" height="16" rx="8" fill="white" fill-opacity="0.6" stroke="#4EC8CA"/>
<path d="M182.114 56V38.5455H184.227V54.125H192.341V56H182.114ZM201.205 56.2386C200.08 56.2386 199.077 56.0455 198.196 55.6591C197.321 55.2727 196.625 54.7358 196.108 54.0483C195.597 53.3551 195.318 52.5511 195.273 51.6364H197.42C197.466 52.1989 197.659 52.6847 198 53.0938C198.341 53.4972 198.787 53.8097 199.338 54.0312C199.889 54.2528 200.5 54.3636 201.17 54.3636C201.92 54.3636 202.585 54.233 203.165 53.9716C203.744 53.7102 204.199 53.3466 204.528 52.8807C204.858 52.4148 205.023 51.875 205.023 51.2614C205.023 50.6193 204.864 50.054 204.545 49.5653C204.227 49.071 203.761 48.6847 203.148 48.4062C202.534 48.1278 201.784 47.9886 200.898 47.9886H199.5V46.1136H200.898C201.591 46.1136 202.199 45.9886 202.722 45.7386C203.25 45.4886 203.662 45.1364 203.957 44.6818C204.259 44.2273 204.409 43.6932 204.409 43.0795C204.409 42.4886 204.278 41.9744 204.017 41.5369C203.756 41.0994 203.386 40.7585 202.909 40.5142C202.438 40.2699 201.881 40.1477 201.239 40.1477C200.636 40.1477 200.068 40.2585 199.534 40.4801C199.006 40.696 198.574 41.0114 198.239 41.4261C197.903 41.8352 197.722 42.3295 197.693 42.9091H195.648C195.682 41.9943 195.957 41.1932 196.474 40.5057C196.991 39.8125 197.668 39.2727 198.503 38.8864C199.344 38.5 200.267 38.3068 201.273 38.3068C202.352 38.3068 203.278 38.5256 204.051 38.9631C204.824 39.3949 205.418 39.9659 205.832 40.6761C206.247 41.3864 206.455 42.1534 206.455 42.9773C206.455 43.9602 206.196 44.7983 205.679 45.4915C205.168 46.1847 204.472 46.6648 203.591 46.9318V47.0682C204.693 47.25 205.554 47.7187 206.173 48.4744C206.793 49.2244 207.102 50.1534 207.102 51.2614C207.102 52.2102 206.844 53.0625 206.327 53.8182C205.815 54.5682 205.116 55.1591 204.23 55.5909C203.344 56.0227 202.335 56.2386 201.205 56.2386ZM223.031 56H217.645V38.5455H223.27C224.963 38.5455 226.412 38.8949 227.616 39.5938C228.821 40.2869 229.744 41.2841 230.386 42.5852C231.028 43.8807 231.349 45.4318 231.349 47.2386C231.349 49.0568 231.026 50.6222 230.378 51.9347C229.73 53.2415 228.787 54.2472 227.548 54.9517C226.31 55.6506 224.804 56 223.031 56ZM219.759 54.125H222.895C224.338 54.125 225.534 53.8466 226.483 53.2898C227.432 52.733 228.139 51.9403 228.605 50.9119C229.071 49.8835 229.304 48.6591 229.304 47.2386C229.304 45.8295 229.074 44.6165 228.614 43.5994C228.153 42.5767 227.466 41.7926 226.551 41.2472C225.636 40.696 224.497 40.4205 223.134 40.4205H219.759V54.125ZM237.009 38.5455V56H234.895V38.5455H237.009ZM253.178 44C252.991 43.4261 252.744 42.9119 252.437 42.4574C252.136 41.9972 251.775 41.6051 251.354 41.2812C250.94 40.9574 250.468 40.7102 249.94 40.5398C249.411 40.3693 248.832 40.2841 248.201 40.2841C247.167 40.2841 246.227 40.5511 245.38 41.0852C244.533 41.6193 243.86 42.4062 243.36 43.446C242.86 44.4858 242.61 45.7614 242.61 47.2727C242.61 48.7841 242.863 50.0597 243.369 51.0994C243.874 52.1392 244.559 52.9261 245.423 53.4602C246.286 53.9943 247.258 54.2614 248.337 54.2614C249.337 54.2614 250.218 54.0483 250.979 53.6222C251.746 53.1903 252.343 52.5824 252.769 51.7983C253.201 51.0085 253.417 50.0795 253.417 49.0114L254.065 49.1477H248.815V47.2727H255.462V49.1477C255.462 50.5852 255.156 51.8352 254.542 52.8977C253.934 53.9602 253.093 54.7841 252.019 55.3693C250.951 55.9489 249.724 56.2386 248.337 56.2386C246.792 56.2386 245.434 55.875 244.263 55.1477C243.099 54.4205 242.19 53.3864 241.536 52.0455C240.888 50.7045 240.565 49.1136 240.565 47.2727C240.565 45.892 240.749 44.6506 241.119 43.5483C241.494 42.4403 242.022 41.4972 242.704 40.7188C243.386 39.9403 244.192 39.3438 245.124 38.929C246.056 38.5142 247.082 38.3068 248.201 38.3068C249.121 38.3068 249.979 38.446 250.775 38.7244C251.576 38.9972 252.289 39.3864 252.914 39.892C253.545 40.392 254.07 40.9915 254.491 41.6903C254.911 42.3835 255.201 43.1534 255.36 44H253.178ZM261.196 38.5455V56H259.082V38.5455H261.196ZM264.479 40.4205V38.5455H277.57V40.4205H272.082V56H269.968V40.4205H264.479ZM279.509 56H277.293L283.702 38.5455H285.884L292.293 56H290.077L284.862 41.3068H284.725L279.509 56ZM280.327 49.1818H289.259V51.0568H280.327V49.1818ZM295.012 56V38.5455H297.126V54.125H305.239V56H295.012ZM315.262 56V38.5455H321.16C322.529 38.5455 323.648 38.7926 324.518 39.2869C325.393 39.7756 326.04 40.4375 326.461 41.2727C326.881 42.108 327.092 43.0398 327.092 44.0682C327.092 45.0966 326.881 46.0312 326.461 46.8722C326.046 47.7131 325.404 48.3835 324.535 48.8835C323.665 49.3778 322.552 49.625 321.194 49.625H316.967V47.75H321.126C322.063 47.75 322.816 47.5881 323.384 47.2642C323.952 46.9403 324.364 46.5028 324.62 45.9517C324.881 45.3949 325.012 44.767 325.012 44.0682C325.012 43.3693 324.881 42.7443 324.62 42.1932C324.364 41.642 323.95 41.2102 323.376 40.8977C322.802 40.5795 322.04 40.4205 321.092 40.4205H317.376V56H315.262ZM329.431 56H327.215L333.624 38.5455H335.806L342.215 56H339.999L334.783 41.3068H334.647L329.431 56ZM330.249 49.1818H339.181V51.0568H330.249V49.1818ZM354.479 42.9091C354.377 42.0455 353.962 41.375 353.235 40.8977C352.508 40.4205 351.616 40.1818 350.559 40.1818C349.786 40.1818 349.11 40.3068 348.531 40.5568C347.957 40.8068 347.508 41.1506 347.184 41.5881C346.866 42.0256 346.707 42.5227 346.707 43.0795C346.707 43.5455 346.817 43.946 347.039 44.2812C347.266 44.6108 347.556 44.8864 347.908 45.108C348.261 45.3239 348.63 45.5028 349.016 45.6449C349.403 45.7812 349.758 45.892 350.082 45.9773L351.854 46.4545C352.309 46.5739 352.815 46.7386 353.371 46.9489C353.934 47.1591 354.471 47.446 354.982 47.8097C355.499 48.1676 355.925 48.6278 356.261 49.1903C356.596 49.7528 356.763 50.4432 356.763 51.2614C356.763 52.2045 356.516 53.0568 356.022 53.8182C355.533 54.5795 354.817 55.1847 353.874 55.6335C352.937 56.0824 351.798 56.3068 350.457 56.3068C349.207 56.3068 348.124 56.1051 347.21 55.7017C346.3 55.2983 345.585 54.7358 345.062 54.0142C344.545 53.2926 344.252 52.4545 344.184 51.5H346.366C346.423 52.1591 346.644 52.7045 347.031 53.1364C347.423 53.5625 347.917 53.8807 348.513 54.0909C349.116 54.2955 349.763 54.3977 350.457 54.3977C351.263 54.3977 351.988 54.267 352.63 54.0057C353.272 53.7386 353.781 53.3693 354.156 52.8977C354.531 52.4205 354.718 51.8636 354.718 51.2273C354.718 50.6477 354.556 50.1761 354.232 49.8125C353.908 49.4489 353.482 49.1534 352.954 48.9261C352.425 48.6989 351.854 48.5 351.241 48.3295L349.093 47.7159C347.729 47.3239 346.65 46.7642 345.854 46.0369C345.059 45.3097 344.661 44.358 344.661 43.1818C344.661 42.2045 344.925 41.3523 345.454 40.625C345.988 39.892 346.704 39.3239 347.602 38.9205C348.505 38.5114 349.513 38.3068 350.627 38.3068C351.752 38.3068 352.752 38.5085 353.627 38.9119C354.502 39.3097 355.195 39.8551 355.707 40.5483C356.224 41.2415 356.496 42.0284 356.525 42.9091H354.479ZM369.784 42.9091C369.682 42.0455 369.267 41.375 368.54 40.8977C367.813 40.4205 366.92 40.1818 365.864 40.1818C365.091 40.1818 364.415 40.3068 363.835 40.5568C363.261 40.8068 362.813 41.1506 362.489 41.5881C362.17 42.0256 362.011 42.5227 362.011 43.0795C362.011 43.5455 362.122 43.946 362.344 44.2812C362.571 44.6108 362.861 44.8864 363.213 45.108C363.565 45.3239 363.935 45.5028 364.321 45.6449C364.707 45.7812 365.062 45.892 365.386 45.9773L367.159 46.4545C367.614 46.5739 368.119 46.7386 368.676 46.9489C369.239 47.1591 369.776 47.446 370.287 47.8097C370.804 48.1676 371.23 48.6278 371.565 49.1903C371.901 49.7528 372.068 50.4432 372.068 51.2614C372.068 52.2045 371.821 53.0568 371.327 53.8182C370.838 54.5795 370.122 55.1847 369.179 55.6335C368.241 56.0824 367.102 56.3068 365.761 56.3068C364.511 56.3068 363.429 56.1051 362.514 55.7017C361.605 55.2983 360.889 54.7358 360.366 54.0142C359.849 53.2926 359.557 52.4545 359.489 51.5H361.67C361.727 52.1591 361.949 52.7045 362.335 53.1364C362.727 53.5625 363.222 53.8807 363.818 54.0909C364.42 54.2955 365.068 54.3977 365.761 54.3977C366.568 54.3977 367.293 54.267 367.935 54.0057C368.577 53.7386 369.085 53.3693 369.46 52.8977C369.835 52.4205 370.023 51.8636 370.023 51.2273C370.023 50.6477 369.861 50.1761 369.537 49.8125C369.213 49.4489 368.787 49.1534 368.259 48.9261C367.73 48.6989 367.159 48.5 366.545 48.3295L364.398 47.7159C363.034 47.3239 361.955 46.7642 361.159 46.0369C360.364 45.3097 359.966 44.358 359.966 43.1818C359.966 42.2045 360.23 41.3523 360.759 40.625C361.293 39.892 362.009 39.3239 362.906 38.9205C363.81 38.5114 364.818 38.3068 365.932 38.3068C367.057 38.3068 368.057 38.5085 368.932 38.9119C369.807 39.3097 370.5 39.8551 371.011 40.5483C371.528 41.2415 371.801 42.0284 371.83 42.9091H369.784Z" fill="black"/>
<rect x="106" y="30" width="61" height="61" rx="16" fill="#4EC8CA"/>
<g filter="url(#filter1_d_218_350)">
<path d="M137.922 51.1205C138.694 50.6362 139.208 49.7574 139.208 48.7679C139.208 47.2386 137.996 46 136.5 46C135.004 46 133.792 47.2386 133.792 48.7679C133.792 49.7643 134.306 50.6362 135.078 51.1205L131.198 59.0504C130.582 60.3098 128.984 60.6696 127.908 59.7908L121.875 54.8571C122.214 54.3935 122.417 53.8192 122.417 53.1964C122.417 51.6672 121.205 50.4286 119.708 50.4286C118.212 50.4286 117 51.6672 117 53.1964C117 54.7257 118.212 55.9643 119.708 55.9643C119.722 55.9643 119.742 55.9643 119.756 55.9643L122.85 73.3603C123.222 75.4638 125.017 77 127.116 77H145.884C147.977 77 149.771 75.4708 150.15 73.3603L153.244 55.9643C153.258 55.9643 153.278 55.9643 153.292 55.9643C154.788 55.9643 156 54.7257 156 53.1964C156 51.6672 154.788 50.4286 153.292 50.4286C151.795 50.4286 150.583 51.6672 150.583 53.1964C150.583 53.8192 150.786 54.3935 151.125 54.8571L145.092 59.7908C144.016 60.6696 142.418 60.3098 141.802 59.0504L137.922 51.1205Z" fill="url(#paint2_radial_218_350)"/>
</g>
<path d="M181.057 78V69.2727H184.108C184.716 69.2727 185.217 69.3778 185.612 69.5881C186.007 69.7955 186.301 70.0753 186.494 70.4276C186.688 70.777 186.784 71.1648 186.784 71.5909C186.784 71.9659 186.717 72.2756 186.584 72.5199C186.453 72.7642 186.28 72.9574 186.064 73.0994C185.851 73.2415 185.619 73.3466 185.369 73.4148V73.5C185.636 73.517 185.905 73.6108 186.175 73.7812C186.445 73.9517 186.67 74.196 186.852 74.5142C187.034 74.8324 187.125 75.2216 187.125 75.6818C187.125 76.1193 187.026 76.5128 186.827 76.8622C186.628 77.2116 186.314 77.4886 185.885 77.6932C185.456 77.8977 184.898 78 184.21 78H181.057ZM182.114 77.0625H184.21C184.901 77.0625 185.391 76.929 185.68 76.6619C185.973 76.392 186.119 76.0653 186.119 75.6818C186.119 75.3864 186.044 75.1136 185.893 74.8636C185.743 74.6108 185.528 74.4091 185.25 74.2585C184.972 74.1051 184.642 74.0284 184.261 74.0284H182.114V77.0625ZM182.114 73.108H184.074C184.392 73.108 184.679 73.0455 184.935 72.9205C185.193 72.7955 185.398 72.6193 185.548 72.392C185.702 72.1648 185.778 71.8977 185.778 71.5909C185.778 71.2074 185.645 70.8821 185.378 70.6151C185.111 70.3452 184.688 70.2102 184.108 70.2102H182.114V73.108ZM188.112 69.2727H189.322L191.742 73.3466H191.844L194.265 69.2727H195.475L192.322 74.4034V78H191.265V74.4034L188.112 69.2727ZM204.99 71.4545C204.939 71.0227 204.731 70.6875 204.368 70.4489C204.004 70.2102 203.558 70.0909 203.029 70.0909C202.643 70.0909 202.305 70.1534 202.015 70.2784C201.728 70.4034 201.504 70.5753 201.342 70.794C201.183 71.0128 201.103 71.2614 201.103 71.5398C201.103 71.7727 201.159 71.973 201.27 72.1406C201.383 72.3054 201.528 72.4432 201.704 72.554C201.88 72.6619 202.065 72.7514 202.258 72.8224C202.451 72.8906 202.629 72.946 202.791 72.9886L203.677 73.2273C203.904 73.2869 204.157 73.3693 204.436 73.4744C204.717 73.5795 204.985 73.723 205.241 73.9048C205.5 74.0838 205.713 74.3139 205.88 74.5952C206.048 74.8764 206.132 75.2216 206.132 75.6307C206.132 76.1023 206.008 76.5284 205.761 76.9091C205.517 77.2898 205.159 77.5923 204.687 77.8168C204.218 78.0412 203.649 78.1534 202.978 78.1534C202.353 78.1534 201.812 78.0526 201.355 77.8509C200.9 77.6491 200.542 77.3679 200.281 77.0071C200.022 76.6463 199.876 76.2273 199.842 75.75H200.933C200.961 76.0795 201.072 76.3523 201.265 76.5682C201.461 76.7812 201.708 76.9403 202.007 77.0455C202.308 77.1477 202.632 77.1989 202.978 77.1989C203.382 77.1989 203.744 77.1335 204.065 77.0028C204.386 76.8693 204.64 76.6847 204.828 76.4489C205.015 76.2102 205.109 75.9318 205.109 75.6136C205.109 75.3239 205.028 75.0881 204.866 74.9062C204.704 74.7244 204.491 74.5767 204.227 74.4631C203.963 74.3494 203.677 74.25 203.37 74.1648L202.297 73.858C201.615 73.6619 201.075 73.3821 200.677 73.0185C200.279 72.6548 200.081 72.179 200.081 71.5909C200.081 71.1023 200.213 70.6761 200.477 70.3125C200.744 69.946 201.102 69.6619 201.551 69.4602C202.002 69.2557 202.507 69.1534 203.064 69.1534C203.626 69.1534 204.126 69.2543 204.564 69.456C205.001 69.6548 205.348 69.9276 205.603 70.2741C205.862 70.6207 205.998 71.0142 206.012 71.4545H204.99ZM207.869 78V69.2727H208.926V73.6023H209.028L212.949 69.2727H214.33L210.665 73.2102L214.33 78H213.051L210.017 73.9432L208.926 75.1705V78H207.869ZM216.754 69.2727V78H215.697V69.2727H216.754ZM225.794 69.2727V78H224.771L220.015 71.1477H219.93V78H218.873V69.2727H219.896L224.669 76.142H224.754V69.2727H225.794ZM231.283 78V69.2727H236.55V70.2102H232.34V73.1591H236.278V74.0966H232.34V77.0625H236.619V78H231.283ZM243.228 71.4545C243.177 71.0227 242.969 70.6875 242.606 70.4489C242.242 70.2102 241.796 70.0909 241.268 70.0909C240.881 70.0909 240.543 70.1534 240.254 70.2784C239.967 70.4034 239.742 70.5753 239.58 70.794C239.421 71.0128 239.342 71.2614 239.342 71.5398C239.342 71.7727 239.397 71.973 239.508 72.1406C239.621 72.3054 239.766 72.4432 239.942 72.554C240.119 72.6619 240.303 72.7514 240.496 72.8224C240.69 72.8906 240.867 72.946 241.029 72.9886L241.915 73.2273C242.143 73.2869 242.396 73.3693 242.674 73.4744C242.955 73.5795 243.224 73.723 243.479 73.9048C243.738 74.0838 243.951 74.3139 244.119 74.5952C244.286 74.8764 244.37 75.2216 244.37 75.6307C244.37 76.1023 244.246 76.5284 243.999 76.9091C243.755 77.2898 243.397 77.5923 242.925 77.8168C242.457 78.0412 241.887 78.1534 241.217 78.1534C240.592 78.1534 240.05 78.0526 239.593 77.8509C239.138 77.6491 238.781 77.3679 238.519 77.0071C238.261 76.6463 238.114 76.2273 238.08 75.75H239.171C239.2 76.0795 239.31 76.3523 239.504 76.5682C239.7 76.7812 239.947 76.9403 240.245 77.0455C240.546 77.1477 240.87 77.1989 241.217 77.1989C241.62 77.1989 241.982 77.1335 242.303 77.0028C242.624 76.8693 242.879 76.6847 243.066 76.4489C243.254 76.2102 243.347 75.9318 243.347 75.6136C243.347 75.3239 243.266 75.0881 243.104 74.9062C242.942 74.7244 242.729 74.5767 242.465 74.4631C242.201 74.3494 241.915 74.25 241.609 74.1648L240.535 73.858C239.853 73.6619 239.313 73.3821 238.915 73.0185C238.518 72.6548 238.319 72.179 238.319 71.5909C238.319 71.1023 238.451 70.6761 238.715 70.3125C238.982 69.946 239.34 69.6619 239.789 69.4602C240.241 69.2557 240.745 69.1534 241.302 69.1534C241.864 69.1534 242.364 69.2543 242.802 69.456C243.239 69.6548 243.586 69.9276 243.842 70.2741C244.1 70.6207 244.237 71.0142 244.251 71.4545H243.228ZM250.88 71.4545C250.829 71.0227 250.622 70.6875 250.258 70.4489C249.895 70.2102 249.449 70.0909 248.92 70.0909C248.534 70.0909 248.196 70.1534 247.906 70.2784C247.619 70.4034 247.395 70.5753 247.233 70.794C247.074 71.0128 246.994 71.2614 246.994 71.5398C246.994 71.7727 247.049 71.973 247.16 72.1406C247.274 72.3054 247.419 72.4432 247.595 72.554C247.771 72.6619 247.956 72.7514 248.149 72.8224C248.342 72.8906 248.52 72.946 248.681 72.9886L249.568 73.2273C249.795 73.2869 250.048 73.3693 250.326 73.4744C250.608 73.5795 250.876 73.723 251.132 73.9048C251.39 74.0838 251.603 74.3139 251.771 74.5952C251.939 74.8764 252.022 75.2216 252.022 75.6307C252.022 76.1023 251.899 76.5284 251.652 76.9091C251.407 77.2898 251.049 77.5923 250.578 77.8168C250.109 78.0412 249.539 78.1534 248.869 78.1534C248.244 78.1534 247.703 78.0526 247.245 77.8509C246.791 77.6491 246.433 77.3679 246.172 77.0071C245.913 76.6463 245.767 76.2273 245.733 75.75H246.824C246.852 76.0795 246.963 76.3523 247.156 76.5682C247.352 76.7812 247.599 76.9403 247.897 77.0455C248.199 77.1477 248.522 77.1989 248.869 77.1989C249.272 77.1989 249.635 77.1335 249.956 77.0028C250.277 76.8693 250.531 76.6847 250.718 76.4489C250.906 76.2102 251 75.9318 251 75.6136C251 75.3239 250.919 75.0881 250.757 74.9062C250.595 74.7244 250.382 74.5767 250.118 74.4631C249.853 74.3494 249.568 74.25 249.261 74.1648L248.187 73.858C247.505 73.6619 246.966 73.3821 246.568 73.0185C246.17 72.6548 245.971 72.179 245.971 71.5909C245.971 71.1023 246.103 70.6761 246.368 70.3125C246.635 69.946 246.993 69.6619 247.441 69.4602C247.893 69.2557 248.397 69.1534 248.954 69.1534C249.517 69.1534 250.017 69.2543 250.454 69.456C250.892 69.6548 251.238 69.9276 251.494 70.2741C251.752 70.6207 251.889 71.0142 251.903 71.4545H250.88ZM253.76 78V69.2727H259.027V70.2102H254.817V73.1591H258.754V74.0966H254.817V77.0625H259.095V78H253.76ZM267.852 69.2727V78H266.83L262.074 71.1477H261.989V78H260.932V69.2727H261.955L266.727 76.142H266.812V69.2727H267.852ZM269.49 70.2102V69.2727H276.035V70.2102H273.291V78H272.234V70.2102H269.49ZM278.723 69.2727V78H277.666V69.2727H278.723ZM281.2 78H280.092L283.297 69.2727H284.387L287.592 78H286.484L283.876 70.6534H283.808L281.2 78ZM281.609 74.5909H286.075V75.5284H281.609V74.5909ZM288.951 78V69.2727H290.008V77.0625H294.065V78H288.951ZM300.474 71.4545C300.423 71.0227 300.216 70.6875 299.852 70.4489C299.488 70.2102 299.042 70.0909 298.514 70.0909C298.127 70.0909 297.789 70.1534 297.5 70.2784C297.213 70.4034 296.988 70.5753 296.826 70.794C296.667 71.0128 296.588 71.2614 296.588 71.5398C296.588 71.7727 296.643 71.973 296.754 72.1406C296.868 72.3054 297.012 72.4432 297.189 72.554C297.365 72.6619 297.549 72.7514 297.743 72.8224C297.936 72.8906 298.113 72.946 298.275 72.9886L299.162 73.2273C299.389 73.2869 299.642 73.3693 299.92 73.4744C300.201 73.5795 300.47 73.723 300.725 73.9048C300.984 74.0838 301.197 74.3139 301.365 74.5952C301.532 74.8764 301.616 75.2216 301.616 75.6307C301.616 76.1023 301.493 76.5284 301.245 76.9091C301.001 77.2898 300.643 77.5923 300.172 77.8168C299.703 78.0412 299.133 78.1534 298.463 78.1534C297.838 78.1534 297.297 78.0526 296.839 77.8509C296.385 77.6491 296.027 77.3679 295.765 77.0071C295.507 76.6463 295.36 76.2273 295.326 75.75H296.417C296.446 76.0795 296.556 76.3523 296.75 76.5682C296.946 76.7812 297.193 76.9403 297.491 77.0455C297.792 77.1477 298.116 77.1989 298.463 77.1989C298.866 77.1989 299.228 77.1335 299.549 77.0028C299.87 76.8693 300.125 76.6847 300.312 76.4489C300.5 76.2102 300.593 75.9318 300.593 75.6136C300.593 75.3239 300.512 75.0881 300.35 74.9062C300.189 74.7244 299.975 74.5767 299.711 74.4631C299.447 74.3494 299.162 74.25 298.855 74.1648L297.781 73.858C297.099 73.6619 296.559 73.3821 296.162 73.0185C295.764 72.6548 295.565 72.179 295.565 71.5909C295.565 71.1023 295.697 70.6761 295.961 70.3125C296.228 69.946 296.586 69.6619 297.035 69.4602C297.487 69.2557 297.991 69.1534 298.548 69.1534C299.11 69.1534 299.61 69.2543 300.048 69.456C300.485 69.6548 300.832 69.9276 301.088 70.2741C301.346 70.6207 301.483 71.0142 301.497 71.4545H300.474Z" fill="black"/>
<g filter="url(#filter2_df_218_350)">
<rect x="167" y="103" width="334" height="209" rx="24" fill="url(#paint3_linear_218_350)" fill-opacity="0.75" shape-rendering="crispEdges"/>
<rect x="167.5" y="103.5" width="333" height="208" rx="23.5" stroke="url(#paint4_linear_218_350)" shape-rendering="crispEdges"/>
</g>
<rect x="202.5" y="203.5" width="261" height="16" rx="8" fill="white" fill-opacity="0.6" stroke="#CACDE9"/>
<rect x="201.5" y="226.5" width="141" height="16" rx="8" fill="white" fill-opacity="0.6" stroke="#CACDE9"/>
<rect x="201.5" y="248.5" width="192" height="16" rx="8" fill="white" fill-opacity="0.6" stroke="#CACDE9"/>
<rect x="202.5" y="271.5" width="247" height="16" rx="8" fill="white" fill-opacity="0.6" stroke="#CACDE9"/>
<path d="M272.83 156H270.614L277.023 138.545H279.205L285.614 156H283.398L278.182 141.307H278.045L272.83 156ZM273.648 149.182H282.58V151.057H273.648V149.182ZM293.173 152.932V141.682H295.082V152.932H293.173ZM288.503 148.261V146.352H299.753V148.261H288.503ZM316.289 156H310.903V138.545H316.528C318.221 138.545 319.67 138.895 320.874 139.594C322.079 140.287 323.002 141.284 323.644 142.585C324.286 143.881 324.607 145.432 324.607 147.239C324.607 149.057 324.283 150.622 323.636 151.935C322.988 153.241 322.045 154.247 320.806 154.952C319.567 155.651 318.062 156 316.289 156ZM313.016 154.125H316.153C317.596 154.125 318.792 153.847 319.741 153.29C320.69 152.733 321.397 151.94 321.863 150.912C322.329 149.884 322.562 148.659 322.562 147.239C322.562 145.83 322.332 144.616 321.871 143.599C321.411 142.577 320.724 141.793 319.809 141.247C318.894 140.696 317.755 140.42 316.391 140.42H313.016V154.125ZM330.266 138.545V156H328.153V138.545H330.266ZM346.436 144C346.249 143.426 346.001 142.912 345.695 142.457C345.393 141.997 345.033 141.605 344.612 141.281C344.197 140.957 343.726 140.71 343.197 140.54C342.669 140.369 342.089 140.284 341.459 140.284C340.425 140.284 339.484 140.551 338.638 141.085C337.791 141.619 337.118 142.406 336.618 143.446C336.118 144.486 335.868 145.761 335.868 147.273C335.868 148.784 336.121 150.06 336.626 151.099C337.132 152.139 337.817 152.926 338.68 153.46C339.544 153.994 340.516 154.261 341.595 154.261C342.595 154.261 343.476 154.048 344.237 153.622C345.004 153.19 345.601 152.582 346.027 151.798C346.459 151.009 346.675 150.08 346.675 149.011L347.322 149.148H342.072V147.273H348.72V149.148C348.72 150.585 348.413 151.835 347.8 152.898C347.192 153.96 346.351 154.784 345.277 155.369C344.209 155.949 342.982 156.239 341.595 156.239C340.05 156.239 338.692 155.875 337.521 155.148C336.357 154.42 335.447 153.386 334.794 152.045C334.146 150.705 333.822 149.114 333.822 147.273C333.822 145.892 334.007 144.651 334.376 143.548C334.751 142.44 335.28 141.497 335.962 140.719C336.643 139.94 337.45 139.344 338.382 138.929C339.314 138.514 340.339 138.307 341.459 138.307C342.379 138.307 343.237 138.446 344.033 138.724C344.834 138.997 345.547 139.386 346.172 139.892C346.803 140.392 347.328 140.991 347.749 141.69C348.169 142.384 348.459 143.153 348.618 144H346.436ZM354.454 138.545V156H352.34V138.545H354.454ZM357.737 140.42V138.545H370.828V140.42H365.339V156H363.226V140.42H357.737ZM372.767 156H370.551L376.96 138.545H379.142L385.551 156H383.335L378.119 141.307H377.983L372.767 156ZM373.585 149.182H382.517V151.057H373.585V149.182ZM388.27 156V138.545H390.384V154.125H398.497V156H388.27ZM408.52 156V138.545H414.418C415.787 138.545 416.906 138.793 417.776 139.287C418.651 139.776 419.298 140.438 419.719 141.273C420.139 142.108 420.349 143.04 420.349 144.068C420.349 145.097 420.139 146.031 419.719 146.872C419.304 147.713 418.662 148.384 417.793 148.884C416.923 149.378 415.81 149.625 414.452 149.625H410.224V147.75H414.384C415.321 147.75 416.074 147.588 416.642 147.264C417.21 146.94 417.622 146.503 417.878 145.952C418.139 145.395 418.27 144.767 418.27 144.068C418.27 143.369 418.139 142.744 417.878 142.193C417.622 141.642 417.207 141.21 416.634 140.898C416.06 140.58 415.298 140.42 414.349 140.42H410.634V156H408.52ZM422.689 156H420.473L426.882 138.545H429.064L435.473 156H433.257L428.041 141.307H427.905L422.689 156ZM423.507 149.182H432.439V151.057H423.507V149.182ZM447.737 142.909C447.635 142.045 447.22 141.375 446.493 140.898C445.766 140.42 444.874 140.182 443.817 140.182C443.044 140.182 442.368 140.307 441.788 140.557C441.214 140.807 440.766 141.151 440.442 141.588C440.124 142.026 439.964 142.523 439.964 143.08C439.964 143.545 440.075 143.946 440.297 144.281C440.524 144.611 440.814 144.886 441.166 145.108C441.518 145.324 441.888 145.503 442.274 145.645C442.661 145.781 443.016 145.892 443.339 145.977L445.112 146.455C445.567 146.574 446.072 146.739 446.629 146.949C447.192 147.159 447.729 147.446 448.24 147.81C448.757 148.168 449.183 148.628 449.518 149.19C449.854 149.753 450.021 150.443 450.021 151.261C450.021 152.205 449.774 153.057 449.28 153.818C448.791 154.58 448.075 155.185 447.132 155.634C446.195 156.082 445.055 156.307 443.714 156.307C442.464 156.307 441.382 156.105 440.467 155.702C439.558 155.298 438.842 154.736 438.32 154.014C437.803 153.293 437.51 152.455 437.442 151.5H439.624C439.68 152.159 439.902 152.705 440.288 153.136C440.68 153.562 441.175 153.881 441.771 154.091C442.374 154.295 443.021 154.398 443.714 154.398C444.521 154.398 445.246 154.267 445.888 154.006C446.53 153.739 447.038 153.369 447.413 152.898C447.788 152.42 447.976 151.864 447.976 151.227C447.976 150.648 447.814 150.176 447.49 149.812C447.166 149.449 446.74 149.153 446.212 148.926C445.683 148.699 445.112 148.5 444.499 148.33L442.351 147.716C440.987 147.324 439.908 146.764 439.112 146.037C438.317 145.31 437.919 144.358 437.919 143.182C437.919 142.205 438.183 141.352 438.712 140.625C439.246 139.892 439.962 139.324 440.859 138.92C441.763 138.511 442.771 138.307 443.885 138.307C445.01 138.307 446.01 138.509 446.885 138.912C447.76 139.31 448.453 139.855 448.964 140.548C449.482 141.241 449.754 142.028 449.783 142.909H447.737ZM463.042 142.909C462.94 142.045 462.525 141.375 461.798 140.898C461.07 140.42 460.178 140.182 459.121 140.182C458.349 140.182 457.673 140.307 457.093 140.557C456.519 140.807 456.07 141.151 455.746 141.588C455.428 142.026 455.269 142.523 455.269 143.08C455.269 143.545 455.38 143.946 455.602 144.281C455.829 144.611 456.119 144.886 456.471 145.108C456.823 145.324 457.192 145.503 457.579 145.645C457.965 145.781 458.32 145.892 458.644 145.977L460.417 146.455C460.871 146.574 461.377 146.739 461.934 146.949C462.496 147.159 463.033 147.446 463.545 147.81C464.062 148.168 464.488 148.628 464.823 149.19C465.158 149.753 465.326 150.443 465.326 151.261C465.326 152.205 465.079 153.057 464.585 153.818C464.096 154.58 463.38 155.185 462.437 155.634C461.499 156.082 460.36 156.307 459.019 156.307C457.769 156.307 456.687 156.105 455.772 155.702C454.863 155.298 454.147 154.736 453.624 154.014C453.107 153.293 452.815 152.455 452.746 151.5H454.928C454.985 152.159 455.207 152.705 455.593 153.136C455.985 153.562 456.479 153.881 457.076 154.091C457.678 154.295 458.326 154.398 459.019 154.398C459.826 154.398 460.55 154.267 461.192 154.006C461.835 153.739 462.343 153.369 462.718 152.898C463.093 152.42 463.281 151.864 463.281 151.227C463.281 150.648 463.119 150.176 462.795 149.812C462.471 149.449 462.045 149.153 461.516 148.926C460.988 148.699 460.417 148.5 459.803 148.33L457.656 147.716C456.292 147.324 455.212 146.764 454.417 146.037C453.621 145.31 453.224 144.358 453.224 143.182C453.224 142.205 453.488 141.352 454.016 140.625C454.55 139.892 455.266 139.324 456.164 138.92C457.067 138.511 458.076 138.307 459.19 138.307C460.315 138.307 461.315 138.509 462.19 138.912C463.065 139.31 463.758 139.855 464.269 140.548C464.786 141.241 465.059 142.028 465.087 142.909H463.042Z" fill="black"/>
<path d="M271.057 178V169.273H274.108C274.716 169.273 275.217 169.378 275.612 169.588C276.007 169.795 276.301 170.075 276.494 170.428C276.688 170.777 276.784 171.165 276.784 171.591C276.784 171.966 276.717 172.276 276.584 172.52C276.453 172.764 276.28 172.957 276.064 173.099C275.851 173.241 275.619 173.347 275.369 173.415V173.5C275.636 173.517 275.905 173.611 276.175 173.781C276.445 173.952 276.67 174.196 276.852 174.514C277.034 174.832 277.125 175.222 277.125 175.682C277.125 176.119 277.026 176.513 276.827 176.862C276.628 177.212 276.314 177.489 275.885 177.693C275.456 177.898 274.898 178 274.21 178H271.057ZM272.114 177.062H274.21C274.901 177.062 275.391 176.929 275.68 176.662C275.973 176.392 276.119 176.065 276.119 175.682C276.119 175.386 276.044 175.114 275.893 174.864C275.743 174.611 275.528 174.409 275.25 174.259C274.972 174.105 274.642 174.028 274.261 174.028H272.114V177.062ZM272.114 173.108H274.074C274.392 173.108 274.679 173.045 274.935 172.92C275.193 172.795 275.398 172.619 275.548 172.392C275.702 172.165 275.778 171.898 275.778 171.591C275.778 171.207 275.645 170.882 275.378 170.615C275.111 170.345 274.688 170.21 274.108 170.21H272.114V173.108ZM278.112 169.273H279.322L281.742 173.347H281.844L284.265 169.273H285.475L282.322 174.403V178H281.265V174.403L278.112 169.273ZM290.217 178V169.273H291.274V177.062H295.331V178H290.217ZM296.967 178V169.273H302.234V170.21H298.024V173.159H301.961V174.097H298.024V177.062H302.302V178H296.967ZM304.497 178H303.389L306.593 169.273H307.684L310.889 178H309.781L307.173 170.653H307.105L304.497 178ZM304.906 174.591H309.372V175.528H304.906V174.591ZM312.248 178V169.273H315.197C315.879 169.273 316.439 169.389 316.876 169.622C317.314 169.852 317.637 170.169 317.848 170.572C318.058 170.976 318.163 171.435 318.163 171.949C318.163 172.463 318.058 172.919 317.848 173.317C317.637 173.714 317.315 174.027 316.88 174.254C316.446 174.479 315.89 174.591 315.214 174.591H312.828V173.636H315.18C315.646 173.636 316.021 173.568 316.305 173.432C316.592 173.295 316.799 173.102 316.927 172.852C317.058 172.599 317.123 172.298 317.123 171.949C317.123 171.599 317.058 171.294 316.927 171.033C316.797 170.771 316.588 170.57 316.301 170.428C316.014 170.283 315.635 170.21 315.163 170.21H313.305V178H312.248ZM316.356 174.08L318.504 178H317.277L315.163 174.08H316.356ZM326.844 169.273V178H325.822L321.066 171.148H320.981V178H319.924V169.273H320.947L325.719 176.142H325.805V169.273H326.844ZM332.334 178V169.273H337.601V170.21H333.391V173.159H337.328V174.097H333.391V177.062H337.669V178H332.334ZM342.199 178H339.506V169.273H342.319C343.165 169.273 343.89 169.447 344.492 169.797C345.094 170.143 345.556 170.642 345.877 171.293C346.198 171.94 346.358 172.716 346.358 173.619C346.358 174.528 346.196 175.311 345.873 175.967C345.549 176.621 345.077 177.124 344.458 177.476C343.838 177.825 343.086 178 342.199 178ZM340.563 177.062H342.131C342.853 177.062 343.451 176.923 343.925 176.645C344.4 176.366 344.753 175.97 344.986 175.456C345.219 174.942 345.336 174.33 345.336 173.619C345.336 172.915 345.221 172.308 344.99 171.8C344.76 171.288 344.417 170.896 343.959 170.624C343.502 170.348 342.932 170.21 342.25 170.21H340.563V177.062ZM353.858 169.273H354.915V175.051C354.915 175.648 354.775 176.18 354.493 176.649C354.215 177.115 353.821 177.483 353.313 177.753C352.804 178.02 352.208 178.153 351.523 178.153C350.838 178.153 350.242 178.02 349.733 177.753C349.225 177.483 348.83 177.115 348.549 176.649C348.27 176.18 348.131 175.648 348.131 175.051V169.273H349.188V174.966C349.188 175.392 349.282 175.771 349.469 176.104C349.657 176.433 349.924 176.693 350.27 176.884C350.62 177.071 351.037 177.165 351.523 177.165C352.009 177.165 352.426 177.071 352.776 176.884C353.125 176.693 353.392 176.433 353.577 176.104C353.765 175.771 353.858 175.392 353.858 174.966V169.273ZM364.048 172H362.991C362.929 171.696 362.82 171.429 362.663 171.199C362.51 170.969 362.322 170.776 362.101 170.619C361.882 170.46 361.639 170.341 361.372 170.261C361.105 170.182 360.827 170.142 360.537 170.142C360.009 170.142 359.53 170.276 359.101 170.543C358.675 170.81 358.335 171.203 358.082 171.723C357.832 172.243 357.707 172.881 357.707 173.636C357.707 174.392 357.832 175.03 358.082 175.55C358.335 176.07 358.675 176.463 359.101 176.73C359.53 176.997 360.009 177.131 360.537 177.131C360.827 177.131 361.105 177.091 361.372 177.011C361.639 176.932 361.882 176.814 362.101 176.658C362.322 176.499 362.51 176.304 362.663 176.074C362.82 175.841 362.929 175.574 362.991 175.273H364.048C363.969 175.719 363.824 176.118 363.614 176.47C363.403 176.822 363.142 177.122 362.83 177.369C362.517 177.614 362.166 177.8 361.777 177.928C361.391 178.055 360.977 178.119 360.537 178.119C359.793 178.119 359.131 177.938 358.551 177.574C357.972 177.21 357.516 176.693 357.183 176.023C356.851 175.352 356.685 174.557 356.685 173.636C356.685 172.716 356.851 171.92 357.183 171.25C357.516 170.58 357.972 170.062 358.551 169.699C359.131 169.335 359.793 169.153 360.537 169.153C360.977 169.153 361.391 169.217 361.777 169.345C362.166 169.473 362.517 169.661 362.83 169.908C363.142 170.152 363.403 170.45 363.614 170.803C363.824 171.152 363.969 171.551 364.048 172ZM366.114 178H365.006L368.211 169.273H369.301L372.506 178H371.398L368.79 170.653H368.722L366.114 178ZM366.523 174.591H370.989V175.528H366.523V174.591ZM372.369 170.21V169.273H378.914V170.21H376.17V178H375.113V170.21H372.369ZM381.602 169.273V178H380.545V169.273H381.602ZM391.085 173.636C391.085 174.557 390.918 175.352 390.586 176.023C390.254 176.693 389.798 177.21 389.218 177.574C388.638 177.938 387.977 178.119 387.232 178.119C386.488 178.119 385.826 177.938 385.246 177.574C384.667 177.21 384.211 176.693 383.879 176.023C383.546 175.352 383.38 174.557 383.38 173.636C383.38 172.716 383.546 171.92 383.879 171.25C384.211 170.58 384.667 170.062 385.246 169.699C385.826 169.335 386.488 169.153 387.232 169.153C387.977 169.153 388.638 169.335 389.218 169.699C389.798 170.062 390.254 170.58 390.586 171.25C390.918 171.92 391.085 172.716 391.085 173.636ZM390.062 173.636C390.062 172.881 389.935 172.243 389.683 171.723C389.433 171.203 389.093 170.81 388.664 170.543C388.238 170.276 387.761 170.142 387.232 170.142C386.704 170.142 386.225 170.276 385.796 170.543C385.37 170.81 385.031 171.203 384.778 171.723C384.528 172.243 384.403 172.881 384.403 173.636C384.403 174.392 384.528 175.03 384.778 175.55C385.031 176.07 385.37 176.463 385.796 176.73C386.225 176.997 386.704 177.131 387.232 177.131C387.761 177.131 388.238 176.997 388.664 176.73C389.093 176.463 389.433 176.07 389.683 175.55C389.935 175.03 390.062 174.392 390.062 173.636ZM399.782 169.273V178H398.759L394.004 171.148H393.918V178H392.862V169.273H393.884L398.657 176.142H398.742V169.273H399.782Z" fill="black"/>
<rect x="196" y="127" width="61" height="61" rx="16" fill="#CACDE9"/>
<g filter="url(#filter3_dii_218_350)">
<path d="M228.665 144.383L227.153 141.396C226.904 140.877 226.122 140.859 225.847 141.396L224.335 144.383L220.984 144.852C220.388 144.94 220.132 145.658 220.574 146.089L223.009 148.402L222.432 151.658C222.342 152.239 222.957 152.689 223.508 152.42L226.513 150.87L229.498 152.395C230.049 152.664 230.67 152.214 230.574 151.633L229.998 148.377L232.432 146.089C232.868 145.665 232.618 144.946 232.022 144.852L228.672 144.383H228.665ZM222.4 157.001C221.266 157.001 220.35 157.895 220.35 159.001V171C220.35 172.106 221.266 173 222.4 173H230.6C231.734 173 232.65 172.106 232.65 171V159.001C232.65 157.895 231.734 157.001 230.6 157.001H222.4ZM208.05 161.001C206.916 161.001 206 161.895 206 163.001V171C206 172.106 206.916 173 208.05 173H216.25C217.384 173 218.3 172.106 218.3 171V163.001C218.3 161.895 217.384 161.001 216.25 161.001H208.05ZM234.7 167V171C234.7 172.106 235.616 173 236.75 173H244.95C246.084 173 247 172.106 247 171V167C247 165.894 246.084 165.001 244.95 165.001H236.75C235.616 165.001 234.7 165.894 234.7 167Z" fill="url(#paint5_linear_218_350)"/>
</g>
<g filter="url(#filter4_df_218_350)">
<rect x="231" y="202" width="334" height="209" rx="24" fill="url(#paint6_linear_218_350)" fill-opacity="0.75" shape-rendering="crispEdges"/>
<rect x="231.5" y="202.5" width="333" height="208" rx="23.5" stroke="url(#paint7_linear_218_350)" shape-rendering="crispEdges"/>
</g>
<rect x="266.5" y="302.5" width="261" height="16" rx="8" fill="white" fill-opacity="0.6" stroke="#FDC500"/>
<rect x="265.5" y="325.5" width="141" height="16" rx="8" fill="white" fill-opacity="0.6" stroke="#FDC500"/>
<rect x="265.5" y="347.5" width="192" height="16" rx="8" fill="white" fill-opacity="0.6" stroke="#FDC500"/>
<rect x="266.5" y="370.5" width="247" height="16" rx="8" fill="white" fill-opacity="0.6" stroke="#FDC500"/>
<path d="M345.659 242.909C345.557 242.045 345.142 241.375 344.415 240.898C343.688 240.42 342.795 240.182 341.739 240.182C340.966 240.182 340.29 240.307 339.71 240.557C339.136 240.807 338.688 241.151 338.364 241.588C338.045 242.026 337.886 242.523 337.886 243.08C337.886 243.545 337.997 243.946 338.219 244.281C338.446 244.611 338.736 244.886 339.088 245.108C339.44 245.324 339.81 245.503 340.196 245.645C340.582 245.781 340.938 245.892 341.261 245.977L343.034 246.455C343.489 246.574 343.994 246.739 344.551 246.949C345.114 247.159 345.651 247.446 346.162 247.81C346.679 248.168 347.105 248.628 347.44 249.19C347.776 249.753 347.943 250.443 347.943 251.261C347.943 252.205 347.696 253.057 347.202 253.818C346.713 254.58 345.997 255.185 345.054 255.634C344.116 256.082 342.977 256.307 341.636 256.307C340.386 256.307 339.304 256.105 338.389 255.702C337.48 255.298 336.764 254.736 336.241 254.014C335.724 253.293 335.432 252.455 335.364 251.5H337.545C337.602 252.159 337.824 252.705 338.21 253.136C338.602 253.562 339.097 253.881 339.693 254.091C340.295 254.295 340.943 254.398 341.636 254.398C342.443 254.398 343.168 254.267 343.81 254.006C344.452 253.739 344.96 253.369 345.335 252.898C345.71 252.42 345.898 251.864 345.898 251.227C345.898 250.648 345.736 250.176 345.412 249.812C345.088 249.449 344.662 249.153 344.134 248.926C343.605 248.699 343.034 248.5 342.42 248.33L340.273 247.716C338.909 247.324 337.83 246.764 337.034 246.037C336.239 245.31 335.841 244.358 335.841 243.182C335.841 242.205 336.105 241.352 336.634 240.625C337.168 239.892 337.884 239.324 338.781 238.92C339.685 238.511 340.693 238.307 341.807 238.307C342.932 238.307 343.932 238.509 344.807 238.912C345.682 239.31 346.375 239.855 346.886 240.548C347.403 241.241 347.676 242.028 347.705 242.909H345.659ZM360.964 242.909C360.862 242.045 360.447 241.375 359.719 240.898C358.992 240.42 358.1 240.182 357.043 240.182C356.271 240.182 355.594 240.307 355.015 240.557C354.441 240.807 353.992 241.151 353.668 241.588C353.35 242.026 353.191 242.523 353.191 243.08C353.191 243.545 353.302 243.946 353.523 244.281C353.751 244.611 354.04 244.886 354.393 245.108C354.745 245.324 355.114 245.503 355.501 245.645C355.887 245.781 356.242 245.892 356.566 245.977L358.339 246.455C358.793 246.574 359.299 246.739 359.856 246.949C360.418 247.159 360.955 247.446 361.467 247.81C361.984 248.168 362.41 248.628 362.745 249.19C363.08 249.753 363.248 250.443 363.248 251.261C363.248 252.205 363.001 253.057 362.506 253.818C362.018 254.58 361.302 255.185 360.359 255.634C359.421 256.082 358.282 256.307 356.941 256.307C355.691 256.307 354.609 256.105 353.694 255.702C352.785 255.298 352.069 254.736 351.546 254.014C351.029 253.293 350.737 252.455 350.668 251.5H352.85C352.907 252.159 353.129 252.705 353.515 253.136C353.907 253.562 354.401 253.881 354.998 254.091C355.6 254.295 356.248 254.398 356.941 254.398C357.748 254.398 358.472 254.267 359.114 254.006C359.756 253.739 360.265 253.369 360.64 252.898C361.015 252.42 361.202 251.864 361.202 251.227C361.202 250.648 361.04 250.176 360.717 249.812C360.393 249.449 359.967 249.153 359.438 248.926C358.91 248.699 358.339 248.5 357.725 248.33L355.577 247.716C354.214 247.324 353.134 246.764 352.339 246.037C351.543 245.31 351.146 244.358 351.146 243.182C351.146 242.205 351.41 241.352 351.938 240.625C352.472 239.892 353.188 239.324 354.086 238.92C354.989 238.511 355.998 238.307 357.112 238.307C358.237 238.307 359.237 238.509 360.112 238.912C360.987 239.31 361.68 239.855 362.191 240.548C362.708 241.241 362.981 242.028 363.009 242.909H360.964ZM378.859 256H373.473V238.545H379.098C380.791 238.545 382.24 238.895 383.445 239.594C384.649 240.287 385.572 241.284 386.214 242.585C386.857 243.881 387.178 245.432 387.178 247.239C387.178 249.057 386.854 250.622 386.206 251.935C385.558 253.241 384.615 254.247 383.376 254.952C382.138 255.651 380.632 256 378.859 256ZM375.587 254.125H378.723C380.166 254.125 381.362 253.847 382.311 253.29C383.26 252.733 383.967 251.94 384.433 250.912C384.899 249.884 385.132 248.659 385.132 247.239C385.132 245.83 384.902 244.616 384.442 243.599C383.982 242.577 383.294 241.793 382.379 241.247C381.464 240.696 380.325 240.42 378.962 240.42H375.587V254.125ZM392.837 238.545V256H390.723V238.545H392.837ZM409.006 244C408.819 243.426 408.572 242.912 408.265 242.457C407.964 241.997 407.603 241.605 407.183 241.281C406.768 240.957 406.296 240.71 405.768 240.54C405.239 240.369 404.66 240.284 404.029 240.284C402.995 240.284 402.055 240.551 401.208 241.085C400.362 241.619 399.688 242.406 399.188 243.446C398.688 244.486 398.438 245.761 398.438 247.273C398.438 248.784 398.691 250.06 399.197 251.099C399.702 252.139 400.387 252.926 401.251 253.46C402.114 253.994 403.086 254.261 404.165 254.261C405.165 254.261 406.046 254.048 406.808 253.622C407.575 253.19 408.171 252.582 408.597 251.798C409.029 251.009 409.245 250.08 409.245 249.011L409.893 249.148H404.643V247.273H411.29V249.148C411.29 250.585 410.984 251.835 410.37 252.898C409.762 253.96 408.921 254.784 407.847 255.369C406.779 255.949 405.552 256.239 404.165 256.239C402.62 256.239 401.262 255.875 400.092 255.148C398.927 254.42 398.018 253.386 397.364 252.045C396.717 250.705 396.393 249.114 396.393 247.273C396.393 245.892 396.577 244.651 396.947 243.548C397.322 242.44 397.85 241.497 398.532 240.719C399.214 239.94 400.021 239.344 400.952 238.929C401.884 238.514 402.91 238.307 404.029 238.307C404.95 238.307 405.808 238.446 406.603 238.724C407.404 238.997 408.117 239.386 408.742 239.892C409.373 240.392 409.898 240.991 410.319 241.69C410.739 242.384 411.029 243.153 411.188 244H409.006ZM417.024 238.545V256H414.911V238.545H417.024ZM420.308 240.42V238.545H433.398V240.42H427.91V256H425.796V240.42H420.308ZM435.337 256H433.121L439.531 238.545H441.712L448.121 256H445.906L440.69 241.307H440.553L435.337 256ZM436.156 249.182H445.087V251.057H436.156V249.182ZM450.84 256V238.545H452.954V254.125H461.067V256H450.84ZM471.09 256V238.545H476.988C478.357 238.545 479.477 238.793 480.346 239.287C481.221 239.776 481.869 240.438 482.289 241.273C482.71 242.108 482.92 243.04 482.92 244.068C482.92 245.097 482.71 246.031 482.289 246.872C481.874 247.713 481.232 248.384 480.363 248.884C479.494 249.378 478.38 249.625 477.022 249.625H472.795V247.75H476.954C477.891 247.75 478.644 247.588 479.212 247.264C479.781 246.94 480.192 246.503 480.448 245.952C480.71 245.395 480.84 244.767 480.84 244.068C480.84 243.369 480.71 242.744 480.448 242.193C480.192 241.642 479.778 241.21 479.204 240.898C478.63 240.58 477.869 240.42 476.92 240.42H473.204V256H471.09ZM485.259 256H483.043L489.452 238.545H491.634L498.043 256H495.827L490.612 241.307H490.475L485.259 256ZM486.077 249.182H495.009V251.057H486.077V249.182ZM510.308 242.909C510.205 242.045 509.79 241.375 509.063 240.898C508.336 240.42 507.444 240.182 506.387 240.182C505.614 240.182 504.938 240.307 504.359 240.557C503.785 240.807 503.336 241.151 503.012 241.588C502.694 242.026 502.535 242.523 502.535 243.08C502.535 243.545 502.646 243.946 502.867 244.281C503.094 244.611 503.384 244.886 503.737 245.108C504.089 245.324 504.458 245.503 504.844 245.645C505.231 245.781 505.586 245.892 505.91 245.977L507.683 246.455C508.137 246.574 508.643 246.739 509.2 246.949C509.762 247.159 510.299 247.446 510.81 247.81C511.327 248.168 511.754 248.628 512.089 249.19C512.424 249.753 512.592 250.443 512.592 251.261C512.592 252.205 512.344 253.057 511.85 253.818C511.362 254.58 510.646 255.185 509.702 255.634C508.765 256.082 507.626 256.307 506.285 256.307C505.035 256.307 503.952 256.105 503.038 255.702C502.129 255.298 501.413 254.736 500.89 254.014C500.373 253.293 500.08 252.455 500.012 251.5H502.194C502.251 252.159 502.472 252.705 502.859 253.136C503.251 253.562 503.745 253.881 504.342 254.091C504.944 254.295 505.592 254.398 506.285 254.398C507.092 254.398 507.816 254.267 508.458 254.006C509.1 253.739 509.609 253.369 509.984 252.898C510.359 252.42 510.546 251.864 510.546 251.227C510.546 250.648 510.384 250.176 510.06 249.812C509.737 249.449 509.31 249.153 508.782 248.926C508.254 248.699 507.683 248.5 507.069 248.33L504.921 247.716C503.558 247.324 502.478 246.764 501.683 246.037C500.887 245.31 500.489 244.358 500.489 243.182C500.489 242.205 500.754 241.352 501.282 240.625C501.816 239.892 502.532 239.324 503.43 238.92C504.333 238.511 505.342 238.307 506.455 238.307C507.58 238.307 508.58 238.509 509.455 238.912C510.33 239.31 511.023 239.855 511.535 240.548C512.052 241.241 512.325 242.028 512.353 242.909H510.308ZM525.612 242.909C525.51 242.045 525.095 241.375 524.368 240.898C523.641 240.42 522.749 240.182 521.692 240.182C520.919 240.182 520.243 240.307 519.663 240.557C519.089 240.807 518.641 241.151 518.317 241.588C517.999 242.026 517.839 242.523 517.839 243.08C517.839 243.545 517.95 243.946 518.172 244.281C518.399 244.611 518.689 244.886 519.041 245.108C519.393 245.324 519.763 245.503 520.149 245.645C520.536 245.781 520.891 245.892 521.214 245.977L522.987 246.455C523.442 246.574 523.947 246.739 524.504 246.949C525.067 247.159 525.604 247.446 526.115 247.81C526.632 248.168 527.058 248.628 527.393 249.19C527.729 249.753 527.896 250.443 527.896 251.261C527.896 252.205 527.649 253.057 527.155 253.818C526.666 254.58 525.95 255.185 525.007 255.634C524.07 256.082 522.93 256.307 521.589 256.307C520.339 256.307 519.257 256.105 518.342 255.702C517.433 255.298 516.717 254.736 516.195 254.014C515.678 253.293 515.385 252.455 515.317 251.5H517.499C517.555 252.159 517.777 252.705 518.163 253.136C518.555 253.562 519.05 253.881 519.646 254.091C520.249 254.295 520.896 254.398 521.589 254.398C522.396 254.398 523.121 254.267 523.763 254.006C524.405 253.739 524.913 253.369 525.288 252.898C525.663 252.42 525.851 251.864 525.851 251.227C525.851 250.648 525.689 250.176 525.365 249.812C525.041 249.449 524.615 249.153 524.087 248.926C523.558 248.699 522.987 248.5 522.374 248.33L520.226 247.716C518.862 247.324 517.783 246.764 516.987 246.037C516.192 245.31 515.794 244.358 515.794 243.182C515.794 242.205 516.058 241.352 516.587 240.625C517.121 239.892 517.837 239.324 518.734 238.92C519.638 238.511 520.646 238.307 521.76 238.307C522.885 238.307 523.885 238.509 524.76 238.912C525.635 239.31 526.328 239.855 526.839 240.548C527.357 241.241 527.629 242.028 527.658 242.909H525.612Z" fill="black"/>
<path d="M335.057 278V269.273H338.108C338.716 269.273 339.217 269.378 339.612 269.588C340.007 269.795 340.301 270.075 340.494 270.428C340.688 270.777 340.784 271.165 340.784 271.591C340.784 271.966 340.717 272.276 340.584 272.52C340.453 272.764 340.28 272.957 340.064 273.099C339.851 273.241 339.619 273.347 339.369 273.415V273.5C339.636 273.517 339.905 273.611 340.175 273.781C340.445 273.952 340.67 274.196 340.852 274.514C341.034 274.832 341.125 275.222 341.125 275.682C341.125 276.119 341.026 276.513 340.827 276.862C340.628 277.212 340.314 277.489 339.885 277.693C339.456 277.898 338.898 278 338.21 278H335.057ZM336.114 277.062H338.21C338.901 277.062 339.391 276.929 339.68 276.662C339.973 276.392 340.119 276.065 340.119 275.682C340.119 275.386 340.044 275.114 339.893 274.864C339.743 274.611 339.528 274.409 339.25 274.259C338.972 274.105 338.642 274.028 338.261 274.028H336.114V277.062ZM336.114 273.108H338.074C338.392 273.108 338.679 273.045 338.935 272.92C339.193 272.795 339.398 272.619 339.548 272.392C339.702 272.165 339.778 271.898 339.778 271.591C339.778 271.207 339.645 270.882 339.378 270.615C339.111 270.345 338.688 270.21 338.108 270.21H336.114V273.108ZM342.112 269.273H343.322L345.742 273.347H345.844L348.265 269.273H349.475L346.322 274.403V278H345.265V274.403L342.112 269.273ZM358.99 271.455C358.939 271.023 358.731 270.688 358.368 270.449C358.004 270.21 357.558 270.091 357.029 270.091C356.643 270.091 356.305 270.153 356.015 270.278C355.728 270.403 355.504 270.575 355.342 270.794C355.183 271.013 355.103 271.261 355.103 271.54C355.103 271.773 355.159 271.973 355.27 272.141C355.383 272.305 355.528 272.443 355.704 272.554C355.88 272.662 356.065 272.751 356.258 272.822C356.451 272.891 356.629 272.946 356.791 272.989L357.677 273.227C357.904 273.287 358.157 273.369 358.436 273.474C358.717 273.58 358.985 273.723 359.241 273.905C359.5 274.084 359.713 274.314 359.88 274.595C360.048 274.876 360.132 275.222 360.132 275.631C360.132 276.102 360.008 276.528 359.761 276.909C359.517 277.29 359.159 277.592 358.687 277.817C358.218 278.041 357.649 278.153 356.978 278.153C356.353 278.153 355.812 278.053 355.355 277.851C354.9 277.649 354.542 277.368 354.281 277.007C354.022 276.646 353.876 276.227 353.842 275.75H354.933C354.961 276.08 355.072 276.352 355.265 276.568C355.461 276.781 355.708 276.94 356.007 277.045C356.308 277.148 356.632 277.199 356.978 277.199C357.382 277.199 357.744 277.134 358.065 277.003C358.386 276.869 358.64 276.685 358.828 276.449C359.015 276.21 359.109 275.932 359.109 275.614C359.109 275.324 359.028 275.088 358.866 274.906C358.704 274.724 358.491 274.577 358.227 274.463C357.963 274.349 357.677 274.25 357.37 274.165L356.297 273.858C355.615 273.662 355.075 273.382 354.677 273.018C354.279 272.655 354.081 272.179 354.081 271.591C354.081 271.102 354.213 270.676 354.477 270.312C354.744 269.946 355.102 269.662 355.551 269.46C356.002 269.256 356.507 269.153 357.064 269.153C357.626 269.153 358.126 269.254 358.564 269.456C359.001 269.655 359.348 269.928 359.603 270.274C359.862 270.621 359.998 271.014 360.012 271.455H358.99ZM368.79 269.273V278H367.767L363.011 271.148H362.926V278H361.869V269.273H362.892L367.665 276.142H367.75V269.273H368.79ZM371.262 278H370.154L373.359 269.273H374.45L377.654 278H376.547L373.939 270.653H373.87L371.262 278ZM371.672 274.591H376.137V275.528H371.672V274.591ZM379.014 278V269.273H381.963C382.647 269.273 383.207 269.396 383.642 269.643C384.079 269.888 384.403 270.219 384.613 270.636C384.824 271.054 384.929 271.52 384.929 272.034C384.929 272.548 384.824 273.016 384.613 273.436C384.406 273.857 384.085 274.192 383.65 274.442C383.216 274.689 382.659 274.812 381.98 274.812H379.866V273.875H381.946C382.414 273.875 382.791 273.794 383.075 273.632C383.359 273.47 383.565 273.251 383.693 272.976C383.824 272.697 383.889 272.384 383.889 272.034C383.889 271.685 383.824 271.372 383.693 271.097C383.565 270.821 383.358 270.605 383.071 270.449C382.784 270.29 382.403 270.21 381.929 270.21H380.071V278H379.014ZM386.631 278V269.273H389.58C390.265 269.273 390.824 269.396 391.259 269.643C391.696 269.888 392.02 270.219 392.23 270.636C392.441 271.054 392.546 271.52 392.546 272.034C392.546 272.548 392.441 273.016 392.23 273.436C392.023 273.857 391.702 274.192 391.267 274.442C390.833 274.689 390.276 274.812 389.597 274.812H387.483V273.875H389.563C390.032 273.875 390.408 273.794 390.692 273.632C390.976 273.47 391.182 273.251 391.31 272.976C391.441 272.697 391.506 272.384 391.506 272.034C391.506 271.685 391.441 271.372 391.31 271.097C391.182 270.821 390.975 270.605 390.688 270.449C390.401 270.29 390.02 270.21 389.546 270.21H387.688V278H386.631ZM393.498 269.273H394.708L397.129 273.347H397.231L399.652 269.273H400.862L397.708 274.403V278H396.652V274.403L393.498 269.273ZM410.376 271.455C410.325 271.023 410.118 270.688 409.754 270.449C409.391 270.21 408.945 270.091 408.416 270.091C408.03 270.091 407.692 270.153 407.402 270.278C407.115 270.403 406.891 270.575 406.729 270.794C406.57 271.013 406.49 271.261 406.49 271.54C406.49 271.773 406.545 271.973 406.656 272.141C406.77 272.305 406.915 272.443 407.091 272.554C407.267 272.662 407.452 272.751 407.645 272.822C407.838 272.891 408.016 272.946 408.178 272.989L409.064 273.227C409.291 273.287 409.544 273.369 409.822 273.474C410.104 273.58 410.372 273.723 410.628 273.905C410.886 274.084 411.099 274.314 411.267 274.595C411.435 274.876 411.518 275.222 411.518 275.631C411.518 276.102 411.395 276.528 411.148 276.909C410.903 277.29 410.545 277.592 410.074 277.817C409.605 278.041 409.036 278.153 408.365 278.153C407.74 278.153 407.199 278.053 406.741 277.851C406.287 277.649 405.929 277.368 405.668 277.007C405.409 276.646 405.263 276.227 405.229 275.75H406.32C406.348 276.08 406.459 276.352 406.652 276.568C406.848 276.781 407.095 276.94 407.393 277.045C407.695 277.148 408.018 277.199 408.365 277.199C408.768 277.199 409.131 277.134 409.452 277.003C409.773 276.869 410.027 276.685 410.214 276.449C410.402 276.21 410.496 275.932 410.496 275.614C410.496 275.324 410.415 275.088 410.253 274.906C410.091 274.724 409.878 274.577 409.614 274.463C409.349 274.349 409.064 274.25 408.757 274.165L407.683 273.858C407.001 273.662 406.462 273.382 406.064 273.018C405.666 272.655 405.467 272.179 405.467 271.591C405.467 271.102 405.599 270.676 405.864 270.312C406.131 269.946 406.489 269.662 406.938 269.46C407.389 269.256 407.893 269.153 408.45 269.153C409.013 269.153 409.513 269.254 409.95 269.456C410.388 269.655 410.734 269.928 410.99 270.274C411.249 270.621 411.385 271.014 411.399 271.455H410.376ZM420.176 269.273V278H419.154L414.398 271.148H414.313V278H413.256V269.273H414.279L419.051 276.142H419.137V269.273H420.176ZM422.291 278V269.273H427.558V270.21H423.348V273.159H427.286V274.097H423.348V277.062H427.626V278H422.291ZM429.821 278H428.713L431.918 269.273H433.009L436.213 278H435.105L432.497 270.653H432.429L429.821 278ZM430.23 274.591H434.696V275.528H430.23V274.591ZM437.572 278V269.273H438.629V273.602H438.732L442.652 269.273H444.033L440.368 273.21L444.033 278H442.754L439.72 273.943L438.629 275.17V278H437.572ZM445.401 278V269.273H450.668V270.21H446.457V273.159H450.395V274.097H446.457V277.062H450.736V278H445.401ZM452.572 278V269.273H455.521C456.203 269.273 456.763 269.389 457.2 269.622C457.638 269.852 457.962 270.169 458.172 270.572C458.382 270.976 458.487 271.435 458.487 271.949C458.487 272.463 458.382 272.919 458.172 273.317C457.962 273.714 457.639 274.027 457.205 274.254C456.77 274.479 456.214 274.591 455.538 274.591H453.152V273.636H455.504C455.97 273.636 456.345 273.568 456.629 273.432C456.916 273.295 457.124 273.102 457.251 272.852C457.382 272.599 457.447 272.298 457.447 271.949C457.447 271.599 457.382 271.294 457.251 271.033C457.121 270.771 456.912 270.57 456.625 270.428C456.338 270.283 455.959 270.21 455.487 270.21H453.629V278H452.572ZM456.68 274.08L458.828 278H457.601L455.487 274.08H456.68Z" fill="black"/>
<rect x="260" y="226" width="61" height="61" rx="16" fill="#FDC500"/>
<g filter="url(#filter5_dii_218_350)">
<path d="M296.65 240C292.569 240 286.4 242.062 286.4 242.062V250.312C289.475 250.312 291.269 251.344 293.062 252.375C294.856 253.406 296.65 254.438 299.725 254.438C303.338 254.438 311 253.406 311 248.25C311 243.094 302.8 240 296.65 240ZM278.2 246.188C278.2 248.463 280.039 250.312 282.3 250.312H284.35V242.062H282.3C280.039 242.062 278.2 243.912 278.2 246.188ZM288.45 273C294.6 273 302.8 269.906 302.8 264.75C302.8 259.594 295.138 258.562 291.525 258.562C288.45 258.562 286.656 259.594 284.862 260.625C283.069 261.656 281.275 262.688 278.2 262.688V270.938C278.2 270.938 284.369 273 288.45 273ZM270 266.812C270 269.088 271.839 270.938 274.1 270.938H276.15V262.688H274.1C271.839 262.688 270 264.537 270 266.812Z" fill="url(#paint8_linear_218_350)"/>
</g>
<g filter="url(#filter6_df_218_350)">
<rect x="125" y="340" width="334" height="209" rx="24" fill="url(#paint9_linear_218_350)" fill-opacity="0.75" shape-rendering="crispEdges"/>
<rect x="125.5" y="340.5" width="333" height="208" rx="23.5" stroke="url(#paint10_linear_218_350)" shape-rendering="crispEdges"/>
</g>
<rect x="160" y="440" width="262" height="17" rx="8.5" fill="white" fill-opacity="0.6"/>
<rect x="160.5" y="440.5" width="261" height="16" rx="8" stroke="#712396" stroke-opacity="0.5"/>
<rect x="159" y="463" width="142" height="17" rx="8.5" fill="white" fill-opacity="0.6"/>
<rect x="159.5" y="463.5" width="141" height="16" rx="8" stroke="#712396" stroke-opacity="0.5"/>
<rect x="159" y="485" width="193" height="17" rx="8.5" fill="white" fill-opacity="0.6"/>
<rect x="159.5" y="485.5" width="192" height="16" rx="8" stroke="#712396" stroke-opacity="0.5"/>
<rect x="160" y="508" width="248" height="17" rx="8.5" fill="white" fill-opacity="0.6"/>
<rect x="160.5" y="508.5" width="247" height="16" rx="8" stroke="#712396" stroke-opacity="0.5"/>
<path d="M230.114 393V375.545H236.011C237.375 375.545 238.494 375.778 239.369 376.244C240.244 376.705 240.892 377.338 241.312 378.145C241.733 378.952 241.943 379.869 241.943 380.898C241.943 381.926 241.733 382.838 241.312 383.634C240.892 384.429 240.247 385.054 239.378 385.509C238.509 385.957 237.398 386.182 236.045 386.182H231.273V384.273H235.977C236.909 384.273 237.659 384.136 238.227 383.864C238.801 383.591 239.216 383.205 239.472 382.705C239.733 382.199 239.864 381.597 239.864 380.898C239.864 380.199 239.733 379.588 239.472 379.065C239.21 378.543 238.793 378.139 238.219 377.855C237.645 377.565 236.886 377.42 235.943 377.42H232.227V393H230.114ZM238.33 385.159L242.625 393H240.17L235.943 385.159H238.33ZM245.465 393V375.545H255.999V377.42H247.579V383.318H255.454V385.193H247.579V391.125H256.136V393H245.465ZM262.979 393L258.207 375.545H260.354L264.002 389.761H264.173L267.888 375.545H270.275L273.991 389.761H274.161L277.809 375.545H279.957L275.184 393H273.002L269.15 379.091H269.013L265.161 393H262.979ZM281.947 393H279.731L286.14 375.545H288.322L294.731 393H292.515L287.299 378.307H287.163L281.947 393ZM282.765 386.182H291.697V388.057H282.765V386.182ZM297.45 393V375.545H303.347C304.711 375.545 305.83 375.778 306.705 376.244C307.58 376.705 308.228 377.338 308.648 378.145C309.069 378.952 309.279 379.869 309.279 380.898C309.279 381.926 309.069 382.838 308.648 383.634C308.228 384.429 307.583 385.054 306.714 385.509C305.844 385.957 304.734 386.182 303.381 386.182H298.609V384.273H303.313C304.245 384.273 304.995 384.136 305.563 383.864C306.137 383.591 306.552 383.205 306.808 382.705C307.069 382.199 307.2 381.597 307.2 380.898C307.2 380.199 307.069 379.588 306.808 379.065C306.546 378.543 306.129 378.139 305.555 377.855C304.981 377.565 304.222 377.42 303.279 377.42H299.563V393H297.45ZM305.665 385.159L309.961 393H307.506L303.279 385.159H305.665ZM318.188 393H312.801V375.545H318.426C320.119 375.545 321.568 375.895 322.773 376.594C323.977 377.287 324.901 378.284 325.543 379.585C326.185 380.881 326.506 382.432 326.506 384.239C326.506 386.057 326.182 387.622 325.534 388.935C324.886 390.241 323.943 391.247 322.705 391.952C321.466 392.651 319.96 393 318.188 393ZM314.915 391.125H318.051C319.494 391.125 320.69 390.847 321.639 390.29C322.588 389.733 323.295 388.94 323.761 387.912C324.227 386.884 324.46 385.659 324.46 384.239C324.46 382.83 324.23 381.616 323.77 380.599C323.31 379.577 322.622 378.793 321.707 378.247C320.793 377.696 319.653 377.42 318.29 377.42H314.915V391.125ZM336.801 393V375.545H342.699C344.068 375.545 345.188 375.793 346.057 376.287C346.932 376.776 347.58 377.438 348 378.273C348.42 379.108 348.631 380.04 348.631 381.068C348.631 382.097 348.42 383.031 348 383.872C347.585 384.713 346.943 385.384 346.074 385.884C345.205 386.378 344.091 386.625 342.733 386.625H338.506V384.75H342.665C343.602 384.75 344.355 384.588 344.923 384.264C345.491 383.94 345.903 383.503 346.159 382.952C346.42 382.395 346.551 381.767 346.551 381.068C346.551 380.369 346.42 379.744 346.159 379.193C345.903 378.642 345.489 378.21 344.915 377.898C344.341 377.58 343.58 377.42 342.631 377.42H338.915V393H336.801ZM350.97 393H348.754L355.163 375.545H357.345L363.754 393H361.538L356.322 378.307H356.186L350.97 393ZM351.788 386.182H360.72V388.057H351.788V386.182ZM376.018 379.909C375.916 379.045 375.501 378.375 374.774 377.898C374.047 377.42 373.155 377.182 372.098 377.182C371.325 377.182 370.649 377.307 370.07 377.557C369.496 377.807 369.047 378.151 368.723 378.588C368.405 379.026 368.246 379.523 368.246 380.08C368.246 380.545 368.357 380.946 368.578 381.281C368.805 381.611 369.095 381.886 369.447 382.108C369.8 382.324 370.169 382.503 370.555 382.645C370.942 382.781 371.297 382.892 371.621 382.977L373.393 383.455C373.848 383.574 374.354 383.739 374.911 383.949C375.473 384.159 376.01 384.446 376.521 384.81C377.038 385.168 377.464 385.628 377.8 386.19C378.135 386.753 378.303 387.443 378.303 388.261C378.303 389.205 378.055 390.057 377.561 390.818C377.072 391.58 376.357 392.185 375.413 392.634C374.476 393.082 373.337 393.307 371.996 393.307C370.746 393.307 369.663 393.105 368.749 392.702C367.839 392.298 367.124 391.736 366.601 391.014C366.084 390.293 365.791 389.455 365.723 388.5H367.905C367.962 389.159 368.183 389.705 368.57 390.136C368.962 390.562 369.456 390.881 370.053 391.091C370.655 391.295 371.303 391.398 371.996 391.398C372.803 391.398 373.527 391.267 374.169 391.006C374.811 390.739 375.32 390.369 375.695 389.898C376.07 389.42 376.257 388.864 376.257 388.227C376.257 387.648 376.095 387.176 375.771 386.812C375.447 386.449 375.021 386.153 374.493 385.926C373.964 385.699 373.393 385.5 372.78 385.33L370.632 384.716C369.268 384.324 368.189 383.764 367.393 383.037C366.598 382.31 366.2 381.358 366.2 380.182C366.2 379.205 366.464 378.352 366.993 377.625C367.527 376.892 368.243 376.324 369.141 375.92C370.044 375.511 371.053 375.307 372.166 375.307C373.291 375.307 374.291 375.509 375.166 375.912C376.041 376.31 376.734 376.855 377.246 377.548C377.763 378.241 378.036 379.028 378.064 379.909H376.018ZM391.323 379.909C391.221 379.045 390.806 378.375 390.079 377.898C389.352 377.42 388.46 377.182 387.403 377.182C386.63 377.182 385.954 377.307 385.374 377.557C384.8 377.807 384.352 378.151 384.028 378.588C383.71 379.026 383.55 379.523 383.55 380.08C383.55 380.545 383.661 380.946 383.883 381.281C384.11 381.611 384.4 381.886 384.752 382.108C385.104 382.324 385.474 382.503 385.86 382.645C386.246 382.781 386.602 382.892 386.925 382.977L388.698 383.455C389.153 383.574 389.658 383.739 390.215 383.949C390.778 384.159 391.315 384.446 391.826 384.81C392.343 385.168 392.769 385.628 393.104 386.19C393.44 386.753 393.607 387.443 393.607 388.261C393.607 389.205 393.36 390.057 392.866 390.818C392.377 391.58 391.661 392.185 390.718 392.634C389.781 393.082 388.641 393.307 387.3 393.307C386.05 393.307 384.968 393.105 384.053 392.702C383.144 392.298 382.428 391.736 381.906 391.014C381.388 390.293 381.096 389.455 381.028 388.5H383.21C383.266 389.159 383.488 389.705 383.874 390.136C384.266 390.562 384.761 390.881 385.357 391.091C385.96 391.295 386.607 391.398 387.3 391.398C388.107 391.398 388.832 391.267 389.474 391.006C390.116 390.739 390.624 390.369 390.999 389.898C391.374 389.42 391.562 388.864 391.562 388.227C391.562 387.648 391.4 387.176 391.076 386.812C390.752 386.449 390.326 386.153 389.798 385.926C389.269 385.699 388.698 385.5 388.085 385.33L385.937 384.716C384.573 384.324 383.494 383.764 382.698 383.037C381.903 382.31 381.505 381.358 381.505 380.182C381.505 379.205 381.769 378.352 382.298 377.625C382.832 376.892 383.548 376.324 384.445 375.92C385.349 375.511 386.357 375.307 387.471 375.307C388.596 375.307 389.596 375.509 390.471 375.912C391.346 376.31 392.039 376.855 392.55 377.548C393.067 378.241 393.34 379.028 393.369 379.909H391.323Z" fill="black"/>
<path d="M229.057 415V406.273H232.108C232.716 406.273 233.217 406.378 233.612 406.588C234.007 406.795 234.301 407.075 234.494 407.428C234.688 407.777 234.784 408.165 234.784 408.591C234.784 408.966 234.717 409.276 234.584 409.52C234.453 409.764 234.28 409.957 234.064 410.099C233.851 410.241 233.619 410.347 233.369 410.415V410.5C233.636 410.517 233.905 410.611 234.175 410.781C234.445 410.952 234.67 411.196 234.852 411.514C235.034 411.832 235.125 412.222 235.125 412.682C235.125 413.119 235.026 413.513 234.827 413.862C234.628 414.212 234.314 414.489 233.885 414.693C233.456 414.898 232.898 415 232.21 415H229.057ZM230.114 414.062H232.21C232.901 414.062 233.391 413.929 233.68 413.662C233.973 413.392 234.119 413.065 234.119 412.682C234.119 412.386 234.044 412.114 233.893 411.864C233.743 411.611 233.528 411.409 233.25 411.259C232.972 411.105 232.642 411.028 232.261 411.028H230.114V414.062ZM230.114 410.108H232.074C232.392 410.108 232.679 410.045 232.935 409.92C233.193 409.795 233.398 409.619 233.548 409.392C233.702 409.165 233.778 408.898 233.778 408.591C233.778 408.207 233.645 407.882 233.378 407.615C233.111 407.345 232.688 407.21 232.108 407.21H230.114V410.108ZM236.112 406.273H237.322L239.742 410.347H239.844L242.265 406.273H243.475L240.322 411.403V415H239.265V411.403L236.112 406.273ZM248.217 415V406.273H249.274V410.159H253.927V406.273H254.984V415H253.927V411.097H249.274V415H248.217ZM264.463 410.636C264.463 411.557 264.297 412.352 263.965 413.023C263.632 413.693 263.176 414.21 262.597 414.574C262.017 414.938 261.355 415.119 260.611 415.119C259.867 415.119 259.205 414.938 258.625 414.574C258.046 414.21 257.59 413.693 257.257 413.023C256.925 412.352 256.759 411.557 256.759 410.636C256.759 409.716 256.925 408.92 257.257 408.25C257.59 407.58 258.046 407.062 258.625 406.699C259.205 406.335 259.867 406.153 260.611 406.153C261.355 406.153 262.017 406.335 262.597 406.699C263.176 407.062 263.632 407.58 263.965 408.25C264.297 408.92 264.463 409.716 264.463 410.636ZM263.441 410.636C263.441 409.881 263.314 409.243 263.061 408.723C262.811 408.203 262.472 407.81 262.043 407.543C261.617 407.276 261.14 407.142 260.611 407.142C260.083 407.142 259.604 407.276 259.175 407.543C258.749 407.81 258.409 408.203 258.157 408.723C257.907 409.243 257.782 409.881 257.782 410.636C257.782 411.392 257.907 412.03 258.157 412.55C258.409 413.07 258.749 413.463 259.175 413.73C259.604 413.997 260.083 414.131 260.611 414.131C261.14 414.131 261.617 413.997 262.043 413.73C262.472 413.463 262.811 413.07 263.061 412.55C263.314 412.03 263.441 411.392 263.441 410.636ZM266.24 406.273H267.502L270.468 413.517H270.57L273.536 406.273H274.797V415H273.809V408.369H273.723L270.996 415H270.042L267.314 408.369H267.229V415H266.24V406.273ZM276.916 415V406.273H282.183V407.21H277.973V410.159H281.911V411.097H277.973V414.062H282.251V415H276.916ZM283.338 406.273H284.548L286.969 410.347H287.071L289.491 406.273H290.702L287.548 411.403V415H286.491V411.403L283.338 406.273ZM295.444 415V406.273H296.5V410.159H301.154V406.273H302.211V415H301.154V411.097H296.5V415H295.444ZM311.69 410.636C311.69 411.557 311.524 412.352 311.191 413.023C310.859 413.693 310.403 414.21 309.824 414.574C309.244 414.938 308.582 415.119 307.838 415.119C307.093 415.119 306.431 414.938 305.852 414.574C305.272 414.21 304.816 413.693 304.484 413.023C304.152 412.352 303.985 411.557 303.985 410.636C303.985 409.716 304.152 408.92 304.484 408.25C304.816 407.58 305.272 407.062 305.852 406.699C306.431 406.335 307.093 406.153 307.838 406.153C308.582 406.153 309.244 406.335 309.824 406.699C310.403 407.062 310.859 407.58 311.191 408.25C311.524 408.92 311.69 409.716 311.69 410.636ZM310.667 410.636C310.667 409.881 310.541 409.243 310.288 408.723C310.038 408.203 309.699 407.81 309.27 407.543C308.843 407.276 308.366 407.142 307.838 407.142C307.309 407.142 306.831 407.276 306.402 407.543C305.975 407.81 305.636 408.203 305.383 408.723C305.133 409.243 305.008 409.881 305.008 410.636C305.008 411.392 305.133 412.03 305.383 412.55C305.636 413.07 305.975 413.463 306.402 413.73C306.831 413.997 307.309 414.131 307.838 414.131C308.366 414.131 308.843 413.997 309.27 413.73C309.699 413.463 310.038 413.07 310.288 412.55C310.541 412.03 310.667 411.392 310.667 410.636ZM312.626 407.21V406.273H319.172V407.21H316.428V415H315.371V407.21H312.626ZM320.803 415V406.273H326.07V407.21H321.86V410.159H325.797V411.097H321.86V414.062H326.138V415H320.803ZM327.975 415V406.273H329.032V414.062H333.088V415H327.975Z" fill="black"/>
<rect x="154" y="364" width="61" height="61" rx="16" fill="#712396"/>
<g filter="url(#filter7_dii_218_350)">
<path d="M186.741 380.09C186.42 379.424 185.741 379 184.996 379C184.25 379 183.578 379.424 183.25 380.09L179.354 388.099L170.652 389.383C169.925 389.492 169.319 390 169.094 390.696C168.87 391.393 169.052 392.161 169.573 392.676L175.888 398.918L174.397 407.738C174.276 408.465 174.579 409.203 175.179 409.633C175.778 410.063 176.572 410.118 177.227 409.773L185.002 405.626L192.777 409.773C193.431 410.118 194.225 410.069 194.825 409.633C195.425 409.197 195.728 408.465 195.607 407.738L194.11 398.918L200.424 392.676C200.945 392.161 201.133 391.393 200.903 390.696C200.673 390 200.073 389.492 199.346 389.383L190.637 388.099L186.741 380.09Z" fill="url(#paint11_linear_218_350)"/>
</g>
<path d="M14.5 425C14.5 425 15.5972 431.445 18.4163 434.124C21.5515 437.103 29 437.5 29 437.5C29 437.5 21.5515 437.897 18.4163 440.876C15.5972 443.555 14.5 450 14.5 450C14.5 450 13.4028 443.555 10.5837 440.876C7.44851 437.897 0 437.5 0 437.5C0 437.5 7.44851 437.103 10.5837 434.124C13.4028 431.445 14.5 425 14.5 425Z" fill="url(#paint12_linear_218_350)"/>
<path d="M467 55C467 55 468.059 61.1871 470.781 63.7589C473.808 66.619 481 67 481 67C481 67 473.808 67.381 470.781 70.2411C468.059 72.8129 467 79 467 79C467 79 465.941 72.8129 463.219 70.2411C460.192 67.381 453 67 453 67C453 67 460.192 66.619 463.219 63.7589C465.941 61.1871 467 55 467 55Z" fill="url(#paint13_linear_218_350)"/>
<path d="M39.8643 398.584C39.8643 398.584 45.8903 402.272 50.1173 401.847C54.8181 401.375 60.5684 395.486 60.5684 395.486C60.5684 395.486 55.4617 401.941 55.5929 406.663C55.7107 410.91 60.1374 416.416 60.1374 416.416C60.1374 416.416 54.1115 412.728 49.8845 413.153C45.1836 413.625 39.4334 419.514 39.4334 419.514C39.4334 419.514 44.54 413.059 44.4089 408.337C44.291 404.09 39.8643 398.584 39.8643 398.584Z" fill="url(#paint14_linear_218_350)"/>
<path d="M511.642 41.9476C511.642 41.9476 517.645 45.6732 521.874 45.2747C526.578 44.8315 532.365 38.9792 532.365 38.9792C532.365 38.9792 527.218 45.4017 527.32 50.1251C527.411 54.3724 531.804 59.9061 531.804 59.9061C531.804 59.9061 525.801 56.1805 521.571 56.579C516.868 57.0222 511.081 62.8745 511.081 62.8745C511.081 62.8745 516.228 56.4521 516.126 51.7286C516.034 47.4813 511.642 41.9476 511.642 41.9476Z" fill="url(#paint15_linear_218_350)"/>
<path d="M450.642 430.948C450.642 430.948 456.645 434.673 460.874 434.275C465.578 433.832 471.365 427.979 471.365 427.979C471.365 427.979 466.218 434.402 466.32 439.125C466.411 443.372 470.804 448.906 470.804 448.906C470.804 448.906 464.801 445.181 460.571 445.579C455.868 446.022 450.081 451.875 450.081 451.875C450.081 451.875 455.228 445.452 455.126 440.729C455.034 436.481 450.642 430.948 450.642 430.948Z" fill="url(#paint16_linear_218_350)"/>
<path d="M39.6421 455.948C39.6421 455.948 45.6449 459.673 49.8745 459.275C54.5782 458.832 60.365 452.979 60.365 452.979C60.365 452.979 55.2183 459.402 55.32 464.125C55.4114 468.372 59.8037 473.906 59.8037 473.906C59.8037 473.906 53.8009 470.181 49.5713 470.579C44.8676 471.022 39.0808 476.875 39.0808 476.875C39.0808 476.875 44.2275 470.452 44.1258 465.729C44.0344 461.481 39.6421 455.948 39.6421 455.948Z" fill="white"/>
<path d="M441.068 15.9644C441.068 15.9644 448.093 15.2209 451.188 12.3101C454.629 9.07302 455.605 0.900888 455.605 0.900888C455.605 0.900888 455.484 9.13022 458.464 12.7967C461.143 16.0936 468.007 17.7661 468.007 17.7661C468.007 17.7661 460.982 18.5096 457.887 21.4204C454.446 24.6574 453.47 32.8296 453.47 32.8296C453.47 32.8296 453.591 24.6002 450.611 20.9337C447.932 17.6368 441.068 15.9644 441.068 15.9644Z" fill="white"/>
<defs>
<filter id="filter0_df_218_350" x="73" y="2" width="342" height="221" filterUnits="userSpaceOnUse" color-interpolation-filters="sRGB">
<feFlood flood-opacity="0" result="BackgroundImageFix"/>
<feColorMatrix in="SourceAlpha" type="matrix" values="0 0 0 0 0 0 0 0 0 0 0 0 0 0 0 0 0 0 127 0" result="hardAlpha"/>
<feOffset dy="4"/>
<feGaussianBlur stdDeviation="2"/>
<feComposite in2="hardAlpha" operator="out"/>
<feColorMatrix type="matrix" values="0 0 0 0 0 0 0 0 0 0 0 0 0 0 0 0 0 0 0.25 0"/>
<feBlend mode="normal" in2="BackgroundImageFix" result="effect1_dropShadow_218_350"/>
<feBlend mode="normal" in="SourceGraphic" in2="effect1_dropShadow_218_350" result="shape"/>
<feGaussianBlur stdDeviation="2" result="effect2_foregroundBlur_218_350"/>
</filter>
<filter id="filter1_d_218_350" x="113" y="46" width="47" height="39" filterUnits="userSpaceOnUse" color-interpolation-filters="sRGB">
<feFlood flood-opacity="0" result="BackgroundImageFix"/>
<feColorMatrix in="SourceAlpha" type="matrix" values="0 0 0 0 0 0 0 0 0 0 0 0 0 0 0 0 0 0 127 0" result="hardAlpha"/>
<feOffset dy="4"/>
<feGaussianBlur stdDeviation="2"/>
<feComposite in2="hardAlpha" operator="out"/>
<feColorMatrix type="matrix" values="0 0 0 0 0 0 0 0 0 0 0 0 0 0 0 0 0 0 0.25 0"/>
<feBlend mode="normal" in2="BackgroundImageFix" result="effect1_dropShadow_218_350"/>
<feBlend mode="normal" in="SourceGraphic" in2="effect1_dropShadow_218_350" result="shape"/>
</filter>
<filter id="filter2_df_218_350" x="163" y="99" width="342" height="221" filterUnits="userSpaceOnUse" color-interpolation-filters="sRGB">
<feFlood flood-opacity="0" result="BackgroundImageFix"/>
<feColorMatrix in="SourceAlpha" type="matrix" values="0 0 0 0 0 0 0 0 0 0 0 0 0 0 0 0 0 0 127 0" result="hardAlpha"/>
<feOffset dy="4"/>
<feGaussianBlur stdDeviation="2"/>
<feComposite in2="hardAlpha" operator="out"/>
<feColorMatrix type="matrix" values="0 0 0 0 0 0 0 0 0 0 0 0 0 0 0 0 0 0 0.25 0"/>
<feBlend mode="normal" in2="BackgroundImageFix" result="effect1_dropShadow_218_350"/>
<feBlend mode="normal" in="SourceGraphic" in2="effect1_dropShadow_218_350" result="shape"/>
<feGaussianBlur stdDeviation="2" result="effect2_foregroundBlur_218_350"/>
</filter>
<filter id="filter3_dii_218_350" x="202" y="137" width="49" height="44" filterUnits="userSpaceOnUse" color-interpolation-filters="sRGB">
<feFlood flood-opacity="0" result="BackgroundImageFix"/>
<feColorMatrix in="SourceAlpha" type="matrix" values="0 0 0 0 0 0 0 0 0 0 0 0 0 0 0 0 0 0 127 0" result="hardAlpha"/>
<feOffset dy="4"/>
<feGaussianBlur stdDeviation="2"/>
<feComposite in2="hardAlpha" operator="out"/>
<feColorMatrix type="matrix" values="0 0 0 0 0 0 0 0 0 0 0 0 0 0 0 0 0 0 0.25 0"/>
<feBlend mode="normal" in2="BackgroundImageFix" result="effect1_dropShadow_218_350"/>
<feBlend mode="normal" in="SourceGraphic" in2="effect1_dropShadow_218_350" result="shape"/>
<feColorMatrix in="SourceAlpha" type="matrix" values="0 0 0 0 0 0 0 0 0 0 0 0 0 0 0 0 0 0 127 0" result="hardAlpha"/>
<feOffset dx="-4" dy="-4"/>
<feGaussianBlur stdDeviation="2"/>
<feComposite in2="hardAlpha" operator="arithmetic" k2="-1" k3="1"/>
<feColorMatrix type="matrix" values="0 0 0 0 0 0 0 0 0 0 0 0 0 0 0 0 0 0 0.25 0"/>
<feBlend mode="normal" in2="shape" result="effect2_innerShadow_218_350"/>
<feColorMatrix in="SourceAlpha" type="matrix" values="0 0 0 0 0 0 0 0 0 0 0 0 0 0 0 0 0 0 127 0" result="hardAlpha"/>
<feOffset dx="4" dy="4"/>
<feGaussianBlur stdDeviation="2"/>
<feComposite in2="hardAlpha" operator="arithmetic" k2="-1" k3="1"/>
<feColorMatrix type="matrix" values="0 0 0 0 1 0 0 0 0 1 0 0 0 0 1 0 0 0 0.25 0"/>
<feBlend mode="normal" in2="effect2_innerShadow_218_350" result="effect3_innerShadow_218_350"/>
</filter>
<filter id="filter4_df_218_350" x="227" y="198" width="342" height="221" filterUnits="userSpaceOnUse" color-interpolation-filters="sRGB">
<feFlood flood-opacity="0" result="BackgroundImageFix"/>
<feColorMatrix in="SourceAlpha" type="matrix" values="0 0 0 0 0 0 0 0 0 0 0 0 0 0 0 0 0 0 127 0" result="hardAlpha"/>
<feOffset dy="4"/>
<feGaussianBlur stdDeviation="2"/>
<feComposite in2="hardAlpha" operator="out"/>
<feColorMatrix type="matrix" values="0 0 0 0 0 0 0 0 0 0 0 0 0 0 0 0 0 0 0.25 0"/>
<feBlend mode="normal" in2="BackgroundImageFix" result="effect1_dropShadow_218_350"/>
<feBlend mode="normal" in="SourceGraphic" in2="effect1_dropShadow_218_350" result="shape"/>
<feGaussianBlur stdDeviation="2" result="effect2_foregroundBlur_218_350"/>
</filter>
<filter id="filter5_dii_218_350" x="266" y="236" width="49" height="45" filterUnits="userSpaceOnUse" color-interpolation-filters="sRGB">
<feFlood flood-opacity="0" result="BackgroundImageFix"/>
<feColorMatrix in="SourceAlpha" type="matrix" values="0 0 0 0 0 0 0 0 0 0 0 0 0 0 0 0 0 0 127 0" result="hardAlpha"/>
<feOffset dy="4"/>
<feGaussianBlur stdDeviation="2"/>
<feComposite in2="hardAlpha" operator="out"/>
<feColorMatrix type="matrix" values="0 0 0 0 0 0 0 0 0 0 0 0 0 0 0 0 0 0 0.25 0"/>
<feBlend mode="normal" in2="BackgroundImageFix" result="effect1_dropShadow_218_350"/>
<feBlend mode="normal" in="SourceGraphic" in2="effect1_dropShadow_218_350" result="shape"/>
<feColorMatrix in="SourceAlpha" type="matrix" values="0 0 0 0 0 0 0 0 0 0 0 0 0 0 0 0 0 0 127 0" result="hardAlpha"/>
<feOffset dx="-4" dy="-4"/>
<feGaussianBlur stdDeviation="2"/>
<feComposite in2="hardAlpha" operator="arithmetic" k2="-1" k3="1"/>
<feColorMatrix type="matrix" values="0 0 0 0 0 0 0 0 0 0 0 0 0 0 0 0 0 0 0.25 0"/>
<feBlend mode="normal" in2="shape" result="effect2_innerShadow_218_350"/>
<feColorMatrix in="SourceAlpha" type="matrix" values="0 0 0 0 0 0 0 0 0 0 0 0 0 0 0 0 0 0 127 0" result="hardAlpha"/>
<feOffset dx="4" dy="4"/>
<feGaussianBlur stdDeviation="2"/>
<feComposite in2="hardAlpha" operator="arithmetic" k2="-1" k3="1"/>
<feColorMatrix type="matrix" values="0 0 0 0 1 0 0 0 0 1 0 0 0 0 1 0 0 0 0.25 0"/>
<feBlend mode="normal" in2="effect2_innerShadow_218_350" result="effect3_innerShadow_218_350"/>
</filter>
<filter id="filter6_df_218_350" x="121" y="336" width="342" height="221" filterUnits="userSpaceOnUse" color-interpolation-filters="sRGB">
<feFlood flood-opacity="0" result="BackgroundImageFix"/>
<feColorMatrix in="SourceAlpha" type="matrix" values="0 0 0 0 0 0 0 0 0 0 0 0 0 0 0 0 0 0 127 0" result="hardAlpha"/>
<feOffset dy="4"/>
<feGaussianBlur stdDeviation="2"/>
<feComposite in2="hardAlpha" operator="out"/>
<feColorMatrix type="matrix" values="0 0 0 0 0 0 0 0 0 0 0 0 0 0 0 0 0 0 0.25 0"/>
<feBlend mode="normal" in2="BackgroundImageFix" result="effect1_dropShadow_218_350"/>
<feBlend mode="normal" in="SourceGraphic" in2="effect1_dropShadow_218_350" result="shape"/>
<feGaussianBlur stdDeviation="2" result="effect2_foregroundBlur_218_350"/>
</filter>
<filter id="filter7_dii_218_350" x="165" y="375" width="40" height="43" filterUnits="userSpaceOnUse" color-interpolation-filters="sRGB">
<feFlood flood-opacity="0" result="BackgroundImageFix"/>
<feColorMatrix in="SourceAlpha" type="matrix" values="0 0 0 0 0 0 0 0 0 0 0 0 0 0 0 0 0 0 127 0" result="hardAlpha"/>
<feOffset dy="4"/>
<feGaussianBlur stdDeviation="2"/>
<feComposite in2="hardAlpha" operator="out"/>
<feColorMatrix type="matrix" values="0 0 0 0 0 0 0 0 0 0 0 0 0 0 0 0 0 0 0.25 0"/>
<feBlend mode="normal" in2="BackgroundImageFix" result="effect1_dropShadow_218_350"/>
<feBlend mode="normal" in="SourceGraphic" in2="effect1_dropShadow_218_350" result="shape"/>
<feColorMatrix in="SourceAlpha" type="matrix" values="0 0 0 0 0 0 0 0 0 0 0 0 0 0 0 0 0 0 127 0" result="hardAlpha"/>
<feOffset dx="-4" dy="-4"/>
<feGaussianBlur stdDeviation="2"/>
<feComposite in2="hardAlpha" operator="arithmetic" k2="-1" k3="1"/>
<feColorMatrix type="matrix" values="0 0 0 0 0 0 0 0 0 0 0 0 0 0 0 0 0 0 0.25 0"/>
<feBlend mode="normal" in2="shape" result="effect2_innerShadow_218_350"/>
<feColorMatrix in="SourceAlpha" type="matrix" values="0 0 0 0 0 0 0 0 0 0 0 0 0 0 0 0 0 0 127 0" result="hardAlpha"/>
<feOffset dx="4" dy="4"/>
<feGaussianBlur stdDeviation="2"/>
<feComposite in2="hardAlpha" operator="arithmetic" k2="-1" k3="1"/>
<feColorMatrix type="matrix" values="0 0 0 0 1 0 0 0 0 1 0 0 0 0 1 0 0 0 0.25 0"/>
<feBlend mode="normal" in2="effect2_innerShadow_218_350" result="effect3_innerShadow_218_350"/>
</filter>
<linearGradient id="paint0_linear_218_350" x1="97.1166" y1="13.4264" x2="356.807" y2="262.232" gradientUnits="userSpaceOnUse">
<stop stop-color="#E2DAEB"/>
<stop offset="1" stop-color="#B7DFE8"/>
</linearGradient>
<linearGradient id="paint1_linear_218_350" x1="244" y1="6" x2="244" y2="215" gradientUnits="userSpaceOnUse">
<stop stop-color="#4EC8CA"/>
<stop offset="1" stop-color="white"/>
</linearGradient>
<radialGradient id="paint2_radial_218_350" cx="0" cy="0" r="1" gradientUnits="userSpaceOnUse" gradientTransform="translate(127.5 48) rotate(52.5946) scale(42.8019 53.8475)">
<stop stop-color="#FDC500"/>
<stop offset="1" stop-color="#B64D3B"/>
</radialGradient>
<linearGradient id="paint3_linear_218_350" x1="187.117" y1="110.426" x2="446.807" y2="359.232" gradientUnits="userSpaceOnUse">
<stop stop-color="#E2DAEB"/>
<stop offset="1" stop-color="#B7DFE8"/>
</linearGradient>
<linearGradient id="paint4_linear_218_350" x1="334" y1="103" x2="334" y2="312" gradientUnits="userSpaceOnUse">
<stop stop-color="#4EC8CA"/>
<stop offset="1" stop-color="white"/>
</linearGradient>
<linearGradient id="paint5_linear_218_350" x1="226.5" y1="141" x2="226.5" y2="174.591" gradientUnits="userSpaceOnUse">
<stop stop-color="#FDC500"/>
<stop offset="0.270833" stop-color="#BC9300"/>
<stop offset="0.526042" stop-color="#3E6DBE"/>
<stop offset="1" stop-color="#005EFF"/>
</linearGradient>
<linearGradient id="paint6_linear_218_350" x1="251.117" y1="209.426" x2="510.807" y2="458.232" gradientUnits="userSpaceOnUse">
<stop stop-color="#E2DAEB"/>
<stop offset="1" stop-color="#B7DFE8"/>
</linearGradient>
<linearGradient id="paint7_linear_218_350" x1="398" y1="202" x2="398" y2="411" gradientUnits="userSpaceOnUse">
<stop stop-color="#4EC8CA"/>
<stop offset="1" stop-color="white"/>
</linearGradient>
<linearGradient id="paint8_linear_218_350" x1="290.5" y1="240" x2="290.5" y2="273" gradientUnits="userSpaceOnUse">
<stop/>
<stop offset="1" stop-color="#7B6294"/>
</linearGradient>
<linearGradient id="paint9_linear_218_350" x1="145.117" y1="347.426" x2="404.807" y2="596.232" gradientUnits="userSpaceOnUse">
<stop stop-color="#E2DAEB"/>
<stop offset="1" stop-color="#B7DFE8"/>
</linearGradient>
<linearGradient id="paint10_linear_218_350" x1="292" y1="340" x2="292" y2="549" gradientUnits="userSpaceOnUse">
<stop stop-color="#4EC8CA"/>
<stop offset="1" stop-color="white"/>
</linearGradient>
<linearGradient id="paint11_linear_218_350" x1="185" y1="379" x2="185" y2="410" gradientUnits="userSpaceOnUse">
<stop stop-color="#FDC500"/>
<stop offset="1" stop-color="#B64D3B"/>
</linearGradient>
<linearGradient id="paint12_linear_218_350" x1="14.5" y1="425" x2="14.5" y2="450" gradientUnits="userSpaceOnUse">
<stop stop-color="#DFCAE9"/>
<stop offset="1" stop-color="white"/>
</linearGradient>
<linearGradient id="paint13_linear_218_350" x1="467" y1="55" x2="467" y2="79" gradientUnits="userSpaceOnUse">
<stop stop-color="#DFCAE9"/>
<stop offset="1" stop-color="white"/>
</linearGradient>
<linearGradient id="paint14_linear_218_350" x1="39.8643" y1="398.584" x2="60.1374" y2="416.416" gradientUnits="userSpaceOnUse">
<stop stop-color="#DFCAE9"/>
<stop offset="1" stop-color="white"/>
</linearGradient>
<linearGradient id="paint15_linear_218_350" x1="511.642" y1="41.9476" x2="531.804" y2="59.9061" gradientUnits="userSpaceOnUse">
<stop stop-color="#DFCAE9"/>
<stop offset="1" stop-color="white"/>
</linearGradient>
<linearGradient id="paint16_linear_218_350" x1="450.642" y1="430.948" x2="470.804" y2="448.906" gradientUnits="userSpaceOnUse">
<stop stop-color="#DFCAE9"/>
<stop offset="1" stop-color="white"/>
</linearGradient>
</defs>
</svg>
