<svg width="569" height="550" viewBox="0 0 569 550" fill="none" xmlns="http://www.w3.org/2000/svg">
<g filter="url(#filter0_df_148_23)">
<rect x="77" y="6" width="334" height="209" rx="24" fill="url(#paint0_linear_148_23)" fill-opacity="0.75" shape-rendering="crispEdges"/>
<rect x="77.5" y="6.5" width="333" height="208" rx="23.5" stroke="url(#paint1_linear_148_23)" shape-rendering="crispEdges"/>
</g>
<rect x="112.5" y="106.5" width="261" height="16" rx="8" fill="black" stroke="black"/>
<rect x="111.5" y="129.5" width="141" height="16" rx="8" fill="black" stroke="black"/>
<rect x="111.5" y="151.5" width="192" height="16" rx="8" fill="black" stroke="black"/>
<rect x="112.5" y="174.5" width="247" height="16" rx="8" fill="black" stroke="black"/>
<path d="M182.114 59V41.5455H184.227V57.125H192.341V59H182.114ZM201.205 59.2386C200.08 59.2386 199.077 59.0455 198.196 58.6591C197.321 58.2727 196.625 57.7358 196.108 57.0483C195.597 56.3551 195.318 55.5511 195.273 54.6364H197.42C197.466 55.1989 197.659 55.6847 198 56.0938C198.341 56.4972 198.787 56.8097 199.338 57.0312C199.889 57.2528 200.5 57.3636 201.17 57.3636C201.92 57.3636 202.585 57.233 203.165 56.9716C203.744 56.7102 204.199 56.3466 204.528 55.8807C204.858 55.4148 205.023 54.875 205.023 54.2614C205.023 53.6193 204.864 53.054 204.545 52.5653C204.227 52.071 203.761 51.6847 203.148 51.4062C202.534 51.1278 201.784 50.9886 200.898 50.9886H199.5V49.1136H200.898C201.591 49.1136 202.199 48.9886 202.722 48.7386C203.25 48.4886 203.662 48.1364 203.957 47.6818C204.259 47.2273 204.409 46.6932 204.409 46.0795C204.409 45.4886 204.278 44.9744 204.017 44.5369C203.756 44.0994 203.386 43.7585 202.909 43.5142C202.438 43.2699 201.881 43.1477 201.239 43.1477C200.636 43.1477 200.068 43.2585 199.534 43.4801C199.006 43.696 198.574 44.0114 198.239 44.4261C197.903 44.8352 197.722 45.3295 197.693 45.9091H195.648C195.682 44.9943 195.957 44.1932 196.474 43.5057C196.991 42.8125 197.668 42.2727 198.503 41.8864C199.344 41.5 200.267 41.3068 201.273 41.3068C202.352 41.3068 203.278 41.5256 204.051 41.9631C204.824 42.3949 205.418 42.9659 205.832 43.6761C206.247 44.3864 206.455 45.1534 206.455 45.9773C206.455 46.9602 206.196 47.7983 205.679 48.4915C205.168 49.1847 204.472 49.6648 203.591 49.9318V50.0682C204.693 50.25 205.554 50.7187 206.173 51.4744C206.793 52.2244 207.102 53.1534 207.102 54.2614C207.102 55.2102 206.844 56.0625 206.327 56.8182C205.815 57.5682 205.116 58.1591 204.23 58.5909C203.344 59.0227 202.335 59.2386 201.205 59.2386ZM223.031 59H217.645V41.5455H223.27C224.963 41.5455 226.412 41.8949 227.616 42.5938C228.821 43.2869 229.744 44.2841 230.386 45.5852C231.028 46.8807 231.349 48.4318 231.349 50.2386C231.349 52.0568 231.026 53.6222 230.378 54.9347C229.73 56.2415 228.787 57.2472 227.548 57.9517C226.31 58.6506 224.804 59 223.031 59ZM219.759 57.125H222.895C224.338 57.125 225.534 56.8466 226.483 56.2898C227.432 55.733 228.139 54.9403 228.605 53.9119C229.071 52.8835 229.304 51.6591 229.304 50.2386C229.304 48.8295 229.074 47.6165 228.614 46.5994C228.153 45.5767 227.466 44.7926 226.551 44.2472C225.636 43.696 224.497 43.4205 223.134 43.4205H219.759V57.125ZM237.009 41.5455V59H234.895V41.5455H237.009ZM253.178 47C252.991 46.4261 252.744 45.9119 252.437 45.4574C252.136 44.9972 251.775 44.6051 251.354 44.2812C250.94 43.9574 250.468 43.7102 249.94 43.5398C249.411 43.3693 248.832 43.2841 248.201 43.2841C247.167 43.2841 246.227 43.5511 245.38 44.0852C244.533 44.6193 243.86 45.4062 243.36 46.446C242.86 47.4858 242.61 48.7614 242.61 50.2727C242.61 51.7841 242.863 53.0597 243.369 54.0994C243.874 55.1392 244.559 55.9261 245.423 56.4602C246.286 56.9943 247.258 57.2614 248.337 57.2614C249.337 57.2614 250.218 57.0483 250.979 56.6222C251.746 56.1903 252.343 55.5824 252.769 54.7983C253.201 54.0085 253.417 53.0795 253.417 52.0114L254.065 52.1477H248.815V50.2727H255.462V52.1477C255.462 53.5852 255.156 54.8352 254.542 55.8977C253.934 56.9602 253.093 57.7841 252.019 58.3693C250.951 58.9489 249.724 59.2386 248.337 59.2386C246.792 59.2386 245.434 58.875 244.263 58.1477C243.099 57.4205 242.19 56.3864 241.536 55.0455C240.888 53.7045 240.565 52.1136 240.565 50.2727C240.565 48.892 240.749 47.6506 241.119 46.5483C241.494 45.4403 242.022 44.4972 242.704 43.7188C243.386 42.9403 244.192 42.3438 245.124 41.929C246.056 41.5142 247.082 41.3068 248.201 41.3068C249.121 41.3068 249.979 41.446 250.775 41.7244C251.576 41.9972 252.289 42.3864 252.914 42.892C253.545 43.392 254.07 43.9915 254.491 44.6903C254.911 45.3835 255.201 46.1534 255.36 47H253.178ZM261.196 41.5455V59H259.082V41.5455H261.196ZM264.479 43.4205V41.5455H277.57V43.4205H272.082V59H269.968V43.4205H264.479ZM279.509 59H277.293L283.702 41.5455H285.884L292.293 59H290.077L284.862 44.3068H284.725L279.509 59ZM280.327 52.1818H289.259V54.0568H280.327V52.1818ZM295.012 59V41.5455H297.126V57.125H305.239V59H295.012ZM315.262 59V41.5455H321.16C322.529 41.5455 323.648 41.7926 324.518 42.2869C325.393 42.7756 326.04 43.4375 326.461 44.2727C326.881 45.108 327.092 46.0398 327.092 47.0682C327.092 48.0966 326.881 49.0312 326.461 49.8722C326.046 50.7131 325.404 51.3835 324.535 51.8835C323.665 52.3778 322.552 52.625 321.194 52.625H316.967V50.75H321.126C322.063 50.75 322.816 50.5881 323.384 50.2642C323.952 49.9403 324.364 49.5028 324.62 48.9517C324.881 48.3949 325.012 47.767 325.012 47.0682C325.012 46.3693 324.881 45.7443 324.62 45.1932C324.364 44.642 323.95 44.2102 323.376 43.8977C322.802 43.5795 322.04 43.4205 321.092 43.4205H317.376V59H315.262ZM329.431 59H327.215L333.624 41.5455H335.806L342.215 59H339.999L334.783 44.3068H334.647L329.431 59ZM330.249 52.1818H339.181V54.0568H330.249V52.1818ZM354.479 45.9091C354.377 45.0455 353.962 44.375 353.235 43.8977C352.508 43.4205 351.616 43.1818 350.559 43.1818C349.786 43.1818 349.11 43.3068 348.531 43.5568C347.957 43.8068 347.508 44.1506 347.184 44.5881C346.866 45.0256 346.707 45.5227 346.707 46.0795C346.707 46.5455 346.817 46.946 347.039 47.2812C347.266 47.6108 347.556 47.8864 347.908 48.108C348.261 48.3239 348.63 48.5028 349.016 48.6449C349.403 48.7812 349.758 48.892 350.082 48.9773L351.854 49.4545C352.309 49.5739 352.815 49.7386 353.371 49.9489C353.934 50.1591 354.471 50.446 354.982 50.8097C355.499 51.1676 355.925 51.6278 356.261 52.1903C356.596 52.7528 356.763 53.4432 356.763 54.2614C356.763 55.2045 356.516 56.0568 356.022 56.8182C355.533 57.5795 354.817 58.1847 353.874 58.6335C352.937 59.0824 351.798 59.3068 350.457 59.3068C349.207 59.3068 348.124 59.1051 347.21 58.7017C346.3 58.2983 345.585 57.7358 345.062 57.0142C344.545 56.2926 344.252 55.4545 344.184 54.5H346.366C346.423 55.1591 346.644 55.7045 347.031 56.1364C347.423 56.5625 347.917 56.8807 348.513 57.0909C349.116 57.2955 349.763 57.3977 350.457 57.3977C351.263 57.3977 351.988 57.267 352.63 57.0057C353.272 56.7386 353.781 56.3693 354.156 55.8977C354.531 55.4205 354.718 54.8636 354.718 54.2273C354.718 53.6477 354.556 53.1761 354.232 52.8125C353.908 52.4489 353.482 52.1534 352.954 51.9261C352.425 51.6989 351.854 51.5 351.241 51.3295L349.093 50.7159C347.729 50.3239 346.65 49.7642 345.854 49.0369C345.059 48.3097 344.661 47.358 344.661 46.1818C344.661 45.2045 344.925 44.3523 345.454 43.625C345.988 42.892 346.704 42.3239 347.602 41.9205C348.505 41.5114 349.513 41.3068 350.627 41.3068C351.752 41.3068 352.752 41.5085 353.627 41.9119C354.502 42.3097 355.195 42.8551 355.707 43.5483C356.224 44.2415 356.496 45.0284 356.525 45.9091H354.479ZM369.784 45.9091C369.682 45.0455 369.267 44.375 368.54 43.8977C367.813 43.4205 366.92 43.1818 365.864 43.1818C365.091 43.1818 364.415 43.3068 363.835 43.5568C363.261 43.8068 362.813 44.1506 362.489 44.5881C362.17 45.0256 362.011 45.5227 362.011 46.0795C362.011 46.5455 362.122 46.946 362.344 47.2812C362.571 47.6108 362.861 47.8864 363.213 48.108C363.565 48.3239 363.935 48.5028 364.321 48.6449C364.707 48.7812 365.062 48.892 365.386 48.9773L367.159 49.4545C367.614 49.5739 368.119 49.7386 368.676 49.9489C369.239 50.1591 369.776 50.446 370.287 50.8097C370.804 51.1676 371.23 51.6278 371.565 52.1903C371.901 52.7528 372.068 53.4432 372.068 54.2614C372.068 55.2045 371.821 56.0568 371.327 56.8182C370.838 57.5795 370.122 58.1847 369.179 58.6335C368.241 59.0824 367.102 59.3068 365.761 59.3068C364.511 59.3068 363.429 59.1051 362.514 58.7017C361.605 58.2983 360.889 57.7358 360.366 57.0142C359.849 56.2926 359.557 55.4545 359.489 54.5H361.67C361.727 55.1591 361.949 55.7045 362.335 56.1364C362.727 56.5625 363.222 56.8807 363.818 57.0909C364.42 57.2955 365.068 57.3977 365.761 57.3977C366.568 57.3977 367.293 57.267 367.935 57.0057C368.577 56.7386 369.085 56.3693 369.46 55.8977C369.835 55.4205 370.023 54.8636 370.023 54.2273C370.023 53.6477 369.861 53.1761 369.537 52.8125C369.213 52.4489 368.787 52.1534 368.259 51.9261C367.73 51.6989 367.159 51.5 366.545 51.3295L364.398 50.7159C363.034 50.3239 361.955 49.7642 361.159 49.0369C360.364 48.3097 359.966 47.358 359.966 46.1818C359.966 45.2045 360.23 44.3523 360.759 43.625C361.293 42.892 362.009 42.3239 362.906 41.9205C363.81 41.5114 364.818 41.3068 365.932 41.3068C367.057 41.3068 368.057 41.5085 368.932 41.9119C369.807 42.3097 370.5 42.8551 371.011 43.5483C371.528 44.2415 371.801 45.0284 371.83 45.9091H369.784Z" fill="white"/>
<rect x="106" y="30" width="61" height="61" rx="16" fill="#3E6DBE"/>
<g filter="url(#filter1_d_148_23)">
<path d="M137.922 51.1205C138.694 50.6362 139.208 49.7574 139.208 48.7679C139.208 47.2386 137.996 46 136.5 46C135.004 46 133.792 47.2386 133.792 48.7679C133.792 49.7643 134.306 50.6362 135.078 51.1205L131.198 59.0504C130.582 60.3098 128.984 60.6696 127.908 59.7908L121.875 54.8571C122.214 54.3935 122.417 53.8192 122.417 53.1964C122.417 51.6672 121.205 50.4286 119.708 50.4286C118.212 50.4286 117 51.6672 117 53.1964C117 54.7257 118.212 55.9643 119.708 55.9643C119.722 55.9643 119.742 55.9643 119.756 55.9643L122.85 73.3603C123.222 75.4638 125.017 77 127.116 77H145.884C147.977 77 149.771 75.4708 150.15 73.3603L153.244 55.9643C153.258 55.9643 153.278 55.9643 153.292 55.9643C154.788 55.9643 156 54.7257 156 53.1964C156 51.6672 154.788 50.4286 153.292 50.4286C151.795 50.4286 150.583 51.6672 150.583 53.1964C150.583 53.8192 150.786 54.3935 151.125 54.8571L145.092 59.7908C144.016 60.6696 142.418 60.3098 141.802 59.0504L137.922 51.1205Z" fill="url(#paint2_radial_148_23)"/>
</g>
<path d="M181.057 81V72.2727H184.108C184.716 72.2727 185.217 72.3778 185.612 72.5881C186.007 72.7955 186.301 73.0753 186.494 73.4276C186.688 73.777 186.784 74.1648 186.784 74.5909C186.784 74.9659 186.717 75.2756 186.584 75.5199C186.453 75.7642 186.28 75.9574 186.064 76.0994C185.851 76.2415 185.619 76.3466 185.369 76.4148V76.5C185.636 76.517 185.905 76.6108 186.175 76.7812C186.445 76.9517 186.67 77.196 186.852 77.5142C187.034 77.8324 187.125 78.2216 187.125 78.6818C187.125 79.1193 187.026 79.5128 186.827 79.8622C186.628 80.2116 186.314 80.4886 185.885 80.6932C185.456 80.8977 184.898 81 184.21 81H181.057ZM182.114 80.0625H184.21C184.901 80.0625 185.391 79.929 185.68 79.6619C185.973 79.392 186.119 79.0653 186.119 78.6818C186.119 78.3864 186.044 78.1136 185.893 77.8636C185.743 77.6108 185.528 77.4091 185.25 77.2585C184.972 77.1051 184.642 77.0284 184.261 77.0284H182.114V80.0625ZM182.114 76.108H184.074C184.392 76.108 184.679 76.0455 184.935 75.9205C185.193 75.7955 185.398 75.6193 185.548 75.392C185.702 75.1648 185.778 74.8977 185.778 74.5909C185.778 74.2074 185.645 73.8821 185.378 73.6151C185.111 73.3452 184.688 73.2102 184.108 73.2102H182.114V76.108ZM188.112 72.2727H189.322L191.742 76.3466H191.844L194.265 72.2727H195.475L192.322 77.4034V81H191.265V77.4034L188.112 72.2727ZM204.99 74.4545C204.939 74.0227 204.731 73.6875 204.368 73.4489C204.004 73.2102 203.558 73.0909 203.029 73.0909C202.643 73.0909 202.305 73.1534 202.015 73.2784C201.728 73.4034 201.504 73.5753 201.342 73.794C201.183 74.0128 201.103 74.2614 201.103 74.5398C201.103 74.7727 201.159 74.973 201.27 75.1406C201.383 75.3054 201.528 75.4432 201.704 75.554C201.88 75.6619 202.065 75.7514 202.258 75.8224C202.451 75.8906 202.629 75.946 202.791 75.9886L203.677 76.2273C203.904 76.2869 204.157 76.3693 204.436 76.4744C204.717 76.5795 204.985 76.723 205.241 76.9048C205.5 77.0838 205.713 77.3139 205.88 77.5952C206.048 77.8764 206.132 78.2216 206.132 78.6307C206.132 79.1023 206.008 79.5284 205.761 79.9091C205.517 80.2898 205.159 80.5923 204.687 80.8168C204.218 81.0412 203.649 81.1534 202.978 81.1534C202.353 81.1534 201.812 81.0526 201.355 80.8509C200.9 80.6491 200.542 80.3679 200.281 80.0071C200.022 79.6463 199.876 79.2273 199.842 78.75H200.933C200.961 79.0795 201.072 79.3523 201.265 79.5682C201.461 79.7812 201.708 79.9403 202.007 80.0455C202.308 80.1477 202.632 80.1989 202.978 80.1989C203.382 80.1989 203.744 80.1335 204.065 80.0028C204.386 79.8693 204.64 79.6847 204.828 79.4489C205.015 79.2102 205.109 78.9318 205.109 78.6136C205.109 78.3239 205.028 78.0881 204.866 77.9062C204.704 77.7244 204.491 77.5767 204.227 77.4631C203.963 77.3494 203.677 77.25 203.37 77.1648L202.297 76.858C201.615 76.6619 201.075 76.3821 200.677 76.0185C200.279 75.6548 200.081 75.179 200.081 74.5909C200.081 74.1023 200.213 73.6761 200.477 73.3125C200.744 72.946 201.102 72.6619 201.551 72.4602C202.002 72.2557 202.507 72.1534 203.064 72.1534C203.626 72.1534 204.126 72.2543 204.564 72.456C205.001 72.6548 205.348 72.9276 205.603 73.2741C205.862 73.6207 205.998 74.0142 206.012 74.4545H204.99ZM207.869 81V72.2727H208.926V76.6023H209.028L212.949 72.2727H214.33L210.665 76.2102L214.33 81H213.051L210.017 76.9432L208.926 78.1705V81H207.869ZM216.754 72.2727V81H215.697V72.2727H216.754ZM225.794 72.2727V81H224.771L220.015 74.1477H219.93V81H218.873V72.2727H219.896L224.669 79.142H224.754V72.2727H225.794ZM231.283 81V72.2727H236.55V73.2102H232.34V76.1591H236.278V77.0966H232.34V80.0625H236.619V81H231.283ZM243.228 74.4545C243.177 74.0227 242.969 73.6875 242.606 73.4489C242.242 73.2102 241.796 73.0909 241.268 73.0909C240.881 73.0909 240.543 73.1534 240.254 73.2784C239.967 73.4034 239.742 73.5753 239.58 73.794C239.421 74.0128 239.342 74.2614 239.342 74.5398C239.342 74.7727 239.397 74.973 239.508 75.1406C239.621 75.3054 239.766 75.4432 239.942 75.554C240.119 75.6619 240.303 75.7514 240.496 75.8224C240.69 75.8906 240.867 75.946 241.029 75.9886L241.915 76.2273C242.143 76.2869 242.396 76.3693 242.674 76.4744C242.955 76.5795 243.224 76.723 243.479 76.9048C243.738 77.0838 243.951 77.3139 244.119 77.5952C244.286 77.8764 244.37 78.2216 244.37 78.6307C244.37 79.1023 244.246 79.5284 243.999 79.9091C243.755 80.2898 243.397 80.5923 242.925 80.8168C242.457 81.0412 241.887 81.1534 241.217 81.1534C240.592 81.1534 240.05 81.0526 239.593 80.8509C239.138 80.6491 238.781 80.3679 238.519 80.0071C238.261 79.6463 238.114 79.2273 238.08 78.75H239.171C239.2 79.0795 239.31 79.3523 239.504 79.5682C239.7 79.7812 239.947 79.9403 240.245 80.0455C240.546 80.1477 240.87 80.1989 241.217 80.1989C241.62 80.1989 241.982 80.1335 242.303 80.0028C242.624 79.8693 242.879 79.6847 243.066 79.4489C243.254 79.2102 243.347 78.9318 243.347 78.6136C243.347 78.3239 243.266 78.0881 243.104 77.9062C242.942 77.7244 242.729 77.5767 242.465 77.4631C242.201 77.3494 241.915 77.25 241.609 77.1648L240.535 76.858C239.853 76.6619 239.313 76.3821 238.915 76.0185C238.518 75.6548 238.319 75.179 238.319 74.5909C238.319 74.1023 238.451 73.6761 238.715 73.3125C238.982 72.946 239.34 72.6619 239.789 72.4602C240.241 72.2557 240.745 72.1534 241.302 72.1534C241.864 72.1534 242.364 72.2543 242.802 72.456C243.239 72.6548 243.586 72.9276 243.842 73.2741C244.1 73.6207 244.237 74.0142 244.251 74.4545H243.228ZM250.88 74.4545C250.829 74.0227 250.622 73.6875 250.258 73.4489C249.895 73.2102 249.449 73.0909 248.92 73.0909C248.534 73.0909 248.196 73.1534 247.906 73.2784C247.619 73.4034 247.395 73.5753 247.233 73.794C247.074 74.0128 246.994 74.2614 246.994 74.5398C246.994 74.7727 247.049 74.973 247.16 75.1406C247.274 75.3054 247.419 75.4432 247.595 75.554C247.771 75.6619 247.956 75.7514 248.149 75.8224C248.342 75.8906 248.52 75.946 248.681 75.9886L249.568 76.2273C249.795 76.2869 250.048 76.3693 250.326 76.4744C250.608 76.5795 250.876 76.723 251.132 76.9048C251.39 77.0838 251.603 77.3139 251.771 77.5952C251.939 77.8764 252.022 78.2216 252.022 78.6307C252.022 79.1023 251.899 79.5284 251.652 79.9091C251.407 80.2898 251.049 80.5923 250.578 80.8168C250.109 81.0412 249.539 81.1534 248.869 81.1534C248.244 81.1534 247.703 81.0526 247.245 80.8509C246.791 80.6491 246.433 80.3679 246.172 80.0071C245.913 79.6463 245.767 79.2273 245.733 78.75H246.824C246.852 79.0795 246.963 79.3523 247.156 79.5682C247.352 79.7812 247.599 79.9403 247.897 80.0455C248.199 80.1477 248.522 80.1989 248.869 80.1989C249.272 80.1989 249.635 80.1335 249.956 80.0028C250.277 79.8693 250.531 79.6847 250.718 79.4489C250.906 79.2102 251 78.9318 251 78.6136C251 78.3239 250.919 78.0881 250.757 77.9062C250.595 77.7244 250.382 77.5767 250.118 77.4631C249.853 77.3494 249.568 77.25 249.261 77.1648L248.187 76.858C247.505 76.6619 246.966 76.3821 246.568 76.0185C246.17 75.6548 245.971 75.179 245.971 74.5909C245.971 74.1023 246.103 73.6761 246.368 73.3125C246.635 72.946 246.993 72.6619 247.441 72.4602C247.893 72.2557 248.397 72.1534 248.954 72.1534C249.517 72.1534 250.017 72.2543 250.454 72.456C250.892 72.6548 251.238 72.9276 251.494 73.2741C251.752 73.6207 251.889 74.0142 251.903 74.4545H250.88ZM253.76 81V72.2727H259.027V73.2102H254.817V76.1591H258.754V77.0966H254.817V80.0625H259.095V81H253.76ZM267.852 72.2727V81H266.83L262.074 74.1477H261.989V81H260.932V72.2727H261.955L266.727 79.142H266.812V72.2727H267.852ZM269.49 73.2102V72.2727H276.035V73.2102H273.291V81H272.234V73.2102H269.49ZM278.723 72.2727V81H277.666V72.2727H278.723ZM281.2 81H280.092L283.297 72.2727H284.387L287.592 81H286.484L283.876 73.6534H283.808L281.2 81ZM281.609 77.5909H286.075V78.5284H281.609V77.5909ZM288.951 81V72.2727H290.008V80.0625H294.065V81H288.951ZM300.474 74.4545C300.423 74.0227 300.216 73.6875 299.852 73.4489C299.488 73.2102 299.042 73.0909 298.514 73.0909C298.127 73.0909 297.789 73.1534 297.5 73.2784C297.213 73.4034 296.988 73.5753 296.826 73.794C296.667 74.0128 296.588 74.2614 296.588 74.5398C296.588 74.7727 296.643 74.973 296.754 75.1406C296.868 75.3054 297.012 75.4432 297.189 75.554C297.365 75.6619 297.549 75.7514 297.743 75.8224C297.936 75.8906 298.113 75.946 298.275 75.9886L299.162 76.2273C299.389 76.2869 299.642 76.3693 299.92 76.4744C300.201 76.5795 300.47 76.723 300.725 76.9048C300.984 77.0838 301.197 77.3139 301.365 77.5952C301.532 77.8764 301.616 78.2216 301.616 78.6307C301.616 79.1023 301.493 79.5284 301.245 79.9091C301.001 80.2898 300.643 80.5923 300.172 80.8168C299.703 81.0412 299.133 81.1534 298.463 81.1534C297.838 81.1534 297.297 81.0526 296.839 80.8509C296.385 80.6491 296.027 80.3679 295.765 80.0071C295.507 79.6463 295.36 79.2273 295.326 78.75H296.417C296.446 79.0795 296.556 79.3523 296.75 79.5682C296.946 79.7812 297.193 79.9403 297.491 80.0455C297.792 80.1477 298.116 80.1989 298.463 80.1989C298.866 80.1989 299.228 80.1335 299.549 80.0028C299.87 79.8693 300.125 79.6847 300.312 79.4489C300.5 79.2102 300.593 78.9318 300.593 78.6136C300.593 78.3239 300.512 78.0881 300.35 77.9062C300.189 77.7244 299.975 77.5767 299.711 77.4631C299.447 77.3494 299.162 77.25 298.855 77.1648L297.781 76.858C297.099 76.6619 296.559 76.3821 296.162 76.0185C295.764 75.6548 295.565 75.179 295.565 74.5909C295.565 74.1023 295.697 73.6761 295.961 73.3125C296.228 72.946 296.586 72.6619 297.035 72.4602C297.487 72.2557 297.991 72.1534 298.548 72.1534C299.11 72.1534 299.61 72.2543 300.048 72.456C300.485 72.6548 300.832 72.9276 301.088 73.2741C301.346 73.6207 301.483 74.0142 301.497 74.4545H300.474Z" fill="white"/>
<g filter="url(#filter2_df_148_23)">
<rect x="167" y="103" width="334" height="209" rx="24" fill="url(#paint3_linear_148_23)" fill-opacity="0.75" shape-rendering="crispEdges"/>
<rect x="167.5" y="103.5" width="333" height="208" rx="23.5" stroke="url(#paint4_linear_148_23)" shape-rendering="crispEdges"/>
</g>
<rect x="202.5" y="203.5" width="261" height="16" rx="8" fill="black" stroke="black"/>
<rect x="201.5" y="226.5" width="141" height="16" rx="8" fill="black" stroke="black"/>
<rect x="201.5" y="248.5" width="192" height="16" rx="8" fill="black" stroke="black"/>
<rect x="202.5" y="271.5" width="247" height="16" rx="8" fill="black" stroke="black"/>
<path d="M272.83 156H270.614L277.023 138.545H279.205L285.614 156H283.398L278.182 141.307H278.045L272.83 156ZM273.648 149.182H282.58V151.057H273.648V149.182ZM293.173 152.932V141.682H295.082V152.932H293.173ZM288.503 148.261V146.352H299.753V148.261H288.503ZM316.289 156H310.903V138.545H316.528C318.221 138.545 319.67 138.895 320.874 139.594C322.079 140.287 323.002 141.284 323.644 142.585C324.286 143.881 324.607 145.432 324.607 147.239C324.607 149.057 324.283 150.622 323.636 151.935C322.988 153.241 322.045 154.247 320.806 154.952C319.567 155.651 318.062 156 316.289 156ZM313.016 154.125H316.153C317.596 154.125 318.792 153.847 319.741 153.29C320.69 152.733 321.397 151.94 321.863 150.912C322.329 149.884 322.562 148.659 322.562 147.239C322.562 145.83 322.332 144.616 321.871 143.599C321.411 142.577 320.724 141.793 319.809 141.247C318.894 140.696 317.755 140.42 316.391 140.42H313.016V154.125ZM330.266 138.545V156H328.153V138.545H330.266ZM346.436 144C346.249 143.426 346.001 142.912 345.695 142.457C345.393 141.997 345.033 141.605 344.612 141.281C344.197 140.957 343.726 140.71 343.197 140.54C342.669 140.369 342.089 140.284 341.459 140.284C340.425 140.284 339.484 140.551 338.638 141.085C337.791 141.619 337.118 142.406 336.618 143.446C336.118 144.486 335.868 145.761 335.868 147.273C335.868 148.784 336.121 150.06 336.626 151.099C337.132 152.139 337.817 152.926 338.68 153.46C339.544 153.994 340.516 154.261 341.595 154.261C342.595 154.261 343.476 154.048 344.237 153.622C345.004 153.19 345.601 152.582 346.027 151.798C346.459 151.009 346.675 150.08 346.675 149.011L347.322 149.148H342.072V147.273H348.72V149.148C348.72 150.585 348.413 151.835 347.8 152.898C347.192 153.96 346.351 154.784 345.277 155.369C344.209 155.949 342.982 156.239 341.595 156.239C340.05 156.239 338.692 155.875 337.521 155.148C336.357 154.42 335.447 153.386 334.794 152.045C334.146 150.705 333.822 149.114 333.822 147.273C333.822 145.892 334.007 144.651 334.376 143.548C334.751 142.44 335.28 141.497 335.962 140.719C336.643 139.94 337.45 139.344 338.382 138.929C339.314 138.514 340.339 138.307 341.459 138.307C342.379 138.307 343.237 138.446 344.033 138.724C344.834 138.997 345.547 139.386 346.172 139.892C346.803 140.392 347.328 140.991 347.749 141.69C348.169 142.384 348.459 143.153 348.618 144H346.436ZM354.454 138.545V156H352.34V138.545H354.454ZM357.737 140.42V138.545H370.828V140.42H365.339V156H363.226V140.42H357.737ZM372.767 156H370.551L376.96 138.545H379.142L385.551 156H383.335L378.119 141.307H377.983L372.767 156ZM373.585 149.182H382.517V151.057H373.585V149.182ZM388.27 156V138.545H390.384V154.125H398.497V156H388.27ZM408.52 156V138.545H414.418C415.787 138.545 416.906 138.793 417.776 139.287C418.651 139.776 419.298 140.438 419.719 141.273C420.139 142.108 420.349 143.04 420.349 144.068C420.349 145.097 420.139 146.031 419.719 146.872C419.304 147.713 418.662 148.384 417.793 148.884C416.923 149.378 415.81 149.625 414.452 149.625H410.224V147.75H414.384C415.321 147.75 416.074 147.588 416.642 147.264C417.21 146.94 417.622 146.503 417.878 145.952C418.139 145.395 418.27 144.767 418.27 144.068C418.27 143.369 418.139 142.744 417.878 142.193C417.622 141.642 417.207 141.21 416.634 140.898C416.06 140.58 415.298 140.42 414.349 140.42H410.634V156H408.52ZM422.689 156H420.473L426.882 138.545H429.064L435.473 156H433.257L428.041 141.307H427.905L422.689 156ZM423.507 149.182H432.439V151.057H423.507V149.182ZM447.737 142.909C447.635 142.045 447.22 141.375 446.493 140.898C445.766 140.42 444.874 140.182 443.817 140.182C443.044 140.182 442.368 140.307 441.788 140.557C441.214 140.807 440.766 141.151 440.442 141.588C440.124 142.026 439.964 142.523 439.964 143.08C439.964 143.545 440.075 143.946 440.297 144.281C440.524 144.611 440.814 144.886 441.166 145.108C441.518 145.324 441.888 145.503 442.274 145.645C442.661 145.781 443.016 145.892 443.339 145.977L445.112 146.455C445.567 146.574 446.072 146.739 446.629 146.949C447.192 147.159 447.729 147.446 448.24 147.81C448.757 148.168 449.183 148.628 449.518 149.19C449.854 149.753 450.021 150.443 450.021 151.261C450.021 152.205 449.774 153.057 449.28 153.818C448.791 154.58 448.075 155.185 447.132 155.634C446.195 156.082 445.055 156.307 443.714 156.307C442.464 156.307 441.382 156.105 440.467 155.702C439.558 155.298 438.842 154.736 438.32 154.014C437.803 153.293 437.51 152.455 437.442 151.5H439.624C439.68 152.159 439.902 152.705 440.288 153.136C440.68 153.562 441.175 153.881 441.771 154.091C442.374 154.295 443.021 154.398 443.714 154.398C444.521 154.398 445.246 154.267 445.888 154.006C446.53 153.739 447.038 153.369 447.413 152.898C447.788 152.42 447.976 151.864 447.976 151.227C447.976 150.648 447.814 150.176 447.49 149.812C447.166 149.449 446.74 149.153 446.212 148.926C445.683 148.699 445.112 148.5 444.499 148.33L442.351 147.716C440.987 147.324 439.908 146.764 439.112 146.037C438.317 145.31 437.919 144.358 437.919 143.182C437.919 142.205 438.183 141.352 438.712 140.625C439.246 139.892 439.962 139.324 440.859 138.92C441.763 138.511 442.771 138.307 443.885 138.307C445.01 138.307 446.01 138.509 446.885 138.912C447.76 139.31 448.453 139.855 448.964 140.548C449.482 141.241 449.754 142.028 449.783 142.909H447.737ZM463.042 142.909C462.94 142.045 462.525 141.375 461.798 140.898C461.07 140.42 460.178 140.182 459.121 140.182C458.349 140.182 457.673 140.307 457.093 140.557C456.519 140.807 456.07 141.151 455.746 141.588C455.428 142.026 455.269 142.523 455.269 143.08C455.269 143.545 455.38 143.946 455.602 144.281C455.829 144.611 456.119 144.886 456.471 145.108C456.823 145.324 457.192 145.503 457.579 145.645C457.965 145.781 458.32 145.892 458.644 145.977L460.417 146.455C460.871 146.574 461.377 146.739 461.934 146.949C462.496 147.159 463.033 147.446 463.545 147.81C464.062 148.168 464.488 148.628 464.823 149.19C465.158 149.753 465.326 150.443 465.326 151.261C465.326 152.205 465.079 153.057 464.585 153.818C464.096 154.58 463.38 155.185 462.437 155.634C461.499 156.082 460.36 156.307 459.019 156.307C457.769 156.307 456.687 156.105 455.772 155.702C454.863 155.298 454.147 154.736 453.624 154.014C453.107 153.293 452.815 152.455 452.746 151.5H454.928C454.985 152.159 455.207 152.705 455.593 153.136C455.985 153.562 456.479 153.881 457.076 154.091C457.678 154.295 458.326 154.398 459.019 154.398C459.826 154.398 460.55 154.267 461.192 154.006C461.835 153.739 462.343 153.369 462.718 152.898C463.093 152.42 463.281 151.864 463.281 151.227C463.281 150.648 463.119 150.176 462.795 149.812C462.471 149.449 462.045 149.153 461.516 148.926C460.988 148.699 460.417 148.5 459.803 148.33L457.656 147.716C456.292 147.324 455.212 146.764 454.417 146.037C453.621 145.31 453.224 144.358 453.224 143.182C453.224 142.205 453.488 141.352 454.016 140.625C454.55 139.892 455.266 139.324 456.164 138.92C457.067 138.511 458.076 138.307 459.19 138.307C460.315 138.307 461.315 138.509 462.19 138.912C463.065 139.31 463.758 139.855 464.269 140.548C464.786 141.241 465.059 142.028 465.087 142.909H463.042Z" fill="white"/>
<path d="M271.057 178V169.273H274.108C274.716 169.273 275.217 169.378 275.612 169.588C276.007 169.795 276.301 170.075 276.494 170.428C276.688 170.777 276.784 171.165 276.784 171.591C276.784 171.966 276.717 172.276 276.584 172.52C276.453 172.764 276.28 172.957 276.064 173.099C275.851 173.241 275.619 173.347 275.369 173.415V173.5C275.636 173.517 275.905 173.611 276.175 173.781C276.445 173.952 276.67 174.196 276.852 174.514C277.034 174.832 277.125 175.222 277.125 175.682C277.125 176.119 277.026 176.513 276.827 176.862C276.628 177.212 276.314 177.489 275.885 177.693C275.456 177.898 274.898 178 274.21 178H271.057ZM272.114 177.062H274.21C274.901 177.062 275.391 176.929 275.68 176.662C275.973 176.392 276.119 176.065 276.119 175.682C276.119 175.386 276.044 175.114 275.893 174.864C275.743 174.611 275.528 174.409 275.25 174.259C274.972 174.105 274.642 174.028 274.261 174.028H272.114V177.062ZM272.114 173.108H274.074C274.392 173.108 274.679 173.045 274.935 172.92C275.193 172.795 275.398 172.619 275.548 172.392C275.702 172.165 275.778 171.898 275.778 171.591C275.778 171.207 275.645 170.882 275.378 170.615C275.111 170.345 274.688 170.21 274.108 170.21H272.114V173.108ZM278.112 169.273H279.322L281.742 173.347H281.844L284.265 169.273H285.475L282.322 174.403V178H281.265V174.403L278.112 169.273ZM290.217 178V169.273H291.274V177.062H295.331V178H290.217ZM296.967 178V169.273H302.234V170.21H298.024V173.159H301.961V174.097H298.024V177.062H302.302V178H296.967ZM304.497 178H303.389L306.593 169.273H307.684L310.889 178H309.781L307.173 170.653H307.105L304.497 178ZM304.906 174.591H309.372V175.528H304.906V174.591ZM312.248 178V169.273H315.197C315.879 169.273 316.439 169.389 316.876 169.622C317.314 169.852 317.637 170.169 317.848 170.572C318.058 170.976 318.163 171.435 318.163 171.949C318.163 172.463 318.058 172.919 317.848 173.317C317.637 173.714 317.315 174.027 316.88 174.254C316.446 174.479 315.89 174.591 315.214 174.591H312.828V173.636H315.18C315.646 173.636 316.021 173.568 316.305 173.432C316.592 173.295 316.799 173.102 316.927 172.852C317.058 172.599 317.123 172.298 317.123 171.949C317.123 171.599 317.058 171.294 316.927 171.033C316.797 170.771 316.588 170.57 316.301 170.428C316.014 170.283 315.635 170.21 315.163 170.21H313.305V178H312.248ZM316.356 174.08L318.504 178H317.277L315.163 174.08H316.356ZM326.844 169.273V178H325.822L321.066 171.148H320.981V178H319.924V169.273H320.947L325.719 176.142H325.805V169.273H326.844ZM332.334 178V169.273H337.601V170.21H333.391V173.159H337.328V174.097H333.391V177.062H337.669V178H332.334ZM342.199 178H339.506V169.273H342.319C343.165 169.273 343.89 169.447 344.492 169.797C345.094 170.143 345.556 170.642 345.877 171.293C346.198 171.94 346.358 172.716 346.358 173.619C346.358 174.528 346.196 175.311 345.873 175.967C345.549 176.621 345.077 177.124 344.458 177.476C343.838 177.825 343.086 178 342.199 178ZM340.563 177.062H342.131C342.853 177.062 343.451 176.923 343.925 176.645C344.4 176.366 344.753 175.97 344.986 175.456C345.219 174.942 345.336 174.33 345.336 173.619C345.336 172.915 345.221 172.308 344.99 171.8C344.76 171.288 344.417 170.896 343.959 170.624C343.502 170.348 342.932 170.21 342.25 170.21H340.563V177.062ZM353.858 169.273H354.915V175.051C354.915 175.648 354.775 176.18 354.493 176.649C354.215 177.115 353.821 177.483 353.313 177.753C352.804 178.02 352.208 178.153 351.523 178.153C350.838 178.153 350.242 178.02 349.733 177.753C349.225 177.483 348.83 177.115 348.549 176.649C348.27 176.18 348.131 175.648 348.131 175.051V169.273H349.188V174.966C349.188 175.392 349.282 175.771 349.469 176.104C349.657 176.433 349.924 176.693 350.27 176.884C350.62 177.071 351.037 177.165 351.523 177.165C352.009 177.165 352.426 177.071 352.776 176.884C353.125 176.693 353.392 176.433 353.577 176.104C353.765 175.771 353.858 175.392 353.858 174.966V169.273ZM364.048 172H362.991C362.929 171.696 362.82 171.429 362.663 171.199C362.51 170.969 362.322 170.776 362.101 170.619C361.882 170.46 361.639 170.341 361.372 170.261C361.105 170.182 360.827 170.142 360.537 170.142C360.009 170.142 359.53 170.276 359.101 170.543C358.675 170.81 358.335 171.203 358.082 171.723C357.832 172.243 357.707 172.881 357.707 173.636C357.707 174.392 357.832 175.03 358.082 175.55C358.335 176.07 358.675 176.463 359.101 176.73C359.53 176.997 360.009 177.131 360.537 177.131C360.827 177.131 361.105 177.091 361.372 177.011C361.639 176.932 361.882 176.814 362.101 176.658C362.322 176.499 362.51 176.304 362.663 176.074C362.82 175.841 362.929 175.574 362.991 175.273H364.048C363.969 175.719 363.824 176.118 363.614 176.47C363.403 176.822 363.142 177.122 362.83 177.369C362.517 177.614 362.166 177.8 361.777 177.928C361.391 178.055 360.977 178.119 360.537 178.119C359.793 178.119 359.131 177.938 358.551 177.574C357.972 177.21 357.516 176.693 357.183 176.023C356.851 175.352 356.685 174.557 356.685 173.636C356.685 172.716 356.851 171.92 357.183 171.25C357.516 170.58 357.972 170.062 358.551 169.699C359.131 169.335 359.793 169.153 360.537 169.153C360.977 169.153 361.391 169.217 361.777 169.345C362.166 169.473 362.517 169.661 362.83 169.908C363.142 170.152 363.403 170.45 363.614 170.803C363.824 171.152 363.969 171.551 364.048 172ZM366.114 178H365.006L368.211 169.273H369.301L372.506 178H371.398L368.79 170.653H368.722L366.114 178ZM366.523 174.591H370.989V175.528H366.523V174.591ZM372.369 170.21V169.273H378.914V170.21H376.17V178H375.113V170.21H372.369ZM381.602 169.273V178H380.545V169.273H381.602ZM391.085 173.636C391.085 174.557 390.918 175.352 390.586 176.023C390.254 176.693 389.798 177.21 389.218 177.574C388.638 177.938 387.977 178.119 387.232 178.119C386.488 178.119 385.826 177.938 385.246 177.574C384.667 177.21 384.211 176.693 383.879 176.023C383.546 175.352 383.38 174.557 383.38 173.636C383.38 172.716 383.546 171.92 383.879 171.25C384.211 170.58 384.667 170.062 385.246 169.699C385.826 169.335 386.488 169.153 387.232 169.153C387.977 169.153 388.638 169.335 389.218 169.699C389.798 170.062 390.254 170.58 390.586 171.25C390.918 171.92 391.085 172.716 391.085 173.636ZM390.062 173.636C390.062 172.881 389.935 172.243 389.683 171.723C389.433 171.203 389.093 170.81 388.664 170.543C388.238 170.276 387.761 170.142 387.232 170.142C386.704 170.142 386.225 170.276 385.796 170.543C385.37 170.81 385.031 171.203 384.778 171.723C384.528 172.243 384.403 172.881 384.403 173.636C384.403 174.392 384.528 175.03 384.778 175.55C385.031 176.07 385.37 176.463 385.796 176.73C386.225 176.997 386.704 177.131 387.232 177.131C387.761 177.131 388.238 176.997 388.664 176.73C389.093 176.463 389.433 176.07 389.683 175.55C389.935 175.03 390.062 174.392 390.062 173.636ZM399.782 169.273V178H398.759L394.004 171.148H393.918V178H392.862V169.273H393.884L398.657 176.142H398.742V169.273H399.782Z" fill="white"/>
<rect x="196" y="127" width="61" height="61" rx="16" fill="#DFCAE9"/>
<g filter="url(#filter3_dii_148_23)">
<path d="M228.665 144.383L227.153 141.396C226.904 140.877 226.122 140.859 225.847 141.396L224.335 144.383L220.984 144.852C220.388 144.94 220.132 145.658 220.574 146.089L223.009 148.402L222.432 151.658C222.342 152.239 222.957 152.689 223.508 152.42L226.513 150.87L229.498 152.395C230.049 152.664 230.67 152.214 230.574 151.633L229.998 148.377L232.432 146.089C232.868 145.665 232.618 144.946 232.022 144.852L228.672 144.383H228.665ZM222.4 157.001C221.266 157.001 220.35 157.895 220.35 159.001V171C220.35 172.106 221.266 173 222.4 173H230.6C231.734 173 232.65 172.106 232.65 171V159.001C232.65 157.895 231.734 157.001 230.6 157.001H222.4ZM208.05 161.001C206.916 161.001 206 161.895 206 163.001V171C206 172.106 206.916 173 208.05 173H216.25C217.384 173 218.3 172.106 218.3 171V163.001C218.3 161.895 217.384 161.001 216.25 161.001H208.05ZM234.7 167V171C234.7 172.106 235.616 173 236.75 173H244.95C246.084 173 247 172.106 247 171V167C247 165.894 246.084 165.001 244.95 165.001H236.75C235.616 165.001 234.7 165.894 234.7 167Z" fill="url(#paint5_linear_148_23)"/>
</g>
<g filter="url(#filter4_df_148_23)">
<rect x="231" y="202" width="334" height="209" rx="24" fill="url(#paint6_linear_148_23)" fill-opacity="0.75" shape-rendering="crispEdges"/>
<rect x="231.5" y="202.5" width="333" height="208" rx="23.5" stroke="url(#paint7_linear_148_23)" shape-rendering="crispEdges"/>
</g>
<rect x="266.5" y="302.5" width="261" height="16" rx="8" fill="black" stroke="black"/>
<rect x="265.5" y="325.5" width="141" height="16" rx="8" fill="black" stroke="black"/>
<rect x="265.5" y="347.5" width="192" height="16" rx="8" fill="black" stroke="black"/>
<rect x="266.5" y="370.5" width="247" height="16" rx="8" fill="black" stroke="black"/>
<path d="M345.659 241.909C345.557 241.045 345.142 240.375 344.415 239.898C343.688 239.42 342.795 239.182 341.739 239.182C340.966 239.182 340.29 239.307 339.71 239.557C339.136 239.807 338.688 240.151 338.364 240.588C338.045 241.026 337.886 241.523 337.886 242.08C337.886 242.545 337.997 242.946 338.219 243.281C338.446 243.611 338.736 243.886 339.088 244.108C339.44 244.324 339.81 244.503 340.196 244.645C340.582 244.781 340.938 244.892 341.261 244.977L343.034 245.455C343.489 245.574 343.994 245.739 344.551 245.949C345.114 246.159 345.651 246.446 346.162 246.81C346.679 247.168 347.105 247.628 347.44 248.19C347.776 248.753 347.943 249.443 347.943 250.261C347.943 251.205 347.696 252.057 347.202 252.818C346.713 253.58 345.997 254.185 345.054 254.634C344.116 255.082 342.977 255.307 341.636 255.307C340.386 255.307 339.304 255.105 338.389 254.702C337.48 254.298 336.764 253.736 336.241 253.014C335.724 252.293 335.432 251.455 335.364 250.5H337.545C337.602 251.159 337.824 251.705 338.21 252.136C338.602 252.562 339.097 252.881 339.693 253.091C340.295 253.295 340.943 253.398 341.636 253.398C342.443 253.398 343.168 253.267 343.81 253.006C344.452 252.739 344.96 252.369 345.335 251.898C345.71 251.42 345.898 250.864 345.898 250.227C345.898 249.648 345.736 249.176 345.412 248.812C345.088 248.449 344.662 248.153 344.134 247.926C343.605 247.699 343.034 247.5 342.42 247.33L340.273 246.716C338.909 246.324 337.83 245.764 337.034 245.037C336.239 244.31 335.841 243.358 335.841 242.182C335.841 241.205 336.105 240.352 336.634 239.625C337.168 238.892 337.884 238.324 338.781 237.92C339.685 237.511 340.693 237.307 341.807 237.307C342.932 237.307 343.932 237.509 344.807 237.912C345.682 238.31 346.375 238.855 346.886 239.548C347.403 240.241 347.676 241.028 347.705 241.909H345.659ZM360.964 241.909C360.862 241.045 360.447 240.375 359.719 239.898C358.992 239.42 358.1 239.182 357.043 239.182C356.271 239.182 355.594 239.307 355.015 239.557C354.441 239.807 353.992 240.151 353.668 240.588C353.35 241.026 353.191 241.523 353.191 242.08C353.191 242.545 353.302 242.946 353.523 243.281C353.751 243.611 354.04 243.886 354.393 244.108C354.745 244.324 355.114 244.503 355.501 244.645C355.887 244.781 356.242 244.892 356.566 244.977L358.339 245.455C358.793 245.574 359.299 245.739 359.856 245.949C360.418 246.159 360.955 246.446 361.467 246.81C361.984 247.168 362.41 247.628 362.745 248.19C363.08 248.753 363.248 249.443 363.248 250.261C363.248 251.205 363.001 252.057 362.506 252.818C362.018 253.58 361.302 254.185 360.359 254.634C359.421 255.082 358.282 255.307 356.941 255.307C355.691 255.307 354.609 255.105 353.694 254.702C352.785 254.298 352.069 253.736 351.546 253.014C351.029 252.293 350.737 251.455 350.668 250.5H352.85C352.907 251.159 353.129 251.705 353.515 252.136C353.907 252.562 354.401 252.881 354.998 253.091C355.6 253.295 356.248 253.398 356.941 253.398C357.748 253.398 358.472 253.267 359.114 253.006C359.756 252.739 360.265 252.369 360.64 251.898C361.015 251.42 361.202 250.864 361.202 250.227C361.202 249.648 361.04 249.176 360.717 248.812C360.393 248.449 359.967 248.153 359.438 247.926C358.91 247.699 358.339 247.5 357.725 247.33L355.577 246.716C354.214 246.324 353.134 245.764 352.339 245.037C351.543 244.31 351.146 243.358 351.146 242.182C351.146 241.205 351.41 240.352 351.938 239.625C352.472 238.892 353.188 238.324 354.086 237.92C354.989 237.511 355.998 237.307 357.112 237.307C358.237 237.307 359.237 237.509 360.112 237.912C360.987 238.31 361.68 238.855 362.191 239.548C362.708 240.241 362.981 241.028 363.009 241.909H360.964ZM378.859 255H373.473V237.545H379.098C380.791 237.545 382.24 237.895 383.445 238.594C384.649 239.287 385.572 240.284 386.214 241.585C386.857 242.881 387.178 244.432 387.178 246.239C387.178 248.057 386.854 249.622 386.206 250.935C385.558 252.241 384.615 253.247 383.376 253.952C382.138 254.651 380.632 255 378.859 255ZM375.587 253.125H378.723C380.166 253.125 381.362 252.847 382.311 252.29C383.26 251.733 383.967 250.94 384.433 249.912C384.899 248.884 385.132 247.659 385.132 246.239C385.132 244.83 384.902 243.616 384.442 242.599C383.982 241.577 383.294 240.793 382.379 240.247C381.464 239.696 380.325 239.42 378.962 239.42H375.587V253.125ZM392.837 237.545V255H390.723V237.545H392.837ZM409.006 243C408.819 242.426 408.572 241.912 408.265 241.457C407.964 240.997 407.603 240.605 407.183 240.281C406.768 239.957 406.296 239.71 405.768 239.54C405.239 239.369 404.66 239.284 404.029 239.284C402.995 239.284 402.055 239.551 401.208 240.085C400.362 240.619 399.688 241.406 399.188 242.446C398.688 243.486 398.438 244.761 398.438 246.273C398.438 247.784 398.691 249.06 399.197 250.099C399.702 251.139 400.387 251.926 401.251 252.46C402.114 252.994 403.086 253.261 404.165 253.261C405.165 253.261 406.046 253.048 406.808 252.622C407.575 252.19 408.171 251.582 408.597 250.798C409.029 250.009 409.245 249.08 409.245 248.011L409.893 248.148H404.643V246.273H411.29V248.148C411.29 249.585 410.984 250.835 410.37 251.898C409.762 252.96 408.921 253.784 407.847 254.369C406.779 254.949 405.552 255.239 404.165 255.239C402.62 255.239 401.262 254.875 400.092 254.148C398.927 253.42 398.018 252.386 397.364 251.045C396.717 249.705 396.393 248.114 396.393 246.273C396.393 244.892 396.577 243.651 396.947 242.548C397.322 241.44 397.85 240.497 398.532 239.719C399.214 238.94 400.021 238.344 400.952 237.929C401.884 237.514 402.91 237.307 404.029 237.307C404.95 237.307 405.808 237.446 406.603 237.724C407.404 237.997 408.117 238.386 408.742 238.892C409.373 239.392 409.898 239.991 410.319 240.69C410.739 241.384 411.029 242.153 411.188 243H409.006ZM417.024 237.545V255H414.911V237.545H417.024ZM420.308 239.42V237.545H433.398V239.42H427.91V255H425.796V239.42H420.308ZM435.337 255H433.121L439.531 237.545H441.712L448.121 255H445.906L440.69 240.307H440.553L435.337 255ZM436.156 248.182H445.087V250.057H436.156V248.182ZM450.84 255V237.545H452.954V253.125H461.067V255H450.84ZM471.09 255V237.545H476.988C478.357 237.545 479.477 237.793 480.346 238.287C481.221 238.776 481.869 239.438 482.289 240.273C482.71 241.108 482.92 242.04 482.92 243.068C482.92 244.097 482.71 245.031 482.289 245.872C481.874 246.713 481.232 247.384 480.363 247.884C479.494 248.378 478.38 248.625 477.022 248.625H472.795V246.75H476.954C477.891 246.75 478.644 246.588 479.212 246.264C479.781 245.94 480.192 245.503 480.448 244.952C480.71 244.395 480.84 243.767 480.84 243.068C480.84 242.369 480.71 241.744 480.448 241.193C480.192 240.642 479.778 240.21 479.204 239.898C478.63 239.58 477.869 239.42 476.92 239.42H473.204V255H471.09ZM485.259 255H483.043L489.452 237.545H491.634L498.043 255H495.827L490.612 240.307H490.475L485.259 255ZM486.077 248.182H495.009V250.057H486.077V248.182ZM510.308 241.909C510.205 241.045 509.79 240.375 509.063 239.898C508.336 239.42 507.444 239.182 506.387 239.182C505.614 239.182 504.938 239.307 504.359 239.557C503.785 239.807 503.336 240.151 503.012 240.588C502.694 241.026 502.535 241.523 502.535 242.08C502.535 242.545 502.646 242.946 502.867 243.281C503.094 243.611 503.384 243.886 503.737 244.108C504.089 244.324 504.458 244.503 504.844 244.645C505.231 244.781 505.586 244.892 505.91 244.977L507.683 245.455C508.137 245.574 508.643 245.739 509.2 245.949C509.762 246.159 510.299 246.446 510.81 246.81C511.327 247.168 511.754 247.628 512.089 248.19C512.424 248.753 512.592 249.443 512.592 250.261C512.592 251.205 512.344 252.057 511.85 252.818C511.362 253.58 510.646 254.185 509.702 254.634C508.765 255.082 507.626 255.307 506.285 255.307C505.035 255.307 503.952 255.105 503.038 254.702C502.129 254.298 501.413 253.736 500.89 253.014C500.373 252.293 500.08 251.455 500.012 250.5H502.194C502.251 251.159 502.472 251.705 502.859 252.136C503.251 252.562 503.745 252.881 504.342 253.091C504.944 253.295 505.592 253.398 506.285 253.398C507.092 253.398 507.816 253.267 508.458 253.006C509.1 252.739 509.609 252.369 509.984 251.898C510.359 251.42 510.546 250.864 510.546 250.227C510.546 249.648 510.384 249.176 510.06 248.812C509.737 248.449 509.31 248.153 508.782 247.926C508.254 247.699 507.683 247.5 507.069 247.33L504.921 246.716C503.558 246.324 502.478 245.764 501.683 245.037C500.887 244.31 500.489 243.358 500.489 242.182C500.489 241.205 500.754 240.352 501.282 239.625C501.816 238.892 502.532 238.324 503.43 237.92C504.333 237.511 505.342 237.307 506.455 237.307C507.58 237.307 508.58 237.509 509.455 237.912C510.33 238.31 511.023 238.855 511.535 239.548C512.052 240.241 512.325 241.028 512.353 241.909H510.308ZM525.612 241.909C525.51 241.045 525.095 240.375 524.368 239.898C523.641 239.42 522.749 239.182 521.692 239.182C520.919 239.182 520.243 239.307 519.663 239.557C519.089 239.807 518.641 240.151 518.317 240.588C517.999 241.026 517.839 241.523 517.839 242.08C517.839 242.545 517.95 242.946 518.172 243.281C518.399 243.611 518.689 243.886 519.041 244.108C519.393 244.324 519.763 244.503 520.149 244.645C520.536 244.781 520.891 244.892 521.214 244.977L522.987 245.455C523.442 245.574 523.947 245.739 524.504 245.949C525.067 246.159 525.604 246.446 526.115 246.81C526.632 247.168 527.058 247.628 527.393 248.19C527.729 248.753 527.896 249.443 527.896 250.261C527.896 251.205 527.649 252.057 527.155 252.818C526.666 253.58 525.95 254.185 525.007 254.634C524.07 255.082 522.93 255.307 521.589 255.307C520.339 255.307 519.257 255.105 518.342 254.702C517.433 254.298 516.717 253.736 516.195 253.014C515.678 252.293 515.385 251.455 515.317 250.5H517.499C517.555 251.159 517.777 251.705 518.163 252.136C518.555 252.562 519.05 252.881 519.646 253.091C520.249 253.295 520.896 253.398 521.589 253.398C522.396 253.398 523.121 253.267 523.763 253.006C524.405 252.739 524.913 252.369 525.288 251.898C525.663 251.42 525.851 250.864 525.851 250.227C525.851 249.648 525.689 249.176 525.365 248.812C525.041 248.449 524.615 248.153 524.087 247.926C523.558 247.699 522.987 247.5 522.374 247.33L520.226 246.716C518.862 246.324 517.783 245.764 516.987 245.037C516.192 244.31 515.794 243.358 515.794 242.182C515.794 241.205 516.058 240.352 516.587 239.625C517.121 238.892 517.837 238.324 518.734 237.92C519.638 237.511 520.646 237.307 521.76 237.307C522.885 237.307 523.885 237.509 524.76 237.912C525.635 238.31 526.328 238.855 526.839 239.548C527.357 240.241 527.629 241.028 527.658 241.909H525.612Z" fill="white"/>
<path d="M335.057 277V268.273H338.108C338.716 268.273 339.217 268.378 339.612 268.588C340.007 268.795 340.301 269.075 340.494 269.428C340.688 269.777 340.784 270.165 340.784 270.591C340.784 270.966 340.717 271.276 340.584 271.52C340.453 271.764 340.28 271.957 340.064 272.099C339.851 272.241 339.619 272.347 339.369 272.415V272.5C339.636 272.517 339.905 272.611 340.175 272.781C340.445 272.952 340.67 273.196 340.852 273.514C341.034 273.832 341.125 274.222 341.125 274.682C341.125 275.119 341.026 275.513 340.827 275.862C340.628 276.212 340.314 276.489 339.885 276.693C339.456 276.898 338.898 277 338.21 277H335.057ZM336.114 276.062H338.21C338.901 276.062 339.391 275.929 339.68 275.662C339.973 275.392 340.119 275.065 340.119 274.682C340.119 274.386 340.044 274.114 339.893 273.864C339.743 273.611 339.528 273.409 339.25 273.259C338.972 273.105 338.642 273.028 338.261 273.028H336.114V276.062ZM336.114 272.108H338.074C338.392 272.108 338.679 272.045 338.935 271.92C339.193 271.795 339.398 271.619 339.548 271.392C339.702 271.165 339.778 270.898 339.778 270.591C339.778 270.207 339.645 269.882 339.378 269.615C339.111 269.345 338.688 269.21 338.108 269.21H336.114V272.108ZM342.112 268.273H343.322L345.742 272.347H345.844L348.265 268.273H349.475L346.322 273.403V277H345.265V273.403L342.112 268.273ZM358.99 270.455C358.939 270.023 358.731 269.688 358.368 269.449C358.004 269.21 357.558 269.091 357.029 269.091C356.643 269.091 356.305 269.153 356.015 269.278C355.728 269.403 355.504 269.575 355.342 269.794C355.183 270.013 355.103 270.261 355.103 270.54C355.103 270.773 355.159 270.973 355.27 271.141C355.383 271.305 355.528 271.443 355.704 271.554C355.88 271.662 356.065 271.751 356.258 271.822C356.451 271.891 356.629 271.946 356.791 271.989L357.677 272.227C357.904 272.287 358.157 272.369 358.436 272.474C358.717 272.58 358.985 272.723 359.241 272.905C359.5 273.084 359.713 273.314 359.88 273.595C360.048 273.876 360.132 274.222 360.132 274.631C360.132 275.102 360.008 275.528 359.761 275.909C359.517 276.29 359.159 276.592 358.687 276.817C358.218 277.041 357.649 277.153 356.978 277.153C356.353 277.153 355.812 277.053 355.355 276.851C354.9 276.649 354.542 276.368 354.281 276.007C354.022 275.646 353.876 275.227 353.842 274.75H354.933C354.961 275.08 355.072 275.352 355.265 275.568C355.461 275.781 355.708 275.94 356.007 276.045C356.308 276.148 356.632 276.199 356.978 276.199C357.382 276.199 357.744 276.134 358.065 276.003C358.386 275.869 358.64 275.685 358.828 275.449C359.015 275.21 359.109 274.932 359.109 274.614C359.109 274.324 359.028 274.088 358.866 273.906C358.704 273.724 358.491 273.577 358.227 273.463C357.963 273.349 357.677 273.25 357.37 273.165L356.297 272.858C355.615 272.662 355.075 272.382 354.677 272.018C354.279 271.655 354.081 271.179 354.081 270.591C354.081 270.102 354.213 269.676 354.477 269.312C354.744 268.946 355.102 268.662 355.551 268.46C356.002 268.256 356.507 268.153 357.064 268.153C357.626 268.153 358.126 268.254 358.564 268.456C359.001 268.655 359.348 268.928 359.603 269.274C359.862 269.621 359.998 270.014 360.012 270.455H358.99ZM368.79 268.273V277H367.767L363.011 270.148H362.926V277H361.869V268.273H362.892L367.665 275.142H367.75V268.273H368.79ZM371.262 277H370.154L373.359 268.273H374.45L377.654 277H376.547L373.939 269.653H373.87L371.262 277ZM371.672 273.591H376.137V274.528H371.672V273.591ZM379.014 277V268.273H381.963C382.647 268.273 383.207 268.396 383.642 268.643C384.079 268.888 384.403 269.219 384.613 269.636C384.824 270.054 384.929 270.52 384.929 271.034C384.929 271.548 384.824 272.016 384.613 272.436C384.406 272.857 384.085 273.192 383.65 273.442C383.216 273.689 382.659 273.812 381.98 273.812H379.866V272.875H381.946C382.414 272.875 382.791 272.794 383.075 272.632C383.359 272.47 383.565 272.251 383.693 271.976C383.824 271.697 383.889 271.384 383.889 271.034C383.889 270.685 383.824 270.372 383.693 270.097C383.565 269.821 383.358 269.605 383.071 269.449C382.784 269.29 382.403 269.21 381.929 269.21H380.071V277H379.014ZM386.631 277V268.273H389.58C390.265 268.273 390.824 268.396 391.259 268.643C391.696 268.888 392.02 269.219 392.23 269.636C392.441 270.054 392.546 270.52 392.546 271.034C392.546 271.548 392.441 272.016 392.23 272.436C392.023 272.857 391.702 273.192 391.267 273.442C390.833 273.689 390.276 273.812 389.597 273.812H387.483V272.875H389.563C390.032 272.875 390.408 272.794 390.692 272.632C390.976 272.47 391.182 272.251 391.31 271.976C391.441 271.697 391.506 271.384 391.506 271.034C391.506 270.685 391.441 270.372 391.31 270.097C391.182 269.821 390.975 269.605 390.688 269.449C390.401 269.29 390.02 269.21 389.546 269.21H387.688V277H386.631ZM393.498 268.273H394.708L397.129 272.347H397.231L399.652 268.273H400.862L397.708 273.403V277H396.652V273.403L393.498 268.273ZM410.376 270.455C410.325 270.023 410.118 269.688 409.754 269.449C409.391 269.21 408.945 269.091 408.416 269.091C408.03 269.091 407.692 269.153 407.402 269.278C407.115 269.403 406.891 269.575 406.729 269.794C406.57 270.013 406.49 270.261 406.49 270.54C406.49 270.773 406.545 270.973 406.656 271.141C406.77 271.305 406.915 271.443 407.091 271.554C407.267 271.662 407.452 271.751 407.645 271.822C407.838 271.891 408.016 271.946 408.178 271.989L409.064 272.227C409.291 272.287 409.544 272.369 409.822 272.474C410.104 272.58 410.372 272.723 410.628 272.905C410.886 273.084 411.099 273.314 411.267 273.595C411.435 273.876 411.518 274.222 411.518 274.631C411.518 275.102 411.395 275.528 411.148 275.909C410.903 276.29 410.545 276.592 410.074 276.817C409.605 277.041 409.036 277.153 408.365 277.153C407.74 277.153 407.199 277.053 406.741 276.851C406.287 276.649 405.929 276.368 405.668 276.007C405.409 275.646 405.263 275.227 405.229 274.75H406.32C406.348 275.08 406.459 275.352 406.652 275.568C406.848 275.781 407.095 275.94 407.393 276.045C407.695 276.148 408.018 276.199 408.365 276.199C408.768 276.199 409.131 276.134 409.452 276.003C409.773 275.869 410.027 275.685 410.214 275.449C410.402 275.21 410.496 274.932 410.496 274.614C410.496 274.324 410.415 274.088 410.253 273.906C410.091 273.724 409.878 273.577 409.614 273.463C409.349 273.349 409.064 273.25 408.757 273.165L407.683 272.858C407.001 272.662 406.462 272.382 406.064 272.018C405.666 271.655 405.467 271.179 405.467 270.591C405.467 270.102 405.599 269.676 405.864 269.312C406.131 268.946 406.489 268.662 406.938 268.46C407.389 268.256 407.893 268.153 408.45 268.153C409.013 268.153 409.513 268.254 409.95 268.456C410.388 268.655 410.734 268.928 410.99 269.274C411.249 269.621 411.385 270.014 411.399 270.455H410.376ZM420.176 268.273V277H419.154L414.398 270.148H414.313V277H413.256V268.273H414.279L419.051 275.142H419.137V268.273H420.176ZM422.291 277V268.273H427.558V269.21H423.348V272.159H427.286V273.097H423.348V276.062H427.626V277H422.291ZM429.821 277H428.713L431.918 268.273H433.009L436.213 277H435.105L432.497 269.653H432.429L429.821 277ZM430.23 273.591H434.696V274.528H430.23V273.591ZM437.572 277V268.273H438.629V272.602H438.732L442.652 268.273H444.033L440.368 272.21L444.033 277H442.754L439.72 272.943L438.629 274.17V277H437.572ZM445.401 277V268.273H450.668V269.21H446.457V272.159H450.395V273.097H446.457V276.062H450.736V277H445.401ZM452.572 277V268.273H455.521C456.203 268.273 456.763 268.389 457.2 268.622C457.638 268.852 457.962 269.169 458.172 269.572C458.382 269.976 458.487 270.435 458.487 270.949C458.487 271.463 458.382 271.919 458.172 272.317C457.962 272.714 457.639 273.027 457.205 273.254C456.77 273.479 456.214 273.591 455.538 273.591H453.152V272.636H455.504C455.97 272.636 456.345 272.568 456.629 272.432C456.916 272.295 457.124 272.102 457.251 271.852C457.382 271.599 457.447 271.298 457.447 270.949C457.447 270.599 457.382 270.294 457.251 270.033C457.121 269.771 456.912 269.57 456.625 269.428C456.338 269.283 455.959 269.21 455.487 269.21H453.629V277H452.572ZM456.68 273.08L458.828 277H457.601L455.487 273.08H456.68Z" fill="white"/>
<rect x="260" y="226" width="61" height="61" rx="16" fill="#FDC500"/>
<g filter="url(#filter5_dii_148_23)">
<path d="M296.65 240C292.569 240 286.4 242.062 286.4 242.062V250.312C289.475 250.312 291.269 251.344 293.062 252.375C294.856 253.406 296.65 254.438 299.725 254.438C303.338 254.438 311 253.406 311 248.25C311 243.094 302.8 240 296.65 240ZM278.2 246.188C278.2 248.463 280.039 250.312 282.3 250.312H284.35V242.062H282.3C280.039 242.062 278.2 243.912 278.2 246.188ZM288.45 273C294.6 273 302.8 269.906 302.8 264.75C302.8 259.594 295.138 258.562 291.525 258.562C288.45 258.562 286.656 259.594 284.862 260.625C283.069 261.656 281.275 262.688 278.2 262.688V270.938C278.2 270.938 284.369 273 288.45 273ZM270 266.812C270 269.088 271.839 270.938 274.1 270.938H276.15V262.688H274.1C271.839 262.688 270 264.537 270 266.812Z" fill="url(#paint8_linear_148_23)"/>
</g>
<g filter="url(#filter6_df_148_23)">
<rect x="106" y="333" width="334" height="209" rx="24" fill="url(#paint9_linear_148_23)" fill-opacity="0.75" shape-rendering="crispEdges"/>
<rect x="106.5" y="333.5" width="333" height="208" rx="23.5" stroke="url(#paint10_linear_148_23)" shape-rendering="crispEdges"/>
</g>
<rect x="141.5" y="433.5" width="261" height="16" rx="8" fill="black" stroke="black"/>
<rect x="140.5" y="456.5" width="141" height="16" rx="8" fill="black" stroke="black"/>
<rect x="140.5" y="478.5" width="192" height="16" rx="8" fill="black" stroke="black"/>
<rect x="141.5" y="501.5" width="247" height="16" rx="8" fill="black" stroke="black"/>
<path d="M216.5 386H211.114V368.545H216.739C218.432 368.545 219.881 368.895 221.085 369.594C222.29 370.287 223.213 371.284 223.855 372.585C224.497 373.881 224.818 375.432 224.818 377.239C224.818 379.057 224.494 380.622 223.847 381.935C223.199 383.241 222.256 384.247 221.017 384.952C219.778 385.651 218.273 386 216.5 386ZM213.227 384.125H216.364C217.807 384.125 219.003 383.847 219.952 383.29C220.901 382.733 221.608 381.94 222.074 380.912C222.54 379.884 222.773 378.659 222.773 377.239C222.773 375.83 222.543 374.616 222.082 373.599C221.622 372.577 220.935 371.793 220.02 371.247C219.105 370.696 217.966 370.42 216.602 370.42H213.227V384.125ZM230.477 368.545V386H228.364V368.545H230.477ZM246.647 374C246.46 373.426 246.212 372.912 245.906 372.457C245.604 371.997 245.244 371.605 244.823 371.281C244.408 370.957 243.937 370.71 243.408 370.54C242.88 370.369 242.3 370.284 241.67 370.284C240.636 370.284 239.695 370.551 238.849 371.085C238.002 371.619 237.329 372.406 236.829 373.446C236.329 374.486 236.079 375.761 236.079 377.273C236.079 378.784 236.332 380.06 236.837 381.099C237.343 382.139 238.028 382.926 238.891 383.46C239.755 383.994 240.727 384.261 241.806 384.261C242.806 384.261 243.687 384.048 244.448 383.622C245.215 383.19 245.812 382.582 246.238 381.798C246.67 381.009 246.886 380.08 246.886 379.011L247.533 379.148H242.283V377.273H248.931V379.148C248.931 380.585 248.624 381.835 248.011 382.898C247.403 383.96 246.562 384.784 245.488 385.369C244.42 385.949 243.192 386.239 241.806 386.239C240.261 386.239 238.903 385.875 237.732 385.148C236.567 384.42 235.658 383.386 235.005 382.045C234.357 380.705 234.033 379.114 234.033 377.273C234.033 375.892 234.218 374.651 234.587 373.548C234.962 372.44 235.491 371.497 236.173 370.719C236.854 369.94 237.661 369.344 238.593 368.929C239.525 368.514 240.55 368.307 241.67 368.307C242.59 368.307 243.448 368.446 244.244 368.724C245.045 368.997 245.758 369.386 246.383 369.892C247.013 370.392 247.539 370.991 247.96 371.69C248.38 372.384 248.67 373.153 248.829 374H246.647ZM254.665 368.545V386H252.551V368.545H254.665ZM257.948 370.42V368.545H271.039V370.42H265.55V386H263.437V370.42H257.948ZM272.978 386H270.762L277.171 368.545H279.353L285.762 386H283.546L278.33 371.307H278.194L272.978 386ZM273.796 379.182H282.728V381.057H273.796V379.182ZM288.481 386V368.545H290.594V384.125H298.708V386H288.481ZM308.731 386V368.545H314.629C315.998 368.545 317.117 368.793 317.987 369.287C318.862 369.776 319.509 370.438 319.93 371.273C320.35 372.108 320.56 373.04 320.56 374.068C320.56 375.097 320.35 376.031 319.93 376.872C319.515 377.713 318.873 378.384 318.004 378.884C317.134 379.378 316.021 379.625 314.663 379.625H310.435V377.75H314.594C315.532 377.75 316.285 377.588 316.853 377.264C317.421 376.94 317.833 376.503 318.089 375.952C318.35 375.395 318.481 374.767 318.481 374.068C318.481 373.369 318.35 372.744 318.089 372.193C317.833 371.642 317.418 371.21 316.844 370.898C316.271 370.58 315.509 370.42 314.56 370.42H310.844V386H308.731ZM322.9 386H320.684L327.093 368.545H329.275L335.684 386H333.468L328.252 371.307H328.116L322.9 386ZM323.718 379.182H332.65V381.057H323.718V379.182ZM347.948 372.909C347.846 372.045 347.431 371.375 346.704 370.898C345.977 370.42 345.085 370.182 344.028 370.182C343.255 370.182 342.579 370.307 341.999 370.557C341.425 370.807 340.977 371.151 340.653 371.588C340.335 372.026 340.175 372.523 340.175 373.08C340.175 373.545 340.286 373.946 340.508 374.281C340.735 374.611 341.025 374.886 341.377 375.108C341.729 375.324 342.099 375.503 342.485 375.645C342.871 375.781 343.227 375.892 343.55 375.977L345.323 376.455C345.778 376.574 346.283 376.739 346.84 376.949C347.403 377.159 347.94 377.446 348.451 377.81C348.968 378.168 349.394 378.628 349.729 379.19C350.065 379.753 350.232 380.443 350.232 381.261C350.232 382.205 349.985 383.057 349.491 383.818C349.002 384.58 348.286 385.185 347.343 385.634C346.406 386.082 345.266 386.307 343.925 386.307C342.675 386.307 341.593 386.105 340.678 385.702C339.769 385.298 339.053 384.736 338.531 384.014C338.013 383.293 337.721 382.455 337.653 381.5H339.835C339.891 382.159 340.113 382.705 340.499 383.136C340.891 383.562 341.386 383.881 341.982 384.091C342.585 384.295 343.232 384.398 343.925 384.398C344.732 384.398 345.457 384.267 346.099 384.006C346.741 383.739 347.249 383.369 347.624 382.898C347.999 382.42 348.187 381.864 348.187 381.227C348.187 380.648 348.025 380.176 347.701 379.812C347.377 379.449 346.951 379.153 346.423 378.926C345.894 378.699 345.323 378.5 344.71 378.33L342.562 377.716C341.198 377.324 340.119 376.764 339.323 376.037C338.528 375.31 338.13 374.358 338.13 373.182C338.13 372.205 338.394 371.352 338.923 370.625C339.457 369.892 340.173 369.324 341.07 368.92C341.974 368.511 342.982 368.307 344.096 368.307C345.221 368.307 346.221 368.509 347.096 368.912C347.971 369.31 348.664 369.855 349.175 370.548C349.692 371.241 349.965 372.028 349.994 372.909H347.948ZM363.253 372.909C363.151 372.045 362.736 371.375 362.009 370.898C361.281 370.42 360.389 370.182 359.332 370.182C358.56 370.182 357.884 370.307 357.304 370.557C356.73 370.807 356.281 371.151 355.957 371.588C355.639 372.026 355.48 372.523 355.48 373.08C355.48 373.545 355.591 373.946 355.812 374.281C356.04 374.611 356.33 374.886 356.682 375.108C357.034 375.324 357.403 375.503 357.79 375.645C358.176 375.781 358.531 375.892 358.855 375.977L360.628 376.455C361.082 376.574 361.588 376.739 362.145 376.949C362.707 377.159 363.244 377.446 363.756 377.81C364.273 378.168 364.699 378.628 365.034 379.19C365.369 379.753 365.537 380.443 365.537 381.261C365.537 382.205 365.29 383.057 364.795 383.818C364.307 384.58 363.591 385.185 362.648 385.634C361.71 386.082 360.571 386.307 359.23 386.307C357.98 386.307 356.898 386.105 355.983 385.702C355.074 385.298 354.358 384.736 353.835 384.014C353.318 383.293 353.026 382.455 352.957 381.5H355.139C355.196 382.159 355.418 382.705 355.804 383.136C356.196 383.562 356.69 383.881 357.287 384.091C357.889 384.295 358.537 384.398 359.23 384.398C360.037 384.398 360.761 384.267 361.403 384.006C362.045 383.739 362.554 383.369 362.929 382.898C363.304 382.42 363.491 381.864 363.491 381.227C363.491 380.648 363.33 380.176 363.006 379.812C362.682 379.449 362.256 379.153 361.727 378.926C361.199 378.699 360.628 378.5 360.014 378.33L357.866 377.716C356.503 377.324 355.423 376.764 354.628 376.037C353.832 375.31 353.435 374.358 353.435 373.182C353.435 372.205 353.699 371.352 354.227 370.625C354.761 369.892 355.477 369.324 356.375 368.92C357.278 368.511 358.287 368.307 359.401 368.307C360.526 368.307 361.526 368.509 362.401 368.912C363.276 369.31 363.969 369.855 364.48 370.548C364.997 371.241 365.27 372.028 365.298 372.909H363.253Z" fill="white"/>
<path d="M210.057 408V399.273H213.108C213.716 399.273 214.217 399.378 214.612 399.588C215.007 399.795 215.301 400.075 215.494 400.428C215.688 400.777 215.784 401.165 215.784 401.591C215.784 401.966 215.717 402.276 215.584 402.52C215.453 402.764 215.28 402.957 215.064 403.099C214.851 403.241 214.619 403.347 214.369 403.415V403.5C214.636 403.517 214.905 403.611 215.175 403.781C215.445 403.952 215.67 404.196 215.852 404.514C216.034 404.832 216.125 405.222 216.125 405.682C216.125 406.119 216.026 406.513 215.827 406.862C215.628 407.212 215.314 407.489 214.885 407.693C214.456 407.898 213.898 408 213.21 408H210.057ZM211.114 407.062H213.21C213.901 407.062 214.391 406.929 214.68 406.662C214.973 406.392 215.119 406.065 215.119 405.682C215.119 405.386 215.044 405.114 214.893 404.864C214.743 404.611 214.528 404.409 214.25 404.259C213.972 404.105 213.642 404.028 213.261 404.028H211.114V407.062ZM211.114 403.108H213.074C213.392 403.108 213.679 403.045 213.935 402.92C214.193 402.795 214.398 402.619 214.548 402.392C214.702 402.165 214.778 401.898 214.778 401.591C214.778 401.207 214.645 400.882 214.378 400.615C214.111 400.345 213.688 400.21 213.108 400.21H211.114V403.108ZM217.112 399.273H218.322L220.742 403.347H220.844L223.265 399.273H224.475L221.322 404.403V408H220.265V404.403L217.112 399.273ZM229.217 408V399.273H230.274V403.159H234.927V399.273H235.984V408H234.927V404.097H230.274V408H229.217ZM245.463 403.636C245.463 404.557 245.297 405.352 244.965 406.023C244.632 406.693 244.176 407.21 243.597 407.574C243.017 407.938 242.355 408.119 241.611 408.119C240.867 408.119 240.205 407.938 239.625 407.574C239.046 407.21 238.59 406.693 238.257 406.023C237.925 405.352 237.759 404.557 237.759 403.636C237.759 402.716 237.925 401.92 238.257 401.25C238.59 400.58 239.046 400.062 239.625 399.699C240.205 399.335 240.867 399.153 241.611 399.153C242.355 399.153 243.017 399.335 243.597 399.699C244.176 400.062 244.632 400.58 244.965 401.25C245.297 401.92 245.463 402.716 245.463 403.636ZM244.441 403.636C244.441 402.881 244.314 402.243 244.061 401.723C243.811 401.203 243.472 400.81 243.043 400.543C242.617 400.276 242.14 400.142 241.611 400.142C241.083 400.142 240.604 400.276 240.175 400.543C239.749 400.81 239.409 401.203 239.157 401.723C238.907 402.243 238.782 402.881 238.782 403.636C238.782 404.392 238.907 405.03 239.157 405.55C239.409 406.07 239.749 406.463 240.175 406.73C240.604 406.997 241.083 407.131 241.611 407.131C242.14 407.131 242.617 406.997 243.043 406.73C243.472 406.463 243.811 406.07 244.061 405.55C244.314 405.03 244.441 404.392 244.441 403.636ZM247.24 399.273H248.502L251.468 406.517H251.57L254.536 399.273H255.797V408H254.809V401.369H254.723L251.996 408H251.042L248.314 401.369H248.229V408H247.24V399.273ZM257.916 408V399.273H263.183V400.21H258.973V403.159H262.911V404.097H258.973V407.062H263.251V408H257.916ZM264.338 399.273H265.548L267.969 403.347H268.071L270.491 399.273H271.702L268.548 404.403V408H267.491V404.403L264.338 399.273ZM276.444 408V399.273H277.5V403.159H282.154V399.273H283.211V408H282.154V404.097H277.5V408H276.444ZM292.69 403.636C292.69 404.557 292.524 405.352 292.191 406.023C291.859 406.693 291.403 407.21 290.824 407.574C290.244 407.938 289.582 408.119 288.838 408.119C288.093 408.119 287.431 407.938 286.852 407.574C286.272 407.21 285.816 406.693 285.484 406.023C285.152 405.352 284.985 404.557 284.985 403.636C284.985 402.716 285.152 401.92 285.484 401.25C285.816 400.58 286.272 400.062 286.852 399.699C287.431 399.335 288.093 399.153 288.838 399.153C289.582 399.153 290.244 399.335 290.824 399.699C291.403 400.062 291.859 400.58 292.191 401.25C292.524 401.92 292.69 402.716 292.69 403.636ZM291.667 403.636C291.667 402.881 291.541 402.243 291.288 401.723C291.038 401.203 290.699 400.81 290.27 400.543C289.843 400.276 289.366 400.142 288.838 400.142C288.309 400.142 287.831 400.276 287.402 400.543C286.975 400.81 286.636 401.203 286.383 401.723C286.133 402.243 286.008 402.881 286.008 403.636C286.008 404.392 286.133 405.03 286.383 405.55C286.636 406.07 286.975 406.463 287.402 406.73C287.831 406.997 288.309 407.131 288.838 407.131C289.366 407.131 289.843 406.997 290.27 406.73C290.699 406.463 291.038 406.07 291.288 405.55C291.541 405.03 291.667 404.392 291.667 403.636ZM293.626 400.21V399.273H300.172V400.21H297.428V408H296.371V400.21H293.626ZM301.803 408V399.273H307.07V400.21H302.86V403.159H306.797V404.097H302.86V407.062H307.138V408H301.803ZM308.975 408V399.273H310.032V407.062H314.088V408H308.975Z" fill="white"/>
<rect x="135" y="357" width="61" height="61" rx="16" fill="#712396"/>
<g filter="url(#filter7_dii_148_23)">
<path d="M167.741 373.09C167.42 372.424 166.741 372 165.996 372C165.25 372 164.578 372.424 164.25 373.09L160.354 381.099L151.652 382.383C150.925 382.492 150.319 383 150.094 383.696C149.87 384.393 150.052 385.161 150.573 385.676L156.888 391.918L155.397 400.738C155.276 401.465 155.579 402.203 156.179 402.633C156.778 403.063 157.572 403.118 158.227 402.773L166.002 398.626L173.777 402.773C174.431 403.118 175.225 403.069 175.825 402.633C176.425 402.197 176.728 401.465 176.607 400.738L175.11 391.918L181.424 385.676C181.945 385.161 182.133 384.393 181.903 383.696C181.673 383 181.073 382.492 180.346 382.383L171.637 381.099L167.741 373.09Z" fill="url(#paint11_linear_148_23)"/>
</g>
<path d="M14.5 425C14.5 425 15.5972 431.445 18.4163 434.124C21.5515 437.103 29 437.5 29 437.5C29 437.5 21.5515 437.897 18.4163 440.876C15.5972 443.555 14.5 450 14.5 450C14.5 450 13.4028 443.555 10.5837 440.876C7.44851 437.897 0 437.5 0 437.5C0 437.5 7.44851 437.103 10.5837 434.124C13.4028 431.445 14.5 425 14.5 425Z" fill="url(#paint12_linear_148_23)"/>
<path d="M467 55C467 55 468.059 61.1871 470.781 63.7589C473.808 66.619 481 67 481 67C481 67 473.808 67.381 470.781 70.2411C468.059 72.8129 467 79 467 79C467 79 465.941 72.8129 463.219 70.2411C460.192 67.381 453 67 453 67C453 67 460.192 66.619 463.219 63.7589C465.941 61.1871 467 55 467 55Z" fill="url(#paint13_linear_148_23)"/>
<path d="M39.8634 398.584C39.8634 398.584 45.8893 402.272 50.1163 401.847C54.8172 401.375 60.5674 395.486 60.5674 395.486C60.5674 395.486 55.4608 401.941 55.5919 406.663C55.7098 410.91 60.1365 416.416 60.1365 416.416C60.1365 416.416 54.1105 412.728 49.8835 413.153C45.1827 413.625 39.4324 419.514 39.4324 419.514C39.4324 419.514 44.5391 413.059 44.4079 408.337C44.2901 404.09 39.8634 398.584 39.8634 398.584Z" fill="url(#paint14_linear_148_23)"/>
<path d="M511.642 41.9476C511.642 41.9476 517.645 45.6732 521.874 45.2747C526.578 44.8315 532.365 38.9792 532.365 38.9792C532.365 38.9792 527.218 45.4017 527.32 50.1251C527.411 54.3724 531.804 59.9061 531.804 59.9061C531.804 59.9061 525.801 56.1805 521.571 56.579C516.868 57.0222 511.081 62.8745 511.081 62.8745C511.081 62.8745 516.228 56.4521 516.126 51.7286C516.034 47.4813 511.642 41.9476 511.642 41.9476Z" fill="url(#paint15_linear_148_23)"/>
<path d="M450.642 430.948C450.642 430.948 456.645 434.673 460.874 434.275C465.578 433.832 471.365 427.979 471.365 427.979C471.365 427.979 466.218 434.402 466.32 439.125C466.411 443.372 470.804 448.906 470.804 448.906C470.804 448.906 464.801 445.181 460.571 445.579C455.868 446.022 450.081 451.875 450.081 451.875C450.081 451.875 455.228 445.452 455.126 440.729C455.034 436.481 450.642 430.948 450.642 430.948Z" fill="url(#paint16_linear_148_23)"/>
<path d="M39.6421 455.948C39.6421 455.948 45.6449 459.673 49.8745 459.275C54.5782 458.832 60.365 452.979 60.365 452.979C60.365 452.979 55.2183 459.402 55.32 464.125C55.4114 468.372 59.8037 473.906 59.8037 473.906C59.8037 473.906 53.8009 470.181 49.5713 470.579C44.8676 471.022 39.0808 476.875 39.0808 476.875C39.0808 476.875 44.2275 470.452 44.1258 465.729C44.0344 461.481 39.6421 455.948 39.6421 455.948Z" fill="white"/>
<path d="M441.068 15.9644C441.068 15.9644 448.093 15.2209 451.188 12.3101C454.629 9.07302 455.605 0.900888 455.605 0.900888C455.605 0.900888 455.484 9.13022 458.464 12.7967C461.143 16.0936 468.007 17.7661 468.007 17.7661C468.007 17.7661 460.982 18.5096 457.887 21.4204C454.446 24.6574 453.47 32.8296 453.47 32.8296C453.47 32.8296 453.591 24.6002 450.611 20.9337C447.932 17.6368 441.068 15.9644 441.068 15.9644Z" fill="white"/>
<defs>
<filter id="filter0_df_148_23" x="73" y="2" width="342" height="221" filterUnits="userSpaceOnUse" color-interpolation-filters="sRGB">
<feFlood flood-opacity="0" result="BackgroundImageFix"/>
<feColorMatrix in="SourceAlpha" type="matrix" values="0 0 0 0 0 0 0 0 0 0 0 0 0 0 0 0 0 0 127 0" result="hardAlpha"/>
<feOffset dy="4"/>
<feGaussianBlur stdDeviation="2"/>
<feComposite in2="hardAlpha" operator="out"/>
<feColorMatrix type="matrix" values="0 0 0 0 0 0 0 0 0 0 0 0 0 0 0 0 0 0 0.25 0"/>
<feBlend mode="normal" in2="BackgroundImageFix" result="effect1_dropShadow_148_23"/>
<feBlend mode="normal" in="SourceGraphic" in2="effect1_dropShadow_148_23" result="shape"/>
<feGaussianBlur stdDeviation="2" result="effect2_foregroundBlur_148_23"/>
</filter>
<filter id="filter1_d_148_23" x="113" y="46" width="47" height="39" filterUnits="userSpaceOnUse" color-interpolation-filters="sRGB">
<feFlood flood-opacity="0" result="BackgroundImageFix"/>
<feColorMatrix in="SourceAlpha" type="matrix" values="0 0 0 0 0 0 0 0 0 0 0 0 0 0 0 0 0 0 127 0" result="hardAlpha"/>
<feOffset dy="4"/>
<feGaussianBlur stdDeviation="2"/>
<feComposite in2="hardAlpha" operator="out"/>
<feColorMatrix type="matrix" values="0 0 0 0 0 0 0 0 0 0 0 0 0 0 0 0 0 0 0.25 0"/>
<feBlend mode="normal" in2="BackgroundImageFix" result="effect1_dropShadow_148_23"/>
<feBlend mode="normal" in="SourceGraphic" in2="effect1_dropShadow_148_23" result="shape"/>
</filter>
<filter id="filter2_df_148_23" x="163" y="99" width="342" height="221" filterUnits="userSpaceOnUse" color-interpolation-filters="sRGB">
<feFlood flood-opacity="0" result="BackgroundImageFix"/>
<feColorMatrix in="SourceAlpha" type="matrix" values="0 0 0 0 0 0 0 0 0 0 0 0 0 0 0 0 0 0 127 0" result="hardAlpha"/>
<feOffset dy="4"/>
<feGaussianBlur stdDeviation="2"/>
<feComposite in2="hardAlpha" operator="out"/>
<feColorMatrix type="matrix" values="0 0 0 0 0 0 0 0 0 0 0 0 0 0 0 0 0 0 0.25 0"/>
<feBlend mode="normal" in2="BackgroundImageFix" result="effect1_dropShadow_148_23"/>
<feBlend mode="normal" in="SourceGraphic" in2="effect1_dropShadow_148_23" result="shape"/>
<feGaussianBlur stdDeviation="2" result="effect2_foregroundBlur_148_23"/>
</filter>
<filter id="filter3_dii_148_23" x="202" y="137" width="49" height="44" filterUnits="userSpaceOnUse" color-interpolation-filters="sRGB">
<feFlood flood-opacity="0" result="BackgroundImageFix"/>
<feColorMatrix in="SourceAlpha" type="matrix" values="0 0 0 0 0 0 0 0 0 0 0 0 0 0 0 0 0 0 127 0" result="hardAlpha"/>
<feOffset dy="4"/>
<feGaussianBlur stdDeviation="2"/>
<feComposite in2="hardAlpha" operator="out"/>
<feColorMatrix type="matrix" values="0 0 0 0 0 0 0 0 0 0 0 0 0 0 0 0 0 0 0.25 0"/>
<feBlend mode="normal" in2="BackgroundImageFix" result="effect1_dropShadow_148_23"/>
<feBlend mode="normal" in="SourceGraphic" in2="effect1_dropShadow_148_23" result="shape"/>
<feColorMatrix in="SourceAlpha" type="matrix" values="0 0 0 0 0 0 0 0 0 0 0 0 0 0 0 0 0 0 127 0" result="hardAlpha"/>
<feOffset dx="-4" dy="-4"/>
<feGaussianBlur stdDeviation="2"/>
<feComposite in2="hardAlpha" operator="arithmetic" k2="-1" k3="1"/>
<feColorMatrix type="matrix" values="0 0 0 0 0 0 0 0 0 0 0 0 0 0 0 0 0 0 0.25 0"/>
<feBlend mode="normal" in2="shape" result="effect2_innerShadow_148_23"/>
<feColorMatrix in="SourceAlpha" type="matrix" values="0 0 0 0 0 0 0 0 0 0 0 0 0 0 0 0 0 0 127 0" result="hardAlpha"/>
<feOffset dx="4" dy="4"/>
<feGaussianBlur stdDeviation="2"/>
<feComposite in2="hardAlpha" operator="arithmetic" k2="-1" k3="1"/>
<feColorMatrix type="matrix" values="0 0 0 0 1 0 0 0 0 1 0 0 0 0 1 0 0 0 0.25 0"/>
<feBlend mode="normal" in2="effect2_innerShadow_148_23" result="effect3_innerShadow_148_23"/>
</filter>
<filter id="filter4_df_148_23" x="227" y="198" width="342" height="221" filterUnits="userSpaceOnUse" color-interpolation-filters="sRGB">
<feFlood flood-opacity="0" result="BackgroundImageFix"/>
<feColorMatrix in="SourceAlpha" type="matrix" values="0 0 0 0 0 0 0 0 0 0 0 0 0 0 0 0 0 0 127 0" result="hardAlpha"/>
<feOffset dy="4"/>
<feGaussianBlur stdDeviation="2"/>
<feComposite in2="hardAlpha" operator="out"/>
<feColorMatrix type="matrix" values="0 0 0 0 0 0 0 0 0 0 0 0 0 0 0 0 0 0 0.25 0"/>
<feBlend mode="normal" in2="BackgroundImageFix" result="effect1_dropShadow_148_23"/>
<feBlend mode="normal" in="SourceGraphic" in2="effect1_dropShadow_148_23" result="shape"/>
<feGaussianBlur stdDeviation="2" result="effect2_foregroundBlur_148_23"/>
</filter>
<filter id="filter5_dii_148_23" x="266" y="236" width="49" height="45" filterUnits="userSpaceOnUse" color-interpolation-filters="sRGB">
<feFlood flood-opacity="0" result="BackgroundImageFix"/>
<feColorMatrix in="SourceAlpha" type="matrix" values="0 0 0 0 0 0 0 0 0 0 0 0 0 0 0 0 0 0 127 0" result="hardAlpha"/>
<feOffset dy="4"/>
<feGaussianBlur stdDeviation="2"/>
<feComposite in2="hardAlpha" operator="out"/>
<feColorMatrix type="matrix" values="0 0 0 0 0 0 0 0 0 0 0 0 0 0 0 0 0 0 0.25 0"/>
<feBlend mode="normal" in2="BackgroundImageFix" result="effect1_dropShadow_148_23"/>
<feBlend mode="normal" in="SourceGraphic" in2="effect1_dropShadow_148_23" result="shape"/>
<feColorMatrix in="SourceAlpha" type="matrix" values="0 0 0 0 0 0 0 0 0 0 0 0 0 0 0 0 0 0 127 0" result="hardAlpha"/>
<feOffset dx="-4" dy="-4"/>
<feGaussianBlur stdDeviation="2"/>
<feComposite in2="hardAlpha" operator="arithmetic" k2="-1" k3="1"/>
<feColorMatrix type="matrix" values="0 0 0 0 0 0 0 0 0 0 0 0 0 0 0 0 0 0 0.25 0"/>
<feBlend mode="normal" in2="shape" result="effect2_innerShadow_148_23"/>
<feColorMatrix in="SourceAlpha" type="matrix" values="0 0 0 0 0 0 0 0 0 0 0 0 0 0 0 0 0 0 127 0" result="hardAlpha"/>
<feOffset dx="4" dy="4"/>
<feGaussianBlur stdDeviation="2"/>
<feComposite in2="hardAlpha" operator="arithmetic" k2="-1" k3="1"/>
<feColorMatrix type="matrix" values="0 0 0 0 1 0 0 0 0 1 0 0 0 0 1 0 0 0 0.25 0"/>
<feBlend mode="normal" in2="effect2_innerShadow_148_23" result="effect3_innerShadow_148_23"/>
</filter>
<filter id="filter6_df_148_23" x="102" y="329" width="342" height="221" filterUnits="userSpaceOnUse" color-interpolation-filters="sRGB">
<feFlood flood-opacity="0" result="BackgroundImageFix"/>
<feColorMatrix in="SourceAlpha" type="matrix" values="0 0 0 0 0 0 0 0 0 0 0 0 0 0 0 0 0 0 127 0" result="hardAlpha"/>
<feOffset dy="4"/>
<feGaussianBlur stdDeviation="2"/>
<feComposite in2="hardAlpha" operator="out"/>
<feColorMatrix type="matrix" values="0 0 0 0 0 0 0 0 0 0 0 0 0 0 0 0 0 0 0.25 0"/>
<feBlend mode="normal" in2="BackgroundImageFix" result="effect1_dropShadow_148_23"/>
<feBlend mode="normal" in="SourceGraphic" in2="effect1_dropShadow_148_23" result="shape"/>
<feGaussianBlur stdDeviation="2" result="effect2_foregroundBlur_148_23"/>
</filter>
<filter id="filter7_dii_148_23" x="146" y="368" width="40" height="43" filterUnits="userSpaceOnUse" color-interpolation-filters="sRGB">
<feFlood flood-opacity="0" result="BackgroundImageFix"/>
<feColorMatrix in="SourceAlpha" type="matrix" values="0 0 0 0 0 0 0 0 0 0 0 0 0 0 0 0 0 0 127 0" result="hardAlpha"/>
<feOffset dy="4"/>
<feGaussianBlur stdDeviation="2"/>
<feComposite in2="hardAlpha" operator="out"/>
<feColorMatrix type="matrix" values="0 0 0 0 0 0 0 0 0 0 0 0 0 0 0 0 0 0 0.25 0"/>
<feBlend mode="normal" in2="BackgroundImageFix" result="effect1_dropShadow_148_23"/>
<feBlend mode="normal" in="SourceGraphic" in2="effect1_dropShadow_148_23" result="shape"/>
<feColorMatrix in="SourceAlpha" type="matrix" values="0 0 0 0 0 0 0 0 0 0 0 0 0 0 0 0 0 0 127 0" result="hardAlpha"/>
<feOffset dx="-4" dy="-4"/>
<feGaussianBlur stdDeviation="2"/>
<feComposite in2="hardAlpha" operator="arithmetic" k2="-1" k3="1"/>
<feColorMatrix type="matrix" values="0 0 0 0 0 0 0 0 0 0 0 0 0 0 0 0 0 0 0.25 0"/>
<feBlend mode="normal" in2="shape" result="effect2_innerShadow_148_23"/>
<feColorMatrix in="SourceAlpha" type="matrix" values="0 0 0 0 0 0 0 0 0 0 0 0 0 0 0 0 0 0 127 0" result="hardAlpha"/>
<feOffset dx="4" dy="4"/>
<feGaussianBlur stdDeviation="2"/>
<feComposite in2="hardAlpha" operator="arithmetic" k2="-1" k3="1"/>
<feColorMatrix type="matrix" values="0 0 0 0 1 0 0 0 0 1 0 0 0 0 1 0 0 0 0.25 0"/>
<feBlend mode="normal" in2="effect2_innerShadow_148_23" result="effect3_innerShadow_148_23"/>
</filter>
<linearGradient id="paint0_linear_148_23" x1="97.1166" y1="13.4264" x2="356.807" y2="262.232" gradientUnits="userSpaceOnUse">
<stop stop-color="#0D0316"/>
<stop offset="1" stop-color="#010C0F"/>
</linearGradient>
<linearGradient id="paint1_linear_148_23" x1="244" y1="6" x2="244" y2="215" gradientUnits="userSpaceOnUse">
<stop stop-color="#3E6DBE"/>
<stop offset="1" stop-color="white"/>
</linearGradient>
<radialGradient id="paint2_radial_148_23" cx="0" cy="0" r="1" gradientUnits="userSpaceOnUse" gradientTransform="translate(127.5 48) rotate(52.5946) scale(42.8019 53.8475)">
<stop stop-color="#FDC500"/>
<stop offset="1" stop-color="#B64D3B"/>
</radialGradient>
<linearGradient id="paint3_linear_148_23" x1="187.117" y1="110.426" x2="446.807" y2="359.232" gradientUnits="userSpaceOnUse">
<stop stop-color="#0D0316"/>
<stop offset="1" stop-color="#010C0F"/>
</linearGradient>
<linearGradient id="paint4_linear_148_23" x1="334" y1="103" x2="334" y2="312" gradientUnits="userSpaceOnUse">
<stop stop-color="#3E6DBE"/>
<stop offset="1" stop-color="white"/>
</linearGradient>
<linearGradient id="paint5_linear_148_23" x1="226.5" y1="141" x2="226.5" y2="174.591" gradientUnits="userSpaceOnUse">
<stop stop-color="#FDC500"/>
<stop offset="0.270833" stop-color="#BC9300"/>
<stop offset="0.526042" stop-color="#3E6DBE"/>
<stop offset="1" stop-color="#005EFF"/>
</linearGradient>
<linearGradient id="paint6_linear_148_23" x1="251.117" y1="209.426" x2="510.807" y2="458.232" gradientUnits="userSpaceOnUse">
<stop stop-color="#0D0316"/>
<stop offset="1" stop-color="#010C0F"/>
</linearGradient>
<linearGradient id="paint7_linear_148_23" x1="398" y1="202" x2="398" y2="411" gradientUnits="userSpaceOnUse">
<stop stop-color="#3E6DBE"/>
<stop offset="1" stop-color="white"/>
</linearGradient>
<linearGradient id="paint8_linear_148_23" x1="290.5" y1="240" x2="290.5" y2="273" gradientUnits="userSpaceOnUse">
<stop/>
<stop offset="1" stop-color="#7B6294"/>
</linearGradient>
<linearGradient id="paint9_linear_148_23" x1="126.117" y1="340.426" x2="385.807" y2="589.232" gradientUnits="userSpaceOnUse">
<stop stop-color="#0D0316"/>
<stop offset="1" stop-color="#010C0F"/>
</linearGradient>
<linearGradient id="paint10_linear_148_23" x1="273" y1="333" x2="273" y2="542" gradientUnits="userSpaceOnUse">
<stop stop-color="#3E6DBE"/>
<stop offset="1" stop-color="white"/>
</linearGradient>
<linearGradient id="paint11_linear_148_23" x1="166" y1="372" x2="166" y2="403" gradientUnits="userSpaceOnUse">
<stop stop-color="#FDC500"/>
<stop offset="1" stop-color="#B64D3B"/>
</linearGradient>
<linearGradient id="paint12_linear_148_23" x1="14.5" y1="425" x2="14.5" y2="450" gradientUnits="userSpaceOnUse">
<stop stop-color="#DFCAE9"/>
<stop offset="1" stop-color="white"/>
</linearGradient>
<linearGradient id="paint13_linear_148_23" x1="467" y1="55" x2="467" y2="79" gradientUnits="userSpaceOnUse">
<stop stop-color="#DFCAE9"/>
<stop offset="1" stop-color="white"/>
</linearGradient>
<linearGradient id="paint14_linear_148_23" x1="39.8634" y1="398.584" x2="60.1365" y2="416.416" gradientUnits="userSpaceOnUse">
<stop stop-color="#DFCAE9"/>
<stop offset="1" stop-color="white"/>
</linearGradient>
<linearGradient id="paint15_linear_148_23" x1="511.642" y1="41.9476" x2="531.804" y2="59.9061" gradientUnits="userSpaceOnUse">
<stop stop-color="#DFCAE9"/>
<stop offset="1" stop-color="white"/>
</linearGradient>
<linearGradient id="paint16_linear_148_23" x1="450.642" y1="430.948" x2="470.804" y2="448.906" gradientUnits="userSpaceOnUse">
<stop stop-color="#DFCAE9"/>
<stop offset="1" stop-color="white"/>
</linearGradient>
</defs>
</svg>
