<svg width="443" height="165" viewBox="0 0 443 165" fill="none" xmlns="http://www.w3.org/2000/svg">
<g filter="url(#filter0_d_95_94)">
<path fill-rule="evenodd" clip-rule="evenodd" d="M228.963 124.896C232.974 127.2 237.411 128.352 242.275 128.352C247.31 128.352 251.79 127.328 255.715 125.28C258.995 123.498 261.768 121.328 264.035 118.771V127.072H275.939V28H264.163V81.2934C262.073 78.4787 259.257 76.245 255.715 74.592C251.96 72.8 247.992 71.904 243.811 71.904C238.606 71.904 233.912 73.0133 229.731 75.232C225.55 77.4507 222.222 80.6507 219.747 84.832C217.358 89.0133 216.163 94.048 216.163 99.936C216.163 105.568 217.315 110.56 219.619 114.912C221.923 119.179 225.038 122.507 228.963 124.896ZM254.435 116.576C251.96 117.685 249.144 118.24 245.987 118.24C242.83 118.24 239.886 117.429 237.155 115.808C234.424 114.101 232.248 111.883 230.627 109.152C229.006 106.336 228.195 103.179 228.195 99.68C228.195 96.096 229.006 92.9387 230.627 90.208C232.248 87.4773 234.382 85.344 237.027 83.808C239.758 82.1867 242.744 81.376 245.987 81.376C248.974 81.376 251.662 81.9733 254.051 83.168C256.526 84.2773 258.616 85.8133 260.323 87.776C262.115 89.6533 263.352 91.872 264.035 94.432V104.416C263.352 107.232 262.2 109.664 260.579 111.712C258.958 113.76 256.91 115.381 254.435 116.576ZM32.896 74.08H44.8V127.072H32.896V74.08ZM32 54.88C32 53.0027 32.7253 51.424 34.176 50.144C35.712 48.864 37.376 48.224 39.168 48.224C40.96 48.224 42.5387 48.864 43.904 50.144C45.3547 51.424 46.08 53.0027 46.08 54.88C46.08 56.8427 45.3547 58.464 43.904 59.744C42.5387 60.9387 40.96 61.536 39.168 61.536C37.376 61.536 35.712 60.896 34.176 59.616C32.7253 58.336 32 56.7573 32 54.88ZM76.02 74.08L76.83 84.3057C78.5539 80.687 81.2279 77.7905 84.852 75.616C88.692 73.2267 93.1293 72.032 98.164 72.032C103.199 72.032 107.295 73.5253 110.452 76.512C113.695 79.4133 115.359 83.2107 115.444 87.904V127.072H103.412V92.128C103.327 89.2267 102.473 86.88 100.852 85.088C99.316 83.2107 96.884 82.272 93.556 82.272C90.484 82.272 87.7107 83.1253 85.236 84.832C82.7613 86.5387 80.7987 88.8853 79.348 91.872C77.9827 94.8587 77.3 98.3147 77.3 102.24V127.072H65.396V74.08H76.02ZM139.986 126.176C143.57 127.456 147.239 128.096 150.994 128.096C155.687 128.096 159.527 127.328 162.514 125.792C165.586 124.171 167.847 122.037 169.298 119.392C170.834 116.661 171.602 113.717 171.602 110.56C171.602 107.744 170.962 105.397 169.682 103.52C168.487 101.643 166.866 100.064 164.818 98.784C162.77 97.504 160.423 96.48 157.778 95.712C155.901 95.0293 153.981 94.3893 152.018 93.792C150.141 93.1093 148.605 92.2133 147.41 91.104C146.215 89.9947 145.618 88.544 145.618 86.752C145.618 85.472 146.045 84.3627 146.898 83.424C147.751 82.4853 148.818 81.76 150.098 81.248C151.463 80.736 152.871 80.5227 154.322 80.608C156.029 80.6933 157.949 81.12 160.082 81.888C162.215 82.656 164.05 83.8507 165.586 85.472L170.322 78.048C167.762 76 165.031 74.5493 162.13 73.696C159.229 72.7573 155.943 72.288 152.274 72.288C148.178 72.288 144.722 73.056 141.906 74.592C139.175 76.128 137.085 78.1333 135.634 80.608C134.269 82.9973 133.586 85.6 133.586 88.416C133.586 92.0853 134.738 95.2 137.042 97.76C139.346 100.32 142.674 102.325 147.026 103.776C149.159 104.373 151.165 105.013 153.042 105.696C155.005 106.379 156.583 107.275 157.778 108.384C159.058 109.493 159.698 110.987 159.698 112.864C159.698 114.571 159.229 115.936 158.29 116.96C157.437 117.899 156.285 118.581 154.834 119.008C153.383 119.435 151.805 119.648 150.098 119.648C147.794 119.648 145.447 119.136 143.058 118.112C140.754 117.003 138.493 115.381 136.274 113.248L131.282 120.16C133.586 122.805 136.487 124.811 139.986 126.176ZM188.271 74.08H200.175V127.072H188.271V74.08ZM187.375 54.88C187.375 53.0027 188.1 51.424 189.551 50.144C191.087 48.864 192.751 48.224 194.543 48.224C196.335 48.224 197.914 48.864 199.279 50.144C200.73 51.424 201.455 53.0027 201.455 54.88C201.455 56.8427 200.73 58.464 199.279 59.744C197.914 60.9387 196.335 61.536 194.543 61.536C192.751 61.536 191.087 60.896 189.551 59.616C188.1 58.336 187.375 56.7573 187.375 54.88ZM388.27 74.08L389.198 86.4582C390.536 83.6218 392.36 81.2024 394.67 79.2C397.315 76.896 400.046 75.1467 402.862 73.952C405.763 72.672 408.281 72.032 410.414 72.032L409.774 83.808C405.763 83.552 402.222 84.32 399.15 86.112C396.163 87.904 393.774 90.2933 391.982 93.28C390.275 96.2667 389.422 99.4667 389.422 102.88V127.072H377.646V74.08H388.27ZM287.527 119.592C286.127 118.78 284.614 117.415 283.942 115.282C283.27 113.148 283.728 111.163 284.409 109.695C285.074 108.262 286.079 107.016 287.11 105.97C289.178 103.871 292.13 101.798 295.523 99.8294C296.974 98.9872 298.55 98.1387 300.237 97.292C300.743 93.4977 302.073 89.7522 304.283 86.3209C312.317 73.8477 328.94 70.2487 341.414 78.2821C343.386 79.5523 345.136 81.0373 346.654 82.6867C348.485 82.4211 350.229 82.2177 351.871 82.0786C355.779 81.7474 359.387 81.7542 362.285 82.2888C363.729 82.5552 365.266 82.9996 366.633 83.793C368.032 84.6054 369.545 85.9697 370.217 88.1035C370.889 90.2373 370.432 92.2224 369.751 93.6901C369.086 95.1234 368.081 96.3688 367.05 97.4148C364.981 99.5141 362.029 101.587 358.637 103.556C356.965 104.526 355.127 105.505 353.146 106.479C352.486 109.571 351.265 112.597 349.452 115.413C341.419 127.886 324.795 131.485 312.322 123.451C310.964 122.577 309.711 121.601 308.568 120.539C306.347 120.884 304.245 121.141 302.288 121.307C298.38 121.638 294.773 121.631 291.875 121.096C290.431 120.83 288.893 120.386 287.527 119.592ZM340.561 106.52C356.12 100.462 366.678 93.5109 365.448 89.6058C364.627 86.9978 358.718 86.2901 350.052 87.2854C351.049 88.9914 351.851 90.7954 352.448 92.6607C346.558 95.7157 338.809 98.8929 330.071 101.645C327.964 102.309 326.794 104.555 327.458 106.662C328.122 108.77 330.368 109.94 332.475 109.276C335.26 108.398 337.965 107.475 340.561 106.52ZM300.088 103.005C300.461 107.637 302.029 112.142 304.685 116.031C295.704 117.125 289.551 116.445 288.711 113.779C287.886 111.161 292.361 107.174 300.088 103.005Z" fill="black"/>
</g>
<defs>
<filter id="filter0_d_95_94" x="0" y="0" width="442.414" height="164.352" filterUnits="userSpaceOnUse" color-interpolation-filters="sRGB">
<feFlood flood-opacity="0" result="BackgroundImageFix"/>
<feColorMatrix in="SourceAlpha" type="matrix" values="0 0 0 0 0 0 0 0 0 0 0 0 0 0 0 0 0 0 127 0" result="hardAlpha"/>
<feOffset dy="4"/>
<feGaussianBlur stdDeviation="16"/>
<feComposite in2="hardAlpha" operator="out"/>
<feColorMatrix type="matrix" values="0 0 0 0 0.508252 0 0 0 0 0.940605 0 0 0 0 0.809967 0 0 0 1 0"/>
<feBlend mode="normal" in2="BackgroundImageFix" result="effect1_dropShadow_95_94"/>
<feBlend mode="normal" in="SourceGraphic" in2="effect1_dropShadow_95_94" result="shape"/>
</filter>
</defs>
</svg>
