<svg width="1183" height="426" viewBox="0 0 1183 426" fill="none" xmlns="http://www.w3.org/2000/svg">
<path d="M102.35 156.1H134.9V301H102.35V156.1ZM99.9 103.6C99.9 98.4667 101.883 94.15 105.85 90.65C110.05 87.15 114.6 85.4 119.5 85.4C124.4 85.4 128.717 87.15 132.45 90.65C136.417 94.15 138.4 98.4667 138.4 103.6C138.4 108.967 136.417 113.4 132.45 116.9C128.717 120.167 124.4 121.8 119.5 121.8C114.6 121.8 110.05 120.05 105.85 116.55C101.883 113.05 99.9 108.733 99.9 103.6ZM220.267 156.1L223.067 191.45L221.667 185.85C226.334 175.117 233.917 166.6 244.417 160.3C254.917 153.767 267.051 150.5 280.817 150.5C294.584 150.5 305.784 154.583 314.417 162.75C323.284 170.683 327.834 181.067 328.067 193.9V301H295.167V205.45C294.934 197.517 292.601 191.1 288.167 186.2C283.967 181.067 277.317 178.5 268.217 178.5C259.817 178.5 252.234 180.833 245.467 185.5C238.701 190.167 233.334 196.583 229.367 204.75C225.634 212.917 223.767 222.367 223.767 233.1V301H191.217V156.1H220.267ZM425.274 303.8C415.008 303.8 404.974 302.05 395.174 298.55C385.608 294.817 377.674 289.333 371.374 282.1L385.024 263.2C391.091 269.033 397.274 273.467 403.574 276.5C410.108 279.3 416.524 280.7 422.824 280.7C427.491 280.7 431.808 280.117 435.774 278.95C439.741 277.783 442.891 275.917 445.224 273.35C447.791 270.55 449.074 266.817 449.074 262.15C449.074 257.017 447.324 252.933 443.824 249.9C440.558 246.867 436.241 244.417 430.874 242.55C425.741 240.683 420.258 238.933 414.424 237.3C402.524 233.333 393.424 227.85 387.124 220.85C380.824 213.85 377.674 205.333 377.674 195.3C377.674 187.6 379.541 180.483 383.274 173.95C387.241 167.183 392.958 161.7 400.424 157.5C408.124 153.3 417.574 151.2 428.774 151.2C438.808 151.2 447.791 152.483 455.724 155.05C463.658 157.383 471.124 161.35 478.124 166.95L465.174 187.25C460.974 182.817 455.958 179.55 450.124 177.45C444.291 175.35 439.041 174.183 434.374 173.95C430.408 173.717 426.558 174.3 422.824 175.7C419.324 177.1 416.408 179.083 414.074 181.65C411.741 184.217 410.574 187.25 410.574 190.75C410.574 195.65 412.208 199.617 415.474 202.65C418.741 205.683 422.941 208.133 428.074 210C433.441 211.633 438.691 213.383 443.824 215.25C451.058 217.35 457.474 220.15 463.074 223.65C468.674 227.15 473.108 231.467 476.374 236.6C479.874 241.733 481.624 248.15 481.624 255.85C481.624 264.483 479.524 272.533 475.324 280C471.358 287.233 465.174 293.067 456.774 297.5C448.608 301.7 438.108 303.8 425.274 303.8ZM527.204 156.1H559.754V301H527.204V156.1ZM524.754 103.6C524.754 98.4667 526.737 94.15 530.704 90.65C534.904 87.15 539.454 85.4 544.354 85.4C549.254 85.4 553.57 87.15 557.304 90.65C561.27 94.15 563.254 98.4667 563.254 103.6C563.254 108.967 561.27 113.4 557.304 116.9C553.57 120.167 549.254 121.8 544.354 121.8C539.454 121.8 534.904 120.05 530.704 116.55C526.737 113.05 524.754 108.733 524.754 103.6ZM674.871 304.5C661.571 304.5 649.437 301.35 638.471 295.05C627.737 288.517 619.221 279.417 612.921 267.75C606.621 255.85 603.471 242.2 603.471 226.8C603.471 210.7 606.737 196.933 613.271 185.5C620.037 174.067 629.137 165.317 640.571 159.25C652.004 153.183 664.837 150.15 679.071 150.15C690.504 150.15 701.354 152.6 711.621 157.5C722.121 162.4 730.287 169.167 736.121 177.8L734.721 189.35V30.1H766.921V301H734.371V264.95L737.871 274.05C731.104 282.917 722.354 290.267 711.621 296.1C700.887 301.7 688.637 304.5 674.871 304.5ZM685.021 276.85C693.654 276.85 701.354 275.333 708.121 272.3C714.887 269.033 720.487 264.6 724.921 259C729.354 253.4 732.504 246.75 734.371 239.05V211.75C732.504 204.75 729.121 198.683 724.221 193.55C719.554 188.183 713.837 183.983 707.071 180.95C700.537 177.683 693.187 176.05 685.021 176.05C676.154 176.05 667.987 178.267 660.521 182.7C653.287 186.9 647.454 192.733 643.021 200.2C638.587 207.667 636.371 216.3 636.371 226.1C636.371 235.667 638.587 244.3 643.021 252C647.454 259.467 653.404 265.533 660.871 270.2C668.337 274.633 676.387 276.85 685.021 276.85ZM890.741 304.5C874.175 304.5 859.941 301.233 848.041 294.7C836.141 287.933 826.925 278.833 820.391 267.4C814.091 255.733 810.941 242.433 810.941 227.5C810.941 213.267 814.558 200.317 821.791 188.65C829.025 176.983 838.708 167.65 850.841 160.65C862.975 153.65 876.508 150.15 891.441 150.15C910.575 150.15 926.441 155.75 939.041 166.95C951.641 178.15 960.158 193.55 964.591 213.15L845.241 255.15L837.541 235.9L935.541 200.2L928.541 204.75C925.741 197.05 921.075 190.4 914.541 184.8C908.008 178.967 899.491 176.05 888.991 176.05C880.125 176.05 872.191 178.267 865.191 182.7C858.191 186.9 852.708 192.733 848.741 200.2C844.775 207.667 842.791 216.183 842.791 225.75C842.791 235.783 844.891 244.65 849.091 252.35C853.291 259.817 859.008 265.767 866.241 270.2C873.708 274.4 882.108 276.5 891.441 276.5C897.741 276.5 903.808 275.333 909.641 273C915.708 270.667 921.308 267.633 926.441 263.9L941.491 288.05C934.258 292.95 926.091 296.917 916.991 299.95C908.125 302.983 899.375 304.5 890.741 304.5ZM1034.43 156.1L1037.58 198.1L1035.83 192.5C1039.56 183.633 1044.93 176.167 1051.93 170.1C1059.16 163.8 1066.63 159.017 1074.33 155.75C1082.26 152.25 1089.14 150.5 1094.98 150.5L1093.23 182.7C1082.26 182 1072.58 184.1 1064.18 189C1056.01 193.9 1049.48 200.433 1044.58 208.6C1039.91 216.767 1037.58 225.517 1037.58 234.85V301H1005.38V156.1H1034.43Z" fill="url(#paint0_linear_85_66)"/>
<defs>
<linearGradient id="paint0_linear_85_66" x1="460.418" y1="38" x2="591.795" y2="387.889" gradientUnits="userSpaceOnUse">
<stop offset="0.229444" stop-color="#411A5C"/>
<stop offset="0.492064" stop-color="#80F2CE"/>
<stop offset="0.737132" stop-color="#1FC8E1"/>
</linearGradient>
</defs>
</svg>
