<svg width="1600" height="960" viewBox="0 0 1600 960" fill="none" xmlns="http://www.w3.org/2000/svg">
<path d="M311.35 423.1H343.9V568H311.35V423.1ZM308.9 370.6C308.9 365.467 310.883 361.15 314.85 357.65C319.05 354.15 323.6 352.4 328.5 352.4C333.4 352.4 337.717 354.15 341.45 357.65C345.417 361.15 347.4 365.467 347.4 370.6C347.4 375.967 345.417 380.4 341.45 383.9C337.717 387.167 333.4 388.8 328.5 388.8C323.6 388.8 319.05 387.05 314.85 383.55C310.883 380.05 308.9 375.733 308.9 370.6ZM429.267 423.1L432.067 458.45L430.667 452.85C435.334 442.117 442.917 433.6 453.417 427.3C463.917 420.767 476.051 417.5 489.817 417.5C503.584 417.5 514.784 421.583 523.417 429.75C532.284 437.683 536.834 448.067 537.067 460.9V568H504.167V472.45C503.934 464.517 501.601 458.1 497.167 453.2C492.967 448.067 486.317 445.5 477.217 445.5C468.817 445.5 461.234 447.833 454.467 452.5C447.701 457.167 442.334 463.583 438.367 471.75C434.634 479.917 432.767 489.367 432.767 500.1V568H400.217V423.1H429.267ZM634.274 570.8C624.008 570.8 613.974 569.05 604.174 565.55C594.608 561.817 586.674 556.333 580.374 549.1L594.024 530.2C600.091 536.033 606.274 540.467 612.574 543.5C619.108 546.3 625.524 547.7 631.824 547.7C636.491 547.7 640.808 547.117 644.774 545.95C648.741 544.783 651.891 542.917 654.224 540.35C656.791 537.55 658.074 533.817 658.074 529.15C658.074 524.017 656.324 519.933 652.824 516.9C649.558 513.867 645.241 511.417 639.874 509.55C634.741 507.683 629.258 505.933 623.424 504.3C611.524 500.333 602.424 494.85 596.124 487.85C589.824 480.85 586.674 472.333 586.674 462.3C586.674 454.6 588.541 447.483 592.274 440.95C596.241 434.183 601.958 428.7 609.424 424.5C617.124 420.3 626.574 418.2 637.774 418.2C647.808 418.2 656.791 419.483 664.724 422.05C672.658 424.383 680.124 428.35 687.124 433.95L674.174 454.25C669.974 449.817 664.958 446.55 659.124 444.45C653.291 442.35 648.041 441.183 643.374 440.95C639.408 440.717 635.558 441.3 631.824 442.7C628.324 444.1 625.408 446.083 623.074 448.65C620.741 451.217 619.574 454.25 619.574 457.75C619.574 462.65 621.208 466.617 624.474 469.65C627.741 472.683 631.941 475.133 637.074 477C642.441 478.633 647.691 480.383 652.824 482.25C660.058 484.35 666.474 487.15 672.074 490.65C677.674 494.15 682.108 498.467 685.374 503.6C688.874 508.733 690.624 515.15 690.624 522.85C690.624 531.483 688.524 539.533 684.324 547C680.358 554.233 674.174 560.067 665.774 564.5C657.608 568.7 647.108 570.8 634.274 570.8ZM736.204 423.1H768.754V568H736.204V423.1ZM733.754 370.6C733.754 365.467 735.737 361.15 739.704 357.65C743.904 354.15 748.454 352.4 753.354 352.4C758.254 352.4 762.57 354.15 766.304 357.65C770.27 361.15 772.254 365.467 772.254 370.6C772.254 375.967 770.27 380.4 766.304 383.9C762.57 387.167 758.254 388.8 753.354 388.8C748.454 388.8 743.904 387.05 739.704 383.55C735.737 380.05 733.754 375.733 733.754 370.6ZM883.871 571.5C870.571 571.5 858.437 568.35 847.471 562.05C836.737 555.517 828.221 546.417 821.921 534.75C815.621 522.85 812.471 509.2 812.471 493.8C812.471 477.7 815.737 463.933 822.271 452.5C829.037 441.067 838.137 432.317 849.571 426.25C861.004 420.183 873.837 417.15 888.071 417.15C899.504 417.15 910.354 419.6 920.621 424.5C931.121 429.4 939.287 436.167 945.121 444.8L943.721 456.35V297.1H975.921V568H943.371V531.95L946.871 541.05C940.104 549.917 931.354 557.267 920.621 563.1C909.887 568.7 897.637 571.5 883.871 571.5ZM894.021 543.85C902.654 543.85 910.354 542.333 917.121 539.3C923.887 536.033 929.487 531.6 933.921 526C938.354 520.4 941.504 513.75 943.371 506.05V478.75C941.504 471.75 938.121 465.683 933.221 460.55C928.554 455.183 922.837 450.983 916.071 447.95C909.537 444.683 902.187 443.05 894.021 443.05C885.154 443.05 876.987 445.267 869.521 449.7C862.287 453.9 856.454 459.733 852.021 467.2C847.587 474.667 845.371 483.3 845.371 493.1C845.371 502.667 847.587 511.3 852.021 519C856.454 526.467 862.404 532.533 869.871 537.2C877.337 541.633 885.387 543.85 894.021 543.85ZM1099.74 571.5C1083.17 571.5 1068.94 568.233 1057.04 561.7C1045.14 554.933 1035.92 545.833 1029.39 534.4C1023.09 522.733 1019.94 509.433 1019.94 494.5C1019.94 480.267 1023.56 467.317 1030.79 455.65C1038.02 443.983 1047.71 434.65 1059.84 427.65C1071.97 420.65 1085.51 417.15 1100.44 417.15C1119.57 417.15 1135.44 422.75 1148.04 433.95C1160.64 445.15 1169.16 460.55 1173.59 480.15L1054.24 522.15L1046.54 502.9L1144.54 467.2L1137.54 471.75C1134.74 464.05 1130.07 457.4 1123.54 451.8C1117.01 445.967 1108.49 443.05 1097.99 443.05C1089.12 443.05 1081.19 445.267 1074.19 449.7C1067.19 453.9 1061.71 459.733 1057.74 467.2C1053.77 474.667 1051.79 483.183 1051.79 492.75C1051.79 502.783 1053.89 511.65 1058.09 519.35C1062.29 526.817 1068.01 532.767 1075.24 537.2C1082.71 541.4 1091.11 543.5 1100.44 543.5C1106.74 543.5 1112.81 542.333 1118.64 540C1124.71 537.667 1130.31 534.633 1135.44 530.9L1150.49 555.05C1143.26 559.95 1135.09 563.917 1125.99 566.95C1117.12 569.983 1108.37 571.5 1099.74 571.5ZM1243.43 423.1L1246.58 465.1L1244.83 459.5C1248.56 450.633 1253.93 443.167 1260.93 437.1C1268.16 430.8 1275.63 426.017 1283.33 422.75C1291.26 419.25 1298.14 417.5 1303.98 417.5L1302.23 449.7C1291.26 449 1281.58 451.1 1273.18 456C1265.01 460.9 1258.48 467.433 1253.58 475.6C1248.91 483.767 1246.58 492.517 1246.58 501.85V568H1214.38V423.1H1243.43Z" fill="url(#paint0_linear_28_54)"/>
<path d="M461.993 417.993C524.397 355.589 625.574 355.589 687.979 417.993L800.972 530.986L687.979 643.979C625.575 706.383 524.397 706.383 461.993 643.979V643.979C399.589 581.574 399.589 480.397 461.993 417.993V417.993Z" stroke="url(#paint1_angular_28_54)" stroke-opacity="0.1" stroke-width="51"/>
<path d="M1139.08 645.007C1076.67 707.411 975.493 707.411 913.089 645.007L800.096 532.014L913.089 419.021C975.493 356.617 1076.67 356.617 1139.08 419.021V419.021C1201.48 481.426 1201.48 582.603 1139.08 645.007V645.007Z" stroke="url(#paint2_angular_28_54)" stroke-opacity="0.1" stroke-width="51"/>
<defs>
<linearGradient id="paint0_linear_28_54" x1="669.418" y1="305" x2="800.795" y2="654.889" gradientUnits="userSpaceOnUse">
<stop stop-color="white"/>
<stop stop-color="#80F2CE"/>
<stop offset="1" stop-color="#1FC8E1"/>
</linearGradient>
<radialGradient id="paint1_angular_28_54" cx="0" cy="0" r="1" gradientUnits="userSpaceOnUse" gradientTransform="translate(574.986 530.986) scale(283.456)">
<stop stop-color="#E1479F"/>
<stop offset="1" stop-color="white"/>
</radialGradient>
<radialGradient id="paint2_angular_28_54" cx="0" cy="0" r="1" gradientUnits="userSpaceOnUse" gradientTransform="translate(1026.08 532.014) rotate(180) scale(283.456)">
<stop stop-color="#1FC8E1"/>
<stop offset="1" stop-color="white"/>
</radialGradient>
</defs>
</svg>
