<svg width="61" height="61" viewBox="0 0 61 61" fill="none" xmlns="http://www.w3.org/2000/svg">
<rect width="61" height="61" rx="16" fill="#005EFF"/>
<g filter="url(#filter0_dii_167_68)">
<path d="M32.7409 16.0897C32.4197 15.4238 31.741 15 30.9956 15C30.2503 15 29.5776 15.4238 29.2504 16.0897L25.3538 24.0992L16.6517 25.3826C15.9245 25.4916 15.3185 26.0001 15.0943 26.6963C14.8701 27.3926 15.0519 28.1614 15.5731 28.676L21.8875 34.9177L20.3968 43.7384C20.2756 44.4649 20.5786 45.2035 21.1785 45.6333C21.7785 46.0631 22.5723 46.1176 23.2268 45.7725L31.0017 41.6255L38.7766 45.7725C39.4311 46.1176 40.225 46.0692 40.8249 45.6333C41.4248 45.1974 41.7278 44.4649 41.6066 43.7384L40.1098 34.9177L46.4243 28.676C46.9455 28.1614 47.1333 27.3926 46.903 26.6963C46.6728 26.0001 46.0728 25.4916 45.3456 25.3826L36.6375 24.0992L32.7409 16.0897Z" fill="url(#paint0_linear_167_68)"/>
</g>
<defs>
<filter id="filter0_dii_167_68" x="11" y="11" width="40" height="43" filterUnits="userSpaceOnUse" color-interpolation-filters="sRGB">
<feFlood flood-opacity="0" result="BackgroundImageFix"/>
<feColorMatrix in="SourceAlpha" type="matrix" values="0 0 0 0 0 0 0 0 0 0 0 0 0 0 0 0 0 0 127 0" result="hardAlpha"/>
<feOffset dy="4"/>
<feGaussianBlur stdDeviation="2"/>
<feComposite in2="hardAlpha" operator="out"/>
<feColorMatrix type="matrix" values="0 0 0 0 0 0 0 0 0 0 0 0 0 0 0 0 0 0 0.25 0"/>
<feBlend mode="normal" in2="BackgroundImageFix" result="effect1_dropShadow_167_68"/>
<feBlend mode="normal" in="SourceGraphic" in2="effect1_dropShadow_167_68" result="shape"/>
<feColorMatrix in="SourceAlpha" type="matrix" values="0 0 0 0 0 0 0 0 0 0 0 0 0 0 0 0 0 0 127 0" result="hardAlpha"/>
<feOffset dx="-4" dy="-4"/>
<feGaussianBlur stdDeviation="2"/>
<feComposite in2="hardAlpha" operator="arithmetic" k2="-1" k3="1"/>
<feColorMatrix type="matrix" values="0 0 0 0 0 0 0 0 0 0 0 0 0 0 0 0 0 0 0.25 0"/>
<feBlend mode="normal" in2="shape" result="effect2_innerShadow_167_68"/>
<feColorMatrix in="SourceAlpha" type="matrix" values="0 0 0 0 0 0 0 0 0 0 0 0 0 0 0 0 0 0 127 0" result="hardAlpha"/>
<feOffset dx="4" dy="4"/>
<feGaussianBlur stdDeviation="2"/>
<feComposite in2="hardAlpha" operator="arithmetic" k2="-1" k3="1"/>
<feColorMatrix type="matrix" values="0 0 0 0 1 0 0 0 0 1 0 0 0 0 1 0 0 0 0.25 0"/>
<feBlend mode="normal" in2="effect2_innerShadow_167_68" result="effect3_innerShadow_167_68"/>
</filter>
<linearGradient id="paint0_linear_167_68" x1="31" y1="15" x2="31" y2="46" gradientUnits="userSpaceOnUse">
<stop stop-color="#FDC500"/>
<stop offset="1" stop-color="#B64D3B"/>
</linearGradient>
</defs>
</svg>
