<svg width="61" height="61" viewBox="0 0 61 61" fill="none" xmlns="http://www.w3.org/2000/svg">
<rect width="61" height="61" rx="16" fill="#CACDE9"/>
<g filter="url(#filter0_dii_205_27)">
<path d="M31 30.5C35.7344 30.5 39.5714 26.583 39.5714 21.75C39.5714 16.917 35.7344 13 31 13C26.2656 13 22.4286 16.917 22.4286 21.75C22.4286 26.583 26.2656 30.5 31 30.5ZM27.9397 33.7812C21.3437 33.7812 16 39.2363 16 45.9697C16 47.0908 16.8906 48 17.9888 48H44.0112C45.1094 48 46 47.0908 46 45.9697C46 39.2363 40.6563 33.7812 34.0603 33.7812H27.9397Z" fill="url(#paint0_linear_205_27)"/>
</g>
<defs>
<filter id="filter0_dii_205_27" x="12" y="9" width="38" height="47" filterUnits="userSpaceOnUse" color-interpolation-filters="sRGB">
<feFlood flood-opacity="0" result="BackgroundImageFix"/>
<feColorMatrix in="SourceAlpha" type="matrix" values="0 0 0 0 0 0 0 0 0 0 0 0 0 0 0 0 0 0 127 0" result="hardAlpha"/>
<feOffset dy="4"/>
<feGaussianBlur stdDeviation="2"/>
<feComposite in2="hardAlpha" operator="out"/>
<feColorMatrix type="matrix" values="0 0 0 0 0 0 0 0 0 0 0 0 0 0 0 0 0 0 0.25 0"/>
<feBlend mode="normal" in2="BackgroundImageFix" result="effect1_dropShadow_205_27"/>
<feBlend mode="normal" in="SourceGraphic" in2="effect1_dropShadow_205_27" result="shape"/>
<feColorMatrix in="SourceAlpha" type="matrix" values="0 0 0 0 0 0 0 0 0 0 0 0 0 0 0 0 0 0 127 0" result="hardAlpha"/>
<feOffset dx="-4" dy="-4"/>
<feGaussianBlur stdDeviation="2"/>
<feComposite in2="hardAlpha" operator="arithmetic" k2="-1" k3="1"/>
<feColorMatrix type="matrix" values="0 0 0 0 0 0 0 0 0 0 0 0 0 0 0 0 0 0 0.25 0"/>
<feBlend mode="normal" in2="shape" result="effect2_innerShadow_205_27"/>
<feColorMatrix in="SourceAlpha" type="matrix" values="0 0 0 0 0 0 0 0 0 0 0 0 0 0 0 0 0 0 127 0" result="hardAlpha"/>
<feOffset dx="4" dy="4"/>
<feGaussianBlur stdDeviation="2"/>
<feComposite in2="hardAlpha" operator="arithmetic" k2="-1" k3="1"/>
<feColorMatrix type="matrix" values="0 0 0 0 1 0 0 0 0 1 0 0 0 0 1 0 0 0 0.4 0"/>
<feBlend mode="normal" in2="effect2_innerShadow_205_27" result="effect3_innerShadow_205_27"/>
</filter>
<linearGradient id="paint0_linear_205_27" x1="13" y1="9" x2="53.8283" y2="55.21" gradientUnits="userSpaceOnUse">
<stop stop-color="#712396"/>
<stop offset="1" stop-color="#005EFF"/>
</linearGradient>
</defs>
</svg>
